<svg width="328" height="50" viewBox="0 0 328 50" fill="none" xmlns="http://www.w3.org/2000/svg">
<g clip-path="url(#clip0_3090_2295)">
<path fill-rule="evenodd" clip-rule="evenodd" d="M152.976 7.23047C153.161 10.7368 151.618 13.486 148.246 14.4657C147.229 11.0464 149.18 8.77961 152.976 7.23047Z" fill="#825300"/>
<path fill-rule="evenodd" clip-rule="evenodd" d="M154.682 14.0234C154.866 17.5303 153.323 20.2789 149.951 21.2587C148.933 17.8393 150.885 15.5731 154.682 14.0234Z" fill="#825300"/>
<path fill-rule="evenodd" clip-rule="evenodd" d="M151.667 0C151.851 3.50688 150.309 6.25549 146.936 7.23522C145.919 3.81591 147.87 1.54971 151.667 0Z" fill="#825300"/>
<path fill-rule="evenodd" clip-rule="evenodd" d="M139.742 8.05859C143.536 9.16536 145.904 11.4155 145.736 14.5315C141.737 14.1395 140.028 11.7274 139.742 8.05859Z" fill="#825300"/>
<path fill-rule="evenodd" clip-rule="evenodd" d="M157.415 19.8555C157.599 23.3623 156.056 26.111 152.685 27.0907C151.667 23.6714 153.618 21.4052 157.415 19.8555Z" fill="#825300"/>
<path fill-rule="evenodd" clip-rule="evenodd" d="M160.637 25.4375C160.821 28.9444 159.279 31.693 155.906 32.6727C154.889 29.2534 156.84 26.9872 160.637 25.4375Z" fill="#825300"/>
<path d="M146.48 8.07434C146.483 8.13443 145.935 23.9383 159.754 39.3397L157.224 40.0012C150.628 31.7216 145.896 20.2981 146.48 8.07434Z" fill="#825300"/>
<path fill-rule="evenodd" clip-rule="evenodd" d="M139 1.94531C142.793 3.05151 145.161 5.30225 144.994 8.41827C140.994 8.02626 139.285 5.61415 139 1.94531Z" fill="#825300"/>
<path fill-rule="evenodd" clip-rule="evenodd" d="M140.043 15.7578C143.959 16.4628 146.614 18.4515 146.867 21.5629C142.843 21.5892 140.821 19.3711 140.043 15.7578Z" fill="#825300"/>
<path fill-rule="evenodd" clip-rule="evenodd" d="M141.05 23.043C145.035 23.3045 147.957 24.9801 148.659 28.0383C144.672 28.5139 142.344 26.5401 141.05 23.043Z" fill="#825300"/>
<path fill-rule="evenodd" clip-rule="evenodd" d="M143.746 30.2969C147.737 30.0972 150.883 31.422 152.035 34.3732C148.153 35.3037 145.552 33.615 143.746 30.2969Z" fill="#825300"/>
<path fill-rule="evenodd" clip-rule="evenodd" d="M175.024 7.23047C174.839 10.7368 176.382 13.486 179.754 14.4657C180.771 11.0464 178.82 8.77961 175.024 7.23047Z" fill="#825300"/>
<path fill-rule="evenodd" clip-rule="evenodd" d="M173.318 14.0234C173.134 17.5303 174.677 20.2789 178.049 21.2587C179.067 17.8393 177.115 15.5731 173.318 14.0234Z" fill="#825300"/>
<path fill-rule="evenodd" clip-rule="evenodd" d="M176.332 0C176.148 3.50688 177.691 6.25549 181.063 7.23522C182.08 3.81591 180.129 1.54971 176.332 0Z" fill="#825300"/>
<path fill-rule="evenodd" clip-rule="evenodd" d="M188.258 8.05859C184.465 9.16536 182.096 11.4155 182.264 14.5315C186.263 14.1395 187.973 11.7274 188.258 8.05859Z" fill="#825300"/>
<path fill-rule="evenodd" clip-rule="evenodd" d="M170.585 19.8555C170.401 23.3623 171.944 26.111 175.315 27.0907C176.333 23.6714 174.382 21.4052 170.585 19.8555Z" fill="#825300"/>
<path fill-rule="evenodd" clip-rule="evenodd" d="M167.363 25.4375C167.18 28.9444 168.722 31.693 172.094 32.6727C173.111 29.2534 171.16 26.9872 167.363 25.4375Z" fill="#825300"/>
<path d="M181.519 8.07434C181.517 8.13443 182.065 23.9383 168.246 39.3397L170.775 40.0012C177.371 31.7216 182.104 20.2981 181.519 8.07434Z" fill="#825300"/>
<path fill-rule="evenodd" clip-rule="evenodd" d="M189 1.94531C185.207 3.05151 182.839 5.30225 183.006 8.41827C187.006 8.02626 188.715 5.61415 189 1.94531Z" fill="#825300"/>
<path fill-rule="evenodd" clip-rule="evenodd" d="M187.958 15.7578C184.042 16.4628 181.387 18.4515 181.134 21.5629C185.157 21.5892 187.18 19.3711 187.958 15.7578Z" fill="#825300"/>
<path fill-rule="evenodd" clip-rule="evenodd" d="M186.95 23.043C182.964 23.3045 180.043 24.9801 179.341 28.0383C183.328 28.5139 185.655 26.5401 186.95 23.043Z" fill="#825300"/>
<path fill-rule="evenodd" clip-rule="evenodd" d="M184.254 30.2969C180.263 30.0972 177.117 31.422 175.965 34.3732C179.847 35.3037 182.449 33.615 184.254 30.2969Z" fill="#825300"/>
</g>
<line x1="0.5" y1="-0.5" x2="159.5" y2="-0.5" transform="matrix(0.999985 -0.00550865 0.00709084 0.999975 168 39.8828)" stroke="#825300" stroke-linecap="round"/>
<line x1="0.5" y1="-0.5" x2="159.5" y2="-0.5" transform="matrix(0.999985 -0.00550865 0.00709084 0.999975 0 40.7617)" stroke="#825300" stroke-linecap="round"/>
<defs>
<clipPath id="clip0_3090_2295">
<rect width="50" height="50" fill="white" transform="translate(139)"/>
</clipPath>
</defs>
</svg>
