<svg width="77" height="101" viewBox="0 0 77 101" fill="none" xmlns="http://www.w3.org/2000/svg">
<path d="M39.5937 66.7524C34.628 65.9878 33.6437 63.7402 33.5999 63.6475C33.4031 63.0682 32.7906 62.7438 32.2218 62.9292C31.653 63.1377 31.3468 63.7865 31.5218 64.389C31.6312 64.7597 32.8343 68.0269 39.2652 69.0233H39.4183C39.9433 69.0233 40.4246 68.6062 40.4902 68.0269C40.5777 67.4012 40.162 66.7988 39.5714 66.7061L39.5937 66.7524Z" fill="#825300"/>
<path d="M62.1907 72.1985H51.4723V64.8068C51.4723 64.2043 51.013 63.6945 50.4442 63.6482C47.7535 63.4628 45.2379 62.5591 42.9409 61.0067L62.5409 25.9717C62.694 25.7168 62.7377 25.3924 62.6502 25.0912C62.5846 24.7899 62.3877 24.5351 62.1471 24.3729L55.5409 20.2947C55.169 20.063 54.6877 20.0862 54.3377 20.3642C53.9877 20.6423 53.8346 21.1288 53.944 21.5691L55.2127 26.6437L51.9534 26.0412C51.5159 25.9717 51.0565 26.1803 50.8159 26.5973L35.9409 53.1053C30.669 44.0451 29.1815 32.3898 29.1815 32.2978L28.4597 25.7403C28.3941 25.2074 28.0222 24.8135 27.519 24.7208C27.0159 24.6281 26.5565 24.9293 26.3597 25.4159C25.9659 26.3891 16.888 49.5601 23.6253 62.4203C26.4691 67.8656 31.5003 70.6923 36.4438 72.1523H14.2188C13.6062 72.1523 13.125 72.662 13.125 73.3108C13.125 73.9596 13.6062 74.4694 14.2188 74.4694H62.1904C62.8029 74.4694 63.2842 73.9596 63.2842 73.3108C63.2842 72.662 62.8029 72.1523 62.1904 72.1523L62.1907 72.1985ZM52.2815 28.497L56.4815 29.2848C56.8534 29.3543 57.2253 29.2153 57.4659 28.9373C57.7284 28.636 57.8159 28.2421 57.7284 27.8482L56.7002 23.7237L60.0909 25.8091L41.1475 59.6622C41.1475 59.6622 41.0381 59.5695 40.9725 59.5232C40.3818 58.9902 39.8131 58.4109 39.2443 57.7853C39.1349 57.6694 39.0474 57.5304 38.9381 57.4145C38.4568 56.8353 37.9756 56.2096 37.4943 55.5608C37.4287 55.4681 37.3412 55.3523 37.2756 55.2596L52.2815 28.497ZM25.5065 61.3306C20.9565 52.6878 24.5003 38.1822 26.7753 30.8601L26.9722 32.5748C27.0378 33.1309 28.7003 46.2692 35.0656 55.9774C36.6843 58.3872 38.3687 60.2873 40.1843 61.7935C40.4031 61.9788 40.5999 62.1642 40.8187 62.3264C43.378 64.2959 46.2218 65.4777 49.2845 65.8484V71.2705C45.3688 71.4559 30.8437 71.4559 25.5279 61.3065L25.5065 61.3306Z" fill="#825300"/>
</svg>
