<svg width="51" height="55" viewBox="0 0 51 55" fill="none" xmlns="http://www.w3.org/2000/svg">
<path d="M49.1907 52.1985H38.4723V44.8068C38.4723 44.2043 38.013 43.6945 37.4442 43.6482C34.7535 43.4628 32.2379 42.5591 29.9409 41.0067L49.5409 5.97167C49.694 5.71679 49.7377 5.39239 49.6502 5.09116C49.5846 4.78994 49.3877 4.53505 49.1471 4.37285L42.5409 0.294705C42.169 0.0629919 41.6877 0.0861632 41.3377 0.364219C40.9877 0.642274 40.8346 1.12883 40.944 1.56913L42.2127 6.64368L38.9534 6.04122C38.5159 5.97171 38.0565 6.18025 37.8159 6.59733L22.9409 33.1053C17.669 24.0451 16.1815 12.3898 16.1815 12.2978L15.4597 5.74033C15.3941 5.20739 15.0222 4.81348 14.519 4.72079C14.0159 4.62811 13.5565 4.92934 13.3597 5.41593C12.9659 6.38913 3.88799 29.5601 10.6253 42.4203C13.4691 47.8656 18.5003 50.6923 23.4438 52.1523H1.21875C0.60625 52.1523 0.125 52.662 0.125 53.3108C0.125 53.9596 0.60625 54.4694 1.21875 54.4694H49.1904C49.8029 54.4694 50.2842 53.9596 50.2842 53.3108C50.2842 52.662 49.8029 52.1523 49.1904 52.1523L49.1907 52.1985ZM39.2815 8.49701L43.4815 9.28483C43.8534 9.35435 44.2253 9.21532 44.4659 8.93727C44.7284 8.63604 44.8159 8.24213 44.7284 7.84818L43.7002 3.72369L47.0909 5.8091L28.1475 39.6622C28.1475 39.6622 28.0381 39.5695 27.9725 39.5232C27.3818 38.9902 26.8131 38.4109 26.2443 37.7853C26.1349 37.6694 26.0474 37.5304 25.9381 37.4145C25.4568 36.8353 24.9756 36.2096 24.4943 35.5608C24.4287 35.4681 24.3412 35.3523 24.2756 35.2596L39.2815 8.49701ZM12.5065 41.3306C7.95653 32.6878 11.5003 18.1822 13.7753 10.8601L13.9722 12.5748C14.0378 13.1309 15.7003 26.2692 22.0656 35.9774C23.6843 38.3872 25.3687 40.2873 27.1843 41.7935C27.4031 41.9788 27.5999 42.1642 27.8187 42.3264C30.378 44.2959 33.2218 45.4777 36.2845 45.8484V51.2705C32.3688 51.4559 17.8437 51.4559 12.5279 41.3065L12.5065 41.3306Z" fill="#825300"/>
</svg>
