<svg width="18" height="31" viewBox="0 0 18 31" fill="none" xmlns="http://www.w3.org/2000/svg">
<path d="M1.57824 1.57797C1.16815 1.98819 0.937771 2.54449 0.937771 3.12453C0.937771 3.70458 1.16815 4.26088 1.57824 4.6711L12.4064 15.4992L1.57824 26.3273C1.17977 26.7399 0.959282 27.2925 0.964266 27.866C0.969252 28.4396 1.19931 28.9882 1.60489 29.3938C2.01047 29.7994 2.55912 30.0295 3.13268 30.0344C3.70623 30.0394 4.2588 29.8189 4.67136 29.4205L17.0461 17.0458C17.4561 16.6356 17.6865 16.0793 17.6865 15.4992C17.6865 14.9192 17.4561 14.3629 17.0461 13.9527L4.67136 1.57797C4.26115 1.16788 3.70485 0.9375 3.1248 0.9375C2.54476 0.9375 1.98846 1.16788 1.57824 1.57797Z" fill="black"/>
</svg>
