<svg width="45" height="15" viewBox="0 0 45 15" fill="none" xmlns="http://www.w3.org/2000/svg">
<path d="M4.11933 8.58506C16.9721 0.369219 30.2249 -1.16023 44.4466 3.20787C43.5865 4.57515 42.7036 4.17166 42.0409 3.99136C36.9652 2.83274 31.8829 3.14206 26.8438 3.38607C19.5804 3.72347 12.9453 6.44547 6.58079 10.4251C6.29751 10.5749 6.07507 10.841 5.53199 11.3827C9.00703 11.9017 12.2591 10.1191 15.3739 11.529C15.348 11.776 15.3774 12.0789 15.3518 12.3259C13.1567 12.7222 10.9125 13.1232 8.72304 13.58C6.53381 14.0368 4.39979 14.5494 2.20469 14.9456C0.593778 15.2241 -0.188658 14.3217 0.225232 12.4475C0.733781 10.0138 1.55498 7.7332 2.27188 5.40159C2.34681 5.14978 2.46496 4.83263 2.64982 4.69243C3.1673 4.39771 3.70239 4.28468 4.27483 4.04576C4.43174 4.64194 4.74227 5.28435 4.74603 5.83423C4.71808 6.57058 4.43268 7.20965 4.11933 8.58506Z" fill="#593B06"/>
</svg>
