<svg width="45" height="15" viewBox="0 0 45 15" fill="none" xmlns="http://www.w3.org/2000/svg">
<path d="M4.11933 8.20615C16.9721 -0.00968723 30.2249 -1.53914 44.4466 2.82897C43.5865 4.19624 42.7036 3.79275 42.0409 3.61246C36.9652 2.45384 31.8829 2.76316 26.8438 3.00716C19.5804 3.34456 12.9453 6.06656 6.58079 10.0462C6.29751 10.1959 6.07507 10.4621 5.53199 11.0038C9.00703 11.5228 12.2591 9.74019 15.3739 11.1501C15.348 11.3971 15.3774 11.7 15.3518 11.947C13.1567 12.3433 10.9125 12.7442 8.72304 13.2011C6.53381 13.6579 4.39979 14.1705 2.20469 14.5667C0.593778 14.8452 -0.188658 13.9428 0.225232 12.0686C0.733781 9.63488 1.55498 7.35429 2.27188 5.02269C2.34681 4.77087 2.46496 4.45372 2.64982 4.31352C3.1673 4.01881 3.70239 3.90578 4.27483 3.66685C4.43174 4.26303 4.74227 4.90544 4.74603 5.45532C4.71808 6.19167 4.43268 6.83074 4.11933 8.20615Z" fill="#593B06"/>
</svg>
