<svg width="35" height="35" viewBox="0 0 35 35" fill="none" xmlns="http://www.w3.org/2000/svg">
<path d="M31.8241 10.8369C31.6899 10.643 31.5108 10.4846 31.302 10.3751C31.0933 10.2657 30.8611 10.2084 30.6253 10.2084H10.6943L9.01137 6.16877C8.79136 5.63634 8.41786 5.18144 7.93844 4.862C7.45902 4.54256 6.89537 4.37304 6.31928 4.37502H2.91699V7.29168H6.31928L13.2376 23.8948C13.3484 24.1605 13.5354 24.3874 13.7749 24.547C14.0144 24.7066 14.2958 24.7917 14.5837 24.7917H26.2503C26.8585 24.7917 27.4024 24.414 27.6168 23.8467L31.9918 12.18C32.0745 11.9593 32.1024 11.7217 32.0732 11.4878C32.044 11.2539 31.9585 11.0305 31.8241 10.8369ZM25.2397 21.875H15.5564L11.9105 13.125H28.521L25.2397 21.875Z" fill="#2D2927"/>
<path d="M15.3125 30.625C16.5206 30.625 17.5 29.6456 17.5 28.4375C17.5 27.2294 16.5206 26.25 15.3125 26.25C14.1044 26.25 13.125 27.2294 13.125 28.4375C13.125 29.6456 14.1044 30.625 15.3125 30.625Z" fill="#2D2927"/>
<path d="M25.5205 30.625C26.7286 30.625 27.708 29.6456 27.708 28.4375C27.708 27.2294 26.7286 26.25 25.5205 26.25C24.3124 26.25 23.333 27.2294 23.333 28.4375C23.333 29.6456 24.3124 30.625 25.5205 30.625Z" fill="#2D2927"/>
</svg>
