<svg width="32" height="32" viewBox="0 0 32 32" fill="none" xmlns="http://www.w3.org/2000/svg">
<path d="M21.3332 4C20.6259 4 19.9477 4.28095 19.4476 4.78105C18.9475 5.28115 18.6665 5.95942 18.6665 6.66667V14.6667C18.6665 15.3739 18.9475 16.0522 19.4476 16.5523C19.9477 17.0524 20.6259 17.3333 21.3332 17.3333C21.6868 17.3333 22.0259 17.4738 22.276 17.7239C22.526 17.9739 22.6665 18.313 22.6665 18.6667V20C22.6665 20.7072 22.3856 21.3855 21.8855 21.8856C21.3854 22.3857 20.7071 22.6667 19.9998 22.6667C19.6462 22.6667 19.3071 22.8071 19.057 23.0572C18.807 23.3072 18.6665 23.6464 18.6665 24V26.6667C18.6665 27.0203 18.807 27.3594 19.057 27.6095C19.3071 27.8595 19.6462 28 19.9998 28C22.1216 28 24.1564 27.1571 25.6567 25.6569C27.157 24.1566 27.9998 22.1217 27.9998 20V6.66667C27.9998 5.95942 27.7189 5.28115 27.2188 4.78105C26.7187 4.28095 26.0404 4 25.3332 4H21.3332Z" stroke="#FACC15" stroke-width="2.8" stroke-linecap="round" stroke-linejoin="round"/>
<path d="M6.66569 4C5.95845 4 5.28017 4.28095 4.78007 4.78105C4.27997 5.28115 3.99902 5.95942 3.99902 6.66667V14.6667C3.99902 15.3739 4.27997 16.0522 4.78007 16.5523C5.28017 17.0524 5.95845 17.3333 6.66569 17.3333C7.01931 17.3333 7.35845 17.4738 7.6085 17.7239C7.85855 17.9739 7.99902 18.313 7.99902 18.6667V20C7.99902 20.7072 7.71807 21.3855 7.21798 21.8856C6.71788 22.3857 6.0396 22.6667 5.33236 22.6667C4.97873 22.6667 4.6396 22.8071 4.38955 23.0572C4.1395 23.3072 3.99902 23.6464 3.99902 24V26.6667C3.99902 27.0203 4.1395 27.3594 4.38955 27.6095C4.6396 27.8595 4.97873 28 5.33236 28C7.45409 28 9.48892 27.1571 10.9892 25.6569C12.4895 24.1566 13.3324 22.1217 13.3324 20V6.66667C13.3324 5.95942 13.0514 5.28115 12.5513 4.78105C12.0512 4.28095 11.3729 4 10.6657 4H6.66569Z" stroke="#FACC15" stroke-width="2.8" stroke-linecap="round" stroke-linejoin="round"/>
</svg>
