<svg width="31" height="32" viewBox="0 0 31 32" fill="none" xmlns="http://www.w3.org/2000/svg">
<g opacity="0.5">
<path d="M10.5302 18.3809C10.2693 18.3809 10.0421 18.2841 9.84851 18.0906C9.65493 17.897 9.55814 17.6698 9.55814 17.4088C9.55814 17.1479 9.65493 16.9211 9.84851 16.7284C10.0421 16.5357 10.2693 16.4389 10.5302 16.438C10.7911 16.4372 11.0184 16.534 11.2119 16.7284C11.4055 16.9228 11.5023 17.1501 11.5023 17.4101C11.5023 17.6702 11.4055 17.897 11.2119 18.0906C11.0184 18.2841 10.7911 18.3809 10.5302 18.3809ZM15.58 18.3809C15.3191 18.3809 15.0918 18.2841 14.8983 18.0906C14.7047 17.897 14.6079 17.6698 14.6079 17.4088C14.6079 17.1479 14.7047 16.9211 14.8983 16.7284C15.0918 16.5357 15.3191 16.4389 15.58 16.438C15.8409 16.4372 16.0681 16.534 16.2617 16.7284C16.4553 16.9228 16.5521 17.1501 16.5521 17.4101C16.5521 17.6702 16.4553 17.897 16.2617 18.0906C16.0681 18.2841 15.8409 18.3809 15.58 18.3809ZM20.6297 18.3809C20.3688 18.3809 20.1416 18.2841 19.948 18.0906C19.7544 17.897 19.6576 17.6698 19.6576 17.4088C19.6576 17.1479 19.7544 16.9211 19.948 16.7284C20.1416 16.5357 20.3688 16.4389 20.6297 16.438C20.8906 16.4372 21.1179 16.534 21.3114 16.7284C21.505 16.9228 21.6018 17.1501 21.6018 17.4101C21.6018 17.6702 21.505 17.897 21.3114 18.0906C21.1179 18.2841 20.8906 18.3809 20.6297 18.3809ZM7.52057 27.3632C6.93901 27.3632 6.45381 27.1688 6.06498 26.7799C5.67615 26.3911 5.48131 25.9059 5.48047 25.3243V9.203C5.48047 8.62228 5.6753 8.1375 6.06498 7.74867C6.45465 7.35984 6.93985 7.16501 7.52057 7.16416H9.75382V5.02812C9.75382 4.83202 9.81821 4.66959 9.94698 4.54082C10.0757 4.41205 10.2378 4.34766 10.433 4.34766C10.6283 4.34766 10.7907 4.41205 10.9203 4.54082C11.0499 4.66959 11.1143 4.83202 11.1135 5.02812V7.16416H20.145V4.98015C20.145 4.80004 20.2051 4.64939 20.3255 4.52819C20.4458 4.407 20.5961 4.34682 20.7762 4.34766C20.9563 4.34851 21.1061 4.40868 21.2256 4.52819C21.3451 4.6477 21.4057 4.79793 21.4074 4.97888V7.16416H23.6406C24.2214 7.16416 24.7066 7.359 25.0962 7.74867C25.4859 8.13835 25.6803 8.62354 25.6795 9.20426V25.3243C25.6795 25.9051 25.4851 26.3903 25.0962 26.7799C24.7074 27.1696 24.2218 27.364 23.6394 27.3632H7.52057ZM7.52057 26.1007H23.6406C23.8342 26.1007 24.0122 26.0199 24.1747 25.8583C24.3371 25.6968 24.4179 25.5183 24.417 25.3231V14.254H6.74291V25.3243C6.74291 25.5179 6.8237 25.6959 6.9853 25.8583C7.14689 26.0208 7.32489 26.1016 7.51931 26.1007M6.74291 12.9903H24.417V9.203C24.417 9.00943 24.3362 8.83142 24.1747 8.66899C24.0131 8.50656 23.8346 8.42576 23.6394 8.4266H7.52057C7.32615 8.4266 7.14773 8.5074 6.9853 8.66899C6.82286 8.83058 6.74207 9.00901 6.74291 9.20426V12.9903Z" fill="#825300"/>
</g>
</svg>
