<svg width="93" height="98" viewBox="0 0 93 98" fill="none" xmlns="http://www.w3.org/2000/svg">
<path d="M19.8926 27.9755C19.6621 27.9755 19.4394 27.8974 19.2558 27.7568C14.5292 24.0966 11.9277 19.206 11.9277 13.9868C11.9277 8.7676 14.5293 3.87779 19.2558 0.216795C19.6308 -0.072265 20.1582 -0.072265 20.5331 0.216795C25.2597 3.877 27.8612 8.7676 27.8612 13.9868C27.8612 19.206 25.2596 24.0958 20.5331 27.7568C20.3495 27.8974 20.123 27.9755 19.8926 27.9755ZM19.8926 2.38155C16.0918 5.56905 14.0098 9.66275 14.0098 13.9865C14.0098 18.3107 16.0918 22.4045 19.8926 25.5915C23.6934 22.404 25.7754 18.3103 25.7754 13.9865C25.7793 9.66235 23.6973 5.56855 19.8926 2.38155Z" fill="#825300"/>
<path d="M17.1741 37.5194C12.5452 37.6404 8.06855 35.8866 4.75205 32.66C1.07625 28.9764 -0.552647 23.7303 0.166153 17.89C0.224747 17.4134 0.599743 17.0384 1.07631 16.9798C7.08411 16.261 12.4473 17.929 16.1813 21.679C19.8571 25.3626 21.486 30.6087 20.7711 36.449C20.7125 36.9256 20.3375 37.3006 19.861 37.3592C18.9703 37.4646 18.0725 37.5194 17.1741 37.5194ZM2.15105 18.9684C1.62371 23.445 3.11589 27.9254 6.22915 31.1874C9.58465 34.3827 14.1862 35.9179 18.7882 35.371C19.3155 30.8944 17.8194 26.414 14.7101 23.152C11.3546 19.9528 6.74915 18.4215 2.15105 18.9684Z" fill="#825300"/>
<path d="M22.6158 37.5178C21.7173 37.5178 20.8189 37.4631 19.9283 37.3577C19.4517 37.2991 19.0767 36.9241 19.0181 36.4475C18.3033 30.6077 19.9322 25.3615 23.6079 21.6775C27.3423 17.9314 32.7173 16.2634 38.7129 16.9783C39.1895 17.0369 39.5645 17.4119 39.6231 17.8885C40.3379 23.7283 38.709 28.9705 35.0333 32.6585C31.7208 35.8851 27.2408 37.6389 22.6158 37.5178ZM21.0025 35.3694C25.6002 35.9163 30.2056 34.3812 33.5615 31.1858C36.6709 27.9241 38.167 23.4436 37.6396 18.9668C33.0419 18.42 28.4365 19.9512 25.0806 23.1504C21.9712 26.4121 20.4751 30.8926 21.0025 35.3694Z" fill="#825300"/>
<path d="M17.1741 53.5187C12.5452 53.6398 8.06855 51.8898 4.75205 48.6593C1.07625 44.9718 -0.552647 39.7296 0.166153 33.8893C0.224747 33.4127 0.599743 33.0377 1.07631 32.983C7.08411 32.2604 12.4473 33.9323 16.1813 37.6822C19.8571 41.3658 21.486 46.6119 20.7711 52.4522V52.4483C20.7125 52.9249 20.3375 53.2999 19.861 53.3585C18.9703 53.464 18.0725 53.5187 17.1741 53.5187ZM2.15105 34.9677C1.62371 39.4443 3.11589 43.9247 6.22915 47.1907C9.58465 50.386 14.1901 51.9173 18.7882 51.3704C19.3155 46.8938 17.8194 42.4134 14.7101 39.1514C11.3546 35.9561 6.74915 34.4208 2.15105 34.9677Z" fill="#825300"/>
<path d="M22.6158 53.5194C21.7173 53.5194 20.8189 53.4647 19.9283 53.3592C19.4517 53.3006 19.0767 52.9256 19.0181 52.449C18.3033 46.6092 19.9322 41.363 23.6079 37.679C27.3423 33.9329 32.7173 32.2649 38.7129 32.9837C39.1895 33.0384 39.5645 33.4134 39.6231 33.89C40.3379 39.7298 38.709 44.976 35.0333 48.66C31.7208 51.8905 27.2408 53.6405 22.6158 53.5194ZM21.0025 51.371C25.6002 51.9217 30.2056 50.3866 33.5615 47.1913C36.6709 43.9257 38.167 39.4452 37.6396 34.9683C33.0419 34.4214 28.4365 35.9565 25.0806 39.1519C21.9712 42.4136 20.4751 46.8942 21.0025 51.371Z" fill="#825300"/>
<path d="M17.1738 69.5213C12.5449 69.6424 8.06832 67.8885 4.75182 64.658C1.07992 60.9744 -0.552884 55.7283 0.165916 49.888C0.22451 49.4114 0.599506 49.0364 1.07608 48.9818C7.07608 48.263 12.4471 49.931 16.1811 53.681C19.8569 57.3646 21.4858 62.6107 20.7709 68.451C20.7123 68.9275 20.3373 69.3025 19.8607 69.3572C18.9701 69.4666 18.0722 69.5213 17.1738 69.5213ZM2.15082 50.9663C1.62348 55.4468 3.11566 59.9272 6.22892 63.1893C9.33442 66.3026 13.7719 67.7713 18.7879 67.3729C19.3153 62.8924 17.8192 58.412 14.7098 55.1499C11.3543 51.9546 6.74892 50.4233 2.15082 50.9663Z" fill="#825300"/>
<path d="M22.6158 69.5213C21.7173 69.5213 20.8189 69.4666 19.9283 69.3572C19.4517 69.3026 19.0767 68.9276 19.0181 68.451C18.3033 62.6112 19.9322 57.365 23.6079 53.681C27.3423 49.9349 32.7056 48.2669 38.7129 48.9857V48.9818C39.1895 49.0365 39.5645 49.4115 39.6231 49.888C40.3379 55.7278 38.709 60.97 35.0333 64.658C31.7208 67.8885 27.2408 69.6424 22.6158 69.5213ZM21.0025 67.3729C25.6002 67.9159 30.2056 66.3846 33.5615 63.1893C36.6709 59.9276 38.167 55.4471 37.6396 50.9663C33.0419 50.4233 28.4365 51.9546 25.0806 55.1499C21.9712 58.4116 20.4751 62.8921 21.0025 67.3729Z" fill="#825300"/>
<path d="M17.1741 85.5213C12.5452 85.6424 8.06855 83.8885 4.75205 80.6619C1.07625 76.9744 -0.552647 71.7322 0.166153 65.8919C0.224747 65.4154 0.599743 65.0404 1.07631 64.9818C7.08411 64.263 12.4473 65.931 16.1813 69.681C19.8571 73.3646 21.486 78.6107 20.7711 84.451C20.7125 84.9275 20.3375 85.3025 19.861 85.3572C18.9703 85.4666 18.0725 85.5213 17.1741 85.5213ZM2.15105 66.9703C1.62371 71.4469 3.11589 75.9273 6.22915 79.1893C9.33465 82.3026 13.7722 83.7713 18.7882 83.3729C19.3155 78.8963 17.8194 74.4159 14.7101 71.1499C11.3546 67.9546 6.74915 66.4234 2.15105 66.9703Z" fill="#825300"/>
<path d="M22.6158 85.5217C21.7173 85.5217 20.8189 85.467 19.9283 85.3577C19.4517 85.303 19.0767 84.928 19.0181 84.4514C18.3033 78.6116 19.9322 73.3654 23.6079 69.6814C27.3423 65.9353 32.7173 64.2673 38.7129 64.9822C39.1895 65.0408 39.5645 65.4158 39.6231 65.8924C40.3379 71.7322 38.709 76.9784 35.0333 80.6624C31.7208 83.889 27.2408 85.6428 22.6158 85.5217ZM21.0025 83.3733C25.6002 83.9202 30.2056 82.385 33.5615 79.1897C36.6709 75.928 38.167 71.4475 37.6396 66.9707C33.0419 66.4238 28.4365 67.9551 25.0806 71.1504C21.9712 74.416 20.4751 78.8964 21.0025 83.3733Z" fill="#825300"/>
<path d="M19.8926 97.3576C19.6191 97.3576 19.3535 97.2483 19.1582 97.0529C18.9629 96.8576 18.8535 96.592 18.8535 96.3147V26.9317C18.8535 26.3575 19.3184 25.8887 19.8926 25.8887C20.4707 25.8887 20.9356 26.3574 20.9356 26.9317V96.3147C20.9356 96.592 20.8262 96.8576 20.6309 97.0529C20.4356 97.2483 20.1699 97.3576 19.8926 97.3576Z" fill="#825300"/>
<path d="M71.9427 29.4436C71.6537 29.4436 71.3802 29.3225 71.181 29.1116C67.1224 24.76 65.3529 19.5296 66.1888 14.3926C67.0286 9.22456 70.3997 4.80276 75.6732 1.93556C76.0912 1.709 76.6107 1.79103 76.9349 2.13869C80.9935 6.49029 82.763 11.7168 81.9271 16.8577C81.0833 22.0257 77.7162 26.4475 72.4427 29.3147C72.2904 29.4006 72.1185 29.4436 71.9427 29.4436ZM75.9544 4.17059C71.6692 6.72139 68.9427 10.444 68.2435 14.7256H68.2474C67.6302 19.2217 69.0677 23.7608 72.1615 27.0806C76.4467 24.5298 79.1732 20.8072 79.8724 16.5256H79.8685C80.4857 12.0295 79.0482 7.49039 75.9544 4.17059Z" fill="#825300"/>
<path d="M70.2559 38.6868H70.2129C64.1699 38.4368 59.147 35.9407 56.072 31.6477C53.0408 27.425 52.2907 21.9836 53.9508 16.3317C54.0798 15.8708 54.5134 15.5583 54.9939 15.5856C61.0369 15.8356 66.0599 18.3356 69.1389 22.6247C72.1662 26.8474 72.9201 32.2888 71.26 37.9367H71.256C71.1271 38.3821 70.7208 38.6868 70.2559 38.6868ZM55.7329 17.7138C54.479 22.0458 55.2251 26.7099 57.7641 30.4328C60.3188 33.9953 64.4555 36.1516 69.4751 36.5539C70.729 32.2219 69.9829 27.5617 67.4439 23.8349C64.8892 20.2724 60.7486 18.1161 55.7329 17.7138Z" fill="#825300"/>
<path d="M76.12 39.5459C74.1434 39.5342 72.1786 39.249 70.2802 38.6943C69.8153 38.5615 69.5067 38.1279 69.5263 37.6474C69.7724 31.7685 72.2411 26.8504 76.4677 23.7994C80.7685 20.6978 86.331 19.9088 92.1397 21.5728V21.5768C92.6045 21.7096 92.9131 22.1393 92.8936 22.6198C92.6436 28.4987 90.1788 33.4168 85.9483 36.4678C83.0811 38.5108 79.6395 39.5889 76.12 39.5459ZM71.6591 36.9053C76.1161 38.1748 80.9052 37.3975 84.7291 34.7803C88.3346 32.0576 90.5455 27.878 90.7603 23.3663C86.3033 22.0968 81.5103 22.8741 77.6863 25.4913C74.0847 28.214 71.8739 32.3936 71.6591 36.9053Z" fill="#825300"/>
<path d="M67.6466 54.4755H67.6037C61.5607 54.2294 56.5377 51.7294 53.4587 47.4364C50.4275 43.2137 49.6775 37.7723 51.3376 32.1204V32.1243C51.4665 31.6595 51.9001 31.3509 52.3767 31.3743C58.4197 31.6243 63.4427 34.1243 66.5217 38.4134C69.549 42.6361 70.3029 48.0775 68.6428 53.7254V53.7293C68.5139 54.1707 68.1076 54.4755 67.6466 54.4755ZM53.1196 33.5065C51.8657 37.8346 52.6118 42.4987 55.1508 46.2215C57.7055 49.7879 61.8422 51.9403 66.8618 52.3426C68.1157 48.0145 67.3697 43.3504 64.8306 39.6276C62.2759 36.0651 58.1353 33.9088 53.1196 33.5065Z" fill="#825300"/>
<path d="M73.5067 55.3389C71.5301 55.3272 69.5653 55.042 67.6669 54.4873C67.2021 54.3545 66.8935 53.9209 66.913 53.4404C67.163 47.5615 69.6278 42.6434 73.8583 39.5924C78.1552 36.4908 83.7216 35.7018 89.5303 37.3658H89.5264C89.9912 37.4986 90.2998 37.9322 90.2803 38.4127C90.0342 44.2916 87.5655 49.2097 83.3389 52.2607C80.4717 54.3037 77.0262 55.3819 73.5067 55.3389ZM69.0458 52.6983C73.5028 53.9678 78.2919 53.1866 82.1198 50.5694C85.7214 47.8506 87.9323 43.6671 88.1471 39.1554C83.6901 37.8859 78.8971 38.6671 75.0731 41.2843C71.4715 44.0031 69.2606 48.1866 69.0458 52.6983Z" fill="#825300"/>
<path d="M65.0324 70.2693H64.9895C58.9465 70.0232 53.9235 67.5232 50.8445 63.2302C47.8172 59.0036 47.0633 53.5661 48.7234 47.9182V47.9143C48.8484 47.4494 49.2859 47.1369 49.7664 47.1682C55.8094 47.4143 60.8324 49.9143 63.9074 54.2073C66.9386 58.43 67.6886 63.8714 66.0285 69.5233V69.5194C65.8996 69.9647 65.4934 70.2693 65.0324 70.2693ZM50.5054 49.3003C49.2515 53.6284 49.9976 58.2925 52.5366 62.0153C55.0913 65.5778 59.228 67.7341 64.2476 68.1364C65.5015 63.8083 64.7554 59.1442 62.2164 55.4174C59.6617 51.8549 55.525 49.6987 50.5054 49.3003Z" fill="#825300"/>
<path d="M70.8915 71.1279C68.9149 71.1201 66.9501 70.8311 65.0517 70.2764C64.5907 70.1436 64.2782 69.7139 64.2977 69.2334C64.5438 63.3545 67.0125 58.4364 71.243 55.3854C75.5399 52.2838 81.1024 51.4948 86.911 53.1588C87.3759 53.2916 87.6845 53.7252 87.665 54.2057C87.4189 60.0846 84.9502 65.0027 80.7197 68.0537V68.0498C77.8564 70.0928 74.411 71.1709 70.8915 71.1279ZM66.4306 68.4873C70.8876 69.7568 75.6767 68.9795 79.5046 66.3623C83.1062 63.6396 85.3171 59.46 85.5319 54.9483C81.0749 53.6788 76.2858 54.4601 72.4619 57.0772C68.8564 59.796 66.6454 63.9796 66.4306 68.4873Z" fill="#825300"/>
<path d="M62.4201 86.0623H62.3771C56.3341 85.8162 51.3111 83.3162 48.2321 79.0232C45.2009 74.8005 44.4509 69.3591 46.111 63.7072C46.2399 63.2424 46.6735 62.9299 47.154 62.9611C53.197 63.2072 58.22 65.7072 61.299 70.0002C64.3302 74.2229 65.0802 79.6643 63.4201 85.3162V85.3123C63.2873 85.7576 62.881 86.0623 62.4201 86.0623ZM47.8931 65.0893C46.6392 69.4213 47.3853 74.0854 49.9283 77.8083C52.483 81.3708 56.6197 83.5271 61.6393 83.9294C62.8932 79.5974 62.1471 74.9333 59.6041 71.2104C57.0494 67.6479 52.9127 65.4916 47.8931 65.0893Z" fill="#825300"/>
<path d="M68.2782 86.9202C66.3016 86.9085 64.3368 86.6234 62.4384 86.0687C61.9774 85.9359 61.6649 85.5062 61.6845 85.0257C61.9306 79.1468 64.3993 74.2287 68.6259 71.1777C72.9228 68.08 78.4853 67.291 84.2979 68.9511C84.7627 69.0839 85.0752 69.5136 85.0518 69.9941C84.8018 75.873 82.337 80.7911 78.1065 83.8421H78.1104C75.2432 85.8851 71.7977 86.9632 68.2782 86.9202ZM63.8173 84.2796C68.2743 85.5491 73.0673 84.7718 76.8913 82.1546C80.4929 79.4319 82.7038 75.2523 82.9186 70.7406C78.4616 69.4711 73.6725 70.2484 69.8446 72.8656C66.243 75.5883 64.0321 79.7679 63.8173 84.2796Z" fill="#825300"/>
<path d="M60.6143 97.9159C60.5557 97.9159 60.5011 97.912 60.4425 97.9042C60.1729 97.8573 59.9268 97.7049 59.7667 97.4823C59.6065 97.2557 59.5401 96.9784 59.587 96.7049L70.915 28.232C70.9619 27.9585 71.1142 27.7163 71.3369 27.5523C71.5634 27.3921 71.8408 27.3296 72.1142 27.3726C72.6806 27.4663 73.0634 28.0015 72.9697 28.5718L61.6417 97.0448C61.5596 97.5487 61.1221 97.9159 60.6143 97.9159Z" fill="#825300"/>
</svg>
