<svg width="90" height="93" viewBox="0 0 90 93" fill="none" xmlns="http://www.w3.org/2000/svg">
<path d="M89.1259 11.7496C87.5866 9.49785 86.1459 13.8709 80.4275 12.4745C83.0764 10.5512 85.2779 8.2318 85.43 5.30348C85.4926 3.39956 82.8706 3.24493 82.7498 5.14885C82.6782 6.56464 81.5731 7.93218 80.1099 9.15957C80.8706 5.6997 80.3784 2.24961 78.5886 0.422998C78.0517 -0.127867 77.2016 -0.0988712 76.6915 0.480985C76.1814 1.06085 76.2083 1.97891 76.7452 2.52977C78.0607 3.86342 78.2308 7.44897 76.7542 10.7832C72.423 7.88379 66.0871 9.54612 63.0797 13.9918C60.7351 17.3695 58.2473 20.8535 55.8401 24.2939C52.8422 23.7624 50.1396 25.1251 47.4058 25.7629C47.4863 24.2456 47.3968 22.825 47.1284 21.5203C49.0435 21.9068 50.6274 21.6894 52.7751 20.6408C59.5047 17.1279 60.1803 10.1646 58.216 9.78778C57.6612 9.61383 57.0616 9.84577 56.7394 10.3676C53.7863 14.1271 48.1128 10.0584 44.829 16.5239C43.5807 14.9679 41.8938 13.7213 39.7728 12.8128C38.1218 12.1411 37.1508 14.7746 38.784 15.5091C43.1958 17.3985 45.1019 20.6989 44.726 25.8307C43.4285 25.5795 41.9698 25.0383 40.6185 24.6807C40.2427 21.5881 37.7817 19.0754 34.9047 18.8337C35.4685 14.1562 32.8196 8.66191 27.9604 9.60911C26.8104 4.09081 19.9332 2.60723 16.9264 7.24612C9.37353 -4.31251 -4.10755 7.89363 5.24394 22.6806C1.31537 23.763 -0.47887 29.1461 1.45408 33.1665C2.6622 36.0852 5.83453 38.4432 8.81455 39.4483C6.86372 42.0093 7.95546 45.9813 9.38727 48.1076C8.88166 48.0979 8.26867 48.0786 7.90173 48.5328C6.12536 63.9958 14.7923 79.0629 27.3745 84.533C27.2581 86.35 26.936 87.9977 26.3946 89.5198H5.1544C4.41164 89.5198 3.81204 90.1673 3.81204 90.9695C3.81204 91.7716 4.41161 92.4192 5.1544 92.4192H63.2679H84.8528C85.5956 92.4192 86.1952 91.7716 86.1952 90.9695C86.1952 90.1673 85.5956 89.5198 84.8528 89.5198H64.1636C63.6267 87.9928 63.3045 86.3499 63.1837 84.533C76.1949 78.5943 83.0723 65.6101 83.0505 49.562C82.9565 47.948 81.6187 48.0834 80.5 48.1123C81.2159 42.449 79.0861 36.6697 74.746 33.4423C76.0123 32.2536 77.2784 31.0166 78.5806 29.6974C82.2899 26.3825 83.3145 19.9461 80.9208 15.4999C81.5203 15.5869 82.1065 15.6352 82.6793 15.6352C84.29 15.7416 90.5364 14.4175 89.1314 11.7599L89.1259 11.7496ZM51.1735 15.3013C52.9096 15.3206 54.3639 15.0162 55.4735 14.5765C54.082 17.1859 49.4956 19.7759 46.9229 18.4518C47.4106 17.2148 48.5873 15.2964 51.1735 15.2964V15.3013ZM45.8937 28.8654C49.1601 28.9041 52.8873 26.3092 56.0014 27.3095C58.3639 28.1503 60.1358 31.0641 61.0217 33.34C62.6772 37.8194 61.6571 43.2074 59.9478 48.1078H31.8395C29.1639 41.0334 29.0116 33.1903 33.6114 28.784C35.0522 27.2329 36.654 26.769 39.0702 27.2861C41.3074 27.7596 43.6163 28.8613 45.8892 28.871L45.8937 28.8654ZM20.712 7.59455C23.0656 6.58462 25.7637 8.86053 25.4281 11.5666C25.3654 12.1561 25.6429 12.7214 26.1261 13.0018C26.6093 13.282 27.2 13.2144 27.6206 12.8375C29.5625 11.4747 31.7505 13.427 32.104 15.8624C32.368 17.2541 32.2382 18.7472 32.0637 20.1534C31.9205 21.1005 32.7752 21.98 33.6432 21.7722C35.3121 21.4146 37.1153 22.4487 37.7149 24.1883C36.3815 24.1303 34.8513 24.3622 33.339 25.348C31.5044 23.3185 28.7661 22.4584 26.3231 23.4007C26.511 20.7864 25.9562 17.4329 24.4035 15.5483C23.0254 13.8281 20.9045 13.0694 19.0431 13.9344C18.882 12.8761 18.6717 11.7985 18.372 10.7451C18.6583 9.37278 19.4279 8.0729 20.7032 7.59453L20.712 7.59455ZM11.8526 46.8804C10.8145 45.2375 10.3581 43.9231 10.4163 42.7391C10.47 41.6567 11.2217 40.4293 12.1524 40.4004C12.8235 40.3762 13.3784 39.8205 13.4455 39.0957C13.5171 38.3757 13.0786 37.7089 12.4253 37.5397C10.8146 37.1242 8.94417 36.5637 7.32896 35.6069C4.82328 34.3118 2.17442 30.5186 3.8658 27.2714C4.51011 26.0633 6.04033 25.0292 7.28429 25.4158C8.44762 25.8217 9.48127 24.2706 8.7609 23.2074C7.42747 21.091 6.06725 18.815 5.29773 16.3168C3.69146 11.7939 5.35142 5.8309 9.94221 5.57966C15.392 6.14502 16.2915 12.6974 16.7567 17.404C16.9178 19.0663 19.2176 19.0953 19.419 17.4378C19.7904 16.0269 21.5935 16.3409 22.3632 17.4427C24.0366 19.7911 23.956 23.6714 22.9627 26.4498C22.3676 28.0927 24.5959 29.2235 25.3879 27.6772C26.5155 25.5027 29.6655 25.3963 31.2673 27.2229C27.8667 31.1563 26.6318 35.8774 27.4774 41.8348C20.3183 35.4273 15.3333 26.4399 13.6026 16.6586C13.4638 15.8758 12.7614 15.3587 12.032 15.5086C11.3072 15.6584 10.8239 16.417 10.9671 17.2047C13.0209 28.8115 19.3745 39.3749 28.4261 46.2602C28.5917 46.8594 28.7751 47.4779 28.981 48.1061H12.6811C12.3858 47.705 12.1084 47.2943 11.8489 46.8836L11.8526 46.8804ZM29.2315 89.5149C29.6297 88.1425 29.8937 86.688 30.019 85.1515C32.3636 85.3834 58.1857 85.3834 60.535 85.1515C60.6603 86.6881 60.9243 88.1474 61.3225 89.5149H29.2315ZM64.9731 80.5028C63.0491 81.7495 60.8297 82.3873 58.5747 82.3873H31.9692C29.7186 82.3873 27.4993 81.7495 25.5753 80.5028C15.5794 74.018 10.5412 64.3632 10.201 51.0069H80.3418C80.0017 64.3632 74.9645 74.0219 64.9731 80.5028ZM75.5953 38.2604C77.5015 40.9375 78.2979 44.6196 77.7788 48.1084H62.8077C64.3693 43.3438 65.1881 38.1492 63.9532 33.6499C68.0876 32.7124 73.0091 34.5686 75.5953 38.2604ZM79.515 21.4541C79.4344 26.204 75.3179 28.8279 72.508 31.6886C72.2574 30.6883 71.8189 29.7219 71.1836 28.8086C69.895 27.1754 67.8501 29.3208 69.2328 30.8478C67.1298 30.3645 64.9866 30.3839 62.9507 30.9154C61.9573 28.8763 60.3823 26.6438 58.4672 25.3487C58.6194 25.1265 58.776 24.9042 58.9326 24.6867C60.597 24.5321 62.3689 24.4934 63.0222 25.1409C63.2638 25.3342 63.5457 25.4309 63.8276 25.4309C65.0625 25.4792 65.6711 23.5995 64.633 22.8215C63.7381 22.0967 62.5568 21.7198 61.0534 21.6763C62.4942 19.6468 63.9528 17.5496 65.3712 15.5394C67.0626 16.0903 68.9463 16.4189 70.0873 17.0374C70.2573 17.1147 70.4408 17.1533 70.6153 17.1533C72.0292 17.1823 72.4766 14.9644 71.1477 14.37C70.2439 13.9496 69.17 13.5775 67.9485 13.2489C70.4541 11.7412 74.2081 11.8669 76.2307 13.9496C78.262 16.0661 79.6849 18.0086 79.5149 21.4395L79.515 21.4541Z" fill="#825300"/>
</svg>
