<svg width="73" height="73" viewBox="0 0 73 73" fill="none" xmlns="http://www.w3.org/2000/svg">
<path d="M1.91602 71.0832L36.4994 36.4998M50.333 22.6665L46.2867 26.7128M50.333 22.6665H57.2494C60.9182 22.6665 64.4367 21.2091 67.031 18.6148C69.6252 16.0206 71.0827 12.502 71.0827 8.83317V1.9165H64.166C60.4972 1.9165 56.9786 3.37394 54.3844 5.96819C51.7901 8.56245 50.3327 12.081 50.3327 15.7498L50.333 22.6665ZM17.5822 55.4169C19.8418 53.1483 21.1106 50.0768 21.1106 46.8748C21.1106 43.6729 19.8418 40.6013 17.5822 38.3328L12.2909 33.0415L6.99966 38.3328C4.73998 40.6013 3.47125 43.6729 3.47125 46.8748C3.47125 50.0768 4.73998 53.1483 6.99966 55.4169L12.2909 60.7082M17.5822 55.4169L12.2909 60.7082M17.5822 55.4169C19.8507 53.1572 22.9224 51.8884 26.1244 51.8884C29.3263 51.8884 32.3978 53.1571 34.6664 55.4168L39.9577 60.7081L34.6664 65.9993C32.3978 68.259 29.3263 69.5277 26.1244 69.5277C22.9224 69.5277 19.8509 68.259 17.5823 65.9993L12.2909 60.7082M22.6659 22.6665L20.833 24.4994C18.5733 26.768 17.3046 29.8395 17.3046 33.0415C17.3046 36.2435 18.5733 39.315 20.833 41.5836L26.1242 46.8748M26.1242 46.8748L31.4155 41.5836M26.1242 46.8748L31.4156 52.1661C33.6842 54.4257 36.7557 55.6945 39.9577 55.6945C43.1597 55.6945 46.2312 54.4257 48.4998 52.1661L50.3327 50.3331M31.4155 41.5836C33.3176 39.6815 34.4588 37.2607 34.8047 34.7707M31.4155 41.5836C33.2616 39.7488 35.6515 38.56 38.2285 38.1944M32.7295 13.1907C33.2482 12.2915 33.9053 11.4269 34.6661 10.6661L39.9574 5.37484L45.2486 10.6661C47.3273 12.7549 48.5726 15.5304 48.7509 18.4719C48.9292 21.4135 48.0282 24.319 46.217 26.6436M59.8089 40.2696C60.708 39.7508 61.5726 39.0937 62.3334 38.3329L67.6247 33.0416L62.3334 27.7504C60.2446 25.6717 57.4691 24.4264 54.5276 24.2481C51.5861 24.0699 48.6805 24.9708 46.3559 26.7821M1.91602 1.9165L71.0827 71.0832" stroke="#825300" stroke-width="2" stroke-linecap="round" stroke-linejoin="round"/>
</svg>
