<svg width="67" height="80" viewBox="0 0 67 80" fill="none" xmlns="http://www.w3.org/2000/svg">
<path d="M45.377 1.14844C43.2035 0.770454 41.8018 1.15879 40.7949 1.78809C39.7444 2.44473 39.0177 3.42353 38.2881 4.46582C36.7971 6.59574 30.1258 15.1368 19.3164 25.7383L19.3135 25.7402C15.3752 29.5776 11.7019 35.0744 8.6377 40.5332C5.58036 45.9799 3.16253 51.3288 1.72363 54.8232L1.72168 54.8291L1.71875 54.8359C0.594069 57.4602 0.803328 60.619 2.25098 62.793C4.34313 65.9068 7.70687 68.4098 11.8213 70.3721C15.9293 72.3313 20.7226 73.7209 25.5869 74.6426C35.3396 76.4905 45.1993 76.4257 50.1133 75.4229L50.4893 75.3457L50.8203 75.54C53.9742 77.3953 59.925 78.9567 65.8867 78.9395V47.3105C65.711 47.3348 65.5194 47.3537 65.3213 47.3584C63.5222 47.5504 61.4722 48.321 59.8213 49.083C59.005 49.4598 58.3072 49.8248 57.8145 50.0947C57.5685 50.2295 57.3746 50.3407 57.2432 50.417C57.1774 50.4552 57.1267 50.4843 57.0938 50.5039C57.0774 50.5136 57.0653 50.5208 57.0576 50.5254C57.054 50.5276 57.0515 50.5293 57.0498 50.5303L57.0479 50.5312L56.6914 50.749L56.2861 50.6475C55.7259 50.5074 55.0862 50.1569 54.4824 49.8418C53.827 49.4997 53.0465 49.1007 52.0537 48.7207C50.0796 47.9652 47.2044 47.2617 42.8779 47.3623H42.875C37.8967 47.4619 33.1289 49.258 29.6025 50.6582C27.9023 51.3333 26.3734 51.968 25.3418 52.1787C25.0705 52.2341 24.7837 52.2721 24.5059 52.2607C24.2331 52.2496 23.8855 52.1872 23.5723 51.9658C22.8365 51.4456 22.909 50.5808 23.0293 50.0693L23.0342 50.0469L23.041 50.0244L23.7705 47.4336C24.6063 44.4596 25.7404 40.473 26.9902 36.7236C28.2355 32.988 29.8599 28.4746 31.708 24.8311C32.6306 23.0122 33.6316 21.3639 34.6982 20.1299C35.7429 18.9214 36.9832 17.9557 38.4053 17.8135L38.416 17.8125L38.4277 17.8115C41.0472 17.61 42.8546 17.2089 44.5059 16.8477C46.1633 16.4851 47.7079 16.1514 49.6914 16.1514C51.7771 16.1514 53.2434 15.8002 54.1504 15.2939C55.0203 14.8084 55.3212 14.2265 55.3213 13.6299C55.3213 13.2634 55.2407 13.1275 55.207 13.082C55.1694 13.0313 55.0916 12.9615 54.8818 12.8828C54.6504 12.7961 54.3903 12.7431 53.998 12.6523C53.6464 12.5709 53.1934 12.4585 52.7666 12.2451L52.7109 12.2178L52.6592 12.1826C52.4082 12.0153 52.2323 11.7617 52.166 11.4648C52.1073 11.2018 52.1485 10.9709 52.1904 10.8223C52.2708 10.5374 52.4338 10.2763 52.5654 10.0859C52.8444 9.6826 53.2781 9.18674 53.7031 8.69922C54.6167 7.6513 55.588 6.52793 56.0322 5.55078L56.0469 5.51758L56.0645 5.48535L56.0742 5.46582C56.0748 5.45797 56.0716 5.44563 56.0625 5.41992C56.0303 5.3288 55.9281 5.15491 55.6699 4.91113C55.1532 4.42329 54.2569 3.88188 53.0869 3.35352C50.7681 2.3063 47.7037 1.45331 45.4189 1.15527L45.3975 1.15234L45.377 1.14844Z" stroke="#825300" stroke-width="2"/>
</svg>
