<svg width="206" height="48" viewBox="0 0 206 48" fill="none" xmlns="http://www.w3.org/2000/svg">
<path d="M70.208 9.86303C70.734 10.821 71.2512 11.7659 71.7745 12.7077C72.1636 13.408 72.5641 14.1028 72.9536 14.8029C73.2071 15.2586 73.4575 15.7161 73.6929 16.1802C73.7565 16.3053 73.7852 16.4572 73.7856 16.5969C73.7914 18.9811 73.7896 21.3654 73.7896 23.7496C73.7896 24.067 73.7675 24.0869 73.4253 24.0869C71.74 24.0869 70.0552 24.087 68.37 24.0868C68.0485 24.0868 68.0145 24.0561 68.0141 23.7575C68.0141 21.545 67.9911 19.3321 68.0317 17.1203C68.041 16.6158 67.8502 16.2212 67.6281 15.8094C67.3088 15.2166 66.9807 14.6278 66.6574 14.0367C66.3103 13.4023 65.9632 12.768 65.6191 12.1323C65.1987 11.3557 64.784 10.5765 64.3618 9.80076C63.9494 9.0436 63.5285 8.29077 63.116 7.53369C62.7102 6.78803 62.3131 6.03805 61.9073 5.29235C61.3221 4.21795 60.7317 3.14614 60.1457 2.07227C59.81 1.45668 59.4792 0.838532 59.1432 0.223186C59.0663 0.0832255 59.1061 0.0152661 59.2704 0.00553407C59.3216 0.00252373 59.3733 0.00359603 59.4245 0.00359603C61.0951 0.00343108 62.7654 0.006235 64.4356 8.13574e-06C64.6696 -0.000857852 64.8008 0.0672663 64.9134 0.273C65.7008 1.71413 66.509 3.14528 67.3044 4.58277C67.6908 5.28183 68.0582 5.99025 68.4438 6.68984C68.9282 7.56837 69.4224 8.44203 69.9117 9.31812C70.0102 9.49416 70.1051 9.67177 70.208 9.86303Z" fill="#233650"/>
<path d="M36.7354 16.8601C36.4749 16.1874 36.2183 15.5306 35.9626 14.8735C35.6945 14.1842 35.4282 13.494 35.1588 12.8052C34.9747 12.335 34.7861 11.8665 34.6002 11.3971C34.3396 10.7415 34.0777 10.0867 33.8201 9.43015C33.5272 8.68367 33.2387 7.93566 32.9479 7.18852C32.4362 5.8742 31.9273 4.55893 31.4112 3.24613C31.0317 2.28064 30.6436 1.31808 30.2571 0.355014C30.1413 0.0663929 30.1847 0.00420658 30.5205 0.00412411C32.1543 0.00383544 33.7881 0.00387706 35.422 0.00400078C35.7272 0.00404201 35.7767 0.048702 35.88 0.317777C36.2103 1.17576 36.5495 2.03082 36.8838 2.88749C37.1506 3.57026 37.4129 4.25435 37.6805 4.93683C37.9958 5.74175 38.316 6.54509 38.6318 7.34989C38.9625 8.19323 39.2902 9.03774 39.6206 9.88121C39.893 10.5766 40.1704 11.2704 40.4411 11.9664C40.7043 12.6431 40.96 13.3223 41.2232 13.9991C41.4083 14.4763 41.6004 14.951 41.7885 15.4272C42.053 16.0961 42.318 16.7648 42.5803 17.4344C42.9213 18.3038 43.26 19.1739 43.5991 20.0438C43.9206 20.8685 44.2399 21.6939 44.5628 22.5181C44.7297 22.9432 44.8993 23.3674 45.0724 23.7903C45.1793 24.0509 45.1576 24.0879 44.8556 24.0881C43.3399 24.089 41.8238 24.0883 40.3077 24.0882C40.2194 24.0882 40.1311 24.0896 40.0428 24.088C39.5565 24.0795 39.5998 24.1846 39.3812 23.6161C39.1803 23.0936 38.9687 22.5746 38.7647 22.0532C38.5651 21.5446 38.3708 21.0344 38.1712 20.5261C37.8448 19.696 37.5149 18.8671 37.1885 18.0371C37.0366 17.6508 36.8891 17.263 36.7354 16.8601Z" fill="#233650"/>
<path d="M80.3745 4.1747C80.1617 4.55879 79.955 4.92865 79.7536 5.30111C79.3208 6.1021 78.8916 6.90487 78.4592 7.70608C77.8246 8.88139 77.1891 10.0562 76.5532 11.2307C76.3611 11.5855 76.1641 11.938 75.9724 12.293C75.9009 12.4252 75.7711 12.4526 75.6545 12.4025C75.2442 12.2262 74.8013 12.0827 74.4462 11.8332C73.6627 11.2831 73.2101 10.5159 72.9478 9.63438C72.7742 9.05178 72.7512 8.45825 72.6965 7.86567C72.6876 7.7707 72.7305 7.66199 72.7786 7.5735C73.2481 6.71192 73.7263 5.8546 74.1967 4.99339C74.5632 4.32176 74.9205 3.64567 75.2844 2.97279C75.7706 2.07456 76.2621 1.17905 76.744 0.278749C76.8522 0.0763963 76.9944 -0.00158393 77.2448 2.43279e-05C78.915 0.0106224 80.5856 0.00423027 82.2559 0.00798288C82.3517 0.00823031 82.4471 0.0490142 82.5429 0.0709114C82.512 0.155778 82.4912 0.245305 82.4488 0.324728C82.1905 0.808238 81.9264 1.28907 81.6659 1.77155C81.3452 2.36512 81.0255 2.95923 80.7062 3.55346C80.5976 3.75569 80.4907 3.95891 80.3745 4.1747Z" fill="#233650"/>
<path d="M12.9279 24.0058C9.55791 24.0066 6.20966 24.0067 2.8614 24.0092C2.64876 24.0094 2.43607 24.0271 2.22348 24.0369C2.07739 24.0437 1.97453 24.0164 2.00553 23.8421C2.02346 23.7414 2.02006 23.6368 2.02006 23.5339C2.02064 15.8723 2.02064 8.21062 2.02015 0.548934C2.02015 0.452892 2.02607 0.354664 2.00743 0.261262C1.9706 0.0769299 2.07491 0.0471149 2.23346 0.0561047C2.43863 0.0677336 2.64408 0.0828681 2.84939 0.0829918C6.27122 0.0853836 9.69314 0.074827 13.1149 0.0952808C13.8268 0.0995695 14.5422 0.183075 15.2386 0.358788C15.5609 0.440109 15.8955 0.478995 16.218 0.559491C16.5255 0.636234 16.8279 0.733802 17.1265 0.83735C17.4596 0.952856 17.7896 1.07739 18.1139 1.21286C18.4201 1.34074 18.7278 1.47088 19.0156 1.63026C19.5501 1.92631 20.0706 2.24433 20.5969 2.55337C20.6218 2.56796 20.6496 2.58046 20.6695 2.59984C21.2744 3.18789 21.9153 3.74826 22.471 4.3745C22.9019 4.86015 23.2383 5.42135 23.5925 5.9628C23.7508 6.20478 23.8591 6.47716 23.9733 6.74203C24.1452 7.14087 24.3082 7.54327 24.4633 7.94806C24.5393 8.14645 24.6027 8.35103 24.6479 8.55738C24.7399 8.97788 24.8194 9.4009 24.8968 9.82403C24.9484 10.1065 25.0135 10.3899 25.0269 10.6747C25.0577 11.3259 25.0631 11.9783 25.0739 12.6303C25.0818 13.1045 25.0661 13.5743 24.9193 14.0376C24.854 14.2436 24.901 14.4793 24.8447 14.6894C24.7103 15.1914 24.5531 15.6887 24.3888 16.1832C24.2812 16.5069 24.1708 16.8337 24.0161 17.139C23.7539 17.656 23.4717 18.1656 23.1687 18.6628C22.7157 19.4064 22.1115 20.0464 21.4673 20.6455C20.9015 21.1717 20.3037 21.6708 19.5977 22.0399C19.2282 22.2331 18.8821 22.469 18.5018 22.6396C18.0104 22.86 17.5011 23.0493 16.9886 23.2244C16.524 23.3831 16.0512 23.5292 15.5705 23.6359C15.0743 23.7461 14.5652 23.8083 14.0599 23.8796C13.6914 23.9316 13.3198 23.9644 12.9279 24.0058ZM19.1048 10.0571C18.9202 9.5009 18.7786 8.92798 18.5399 8.3928C18.2584 7.76191 17.88 7.17646 17.3784 6.6605C16.8649 6.13229 16.3105 5.65335 15.6451 5.30824C14.5406 4.73541 13.356 4.4373 12.08 4.45425C10.7118 4.47244 9.34311 4.45804 7.97465 4.45829C7.64423 4.45837 7.63332 4.46976 7.63332 4.78827C7.63341 6.22412 7.63349 7.66001 7.63345 9.09586C7.63341 12.4829 7.63327 15.8699 7.63341 19.2568C7.63345 19.5585 7.6611 19.5915 7.93159 19.5938C9.50514 19.6074 11.0788 19.6365 12.6522 19.6262C13.6589 19.6196 14.6146 19.357 15.5042 18.9255C16.7051 18.3428 17.6054 17.4645 18.2491 16.3563C18.972 15.1117 19.2967 13.7699 19.3253 12.3639C19.3409 11.6012 19.2769 10.8414 19.1048 10.0571Z" fill="#233650"/>
<path d="M106.087 10.0931C105.704 10.4007 105.253 10.5694 104.824 10.7716C104.4 10.9712 103.949 11.103 103.48 11.1815C103.4 11.1949 103.33 11.2589 103.255 11.2996C103.323 11.3487 103.383 11.4236 103.46 11.4429C103.932 11.562 104.417 11.6452 104.881 11.7853C105.437 11.9529 105.965 12.1838 106.441 12.5127C107.074 12.9504 107.625 13.4658 108.029 14.0921C108.279 14.4792 108.458 14.913 108.617 15.3426C108.764 15.7403 108.909 16.1564 108.936 16.5713C108.991 17.3822 109.093 18.2059 108.813 19.0037C108.636 19.5084 108.492 20.0331 108.232 20.4995C107.992 20.9289 107.638 21.3094 107.295 21.6797C106.975 22.0259 106.596 22.3184 106.151 22.5329C105.737 22.7327 105.352 22.9897 104.927 23.1631C104.515 23.3314 104.07 23.4319 103.636 23.55C103.25 23.6547 102.865 23.7804 102.47 23.8302C101.709 23.9262 100.941 24.0304 100.174 24.0343C96.259 24.0545 92.3431 24.0437 88.4277 24.0437C88.0391 24.0437 88.0391 24.0435 88.0391 23.6764C88.0391 15.9172 88.0391 8.15802 88.0391 0.398818C88.0391 0.0449998 88.0395 0.0447524 88.4197 0.0447524C91.9819 0.0447112 95.5445 0.0377833 99.1066 0.0515154C99.7054 0.0538247 100.303 0.148135 100.902 0.195104C101.18 0.216919 101.464 0.203888 101.737 0.247847C102.194 0.321497 102.647 0.425457 103.1 0.52187C103.383 0.582118 103.673 0.630201 103.945 0.723192C104.245 0.825997 104.543 0.950781 104.814 1.10695C105.343 1.41066 105.892 1.70097 106.358 2.07652C106.745 2.3875 107.05 2.79703 107.345 3.19311C107.555 3.47546 107.725 3.796 107.845 4.12137C107.969 4.4603 108.015 4.82496 108.089 5.17948C108.104 5.25243 108.073 5.3359 108.096 5.40501C108.257 5.89054 108.13 6.37656 108.077 6.85513C108.038 7.20127 107.886 7.53707 107.777 7.87542C107.729 8.0254 107.677 8.17745 107.602 8.31629C107.29 8.88611 106.916 9.41457 106.403 9.84711C106.305 9.92951 106.2 10.0047 106.087 10.0931ZM93.6499 16.3122C93.6499 17.3772 93.6494 18.442 93.6494 19.507C93.6494 19.7783 93.6702 19.7971 93.9661 19.7971C95.5334 19.7973 97.1007 19.7888 98.6676 19.8004C99.463 19.8063 100.245 19.7279 100.984 19.461C101.382 19.3176 101.791 19.1304 102.103 18.868C102.864 18.2283 103.164 17.3992 103.056 16.4404C102.935 15.3666 102.306 14.6396 101.282 14.2117C100.629 13.9384 99.924 13.8194 99.2011 13.8199C97.4501 13.8213 95.699 13.8191 93.948 13.819C93.6764 13.819 93.6499 13.8448 93.6494 14.1069C93.649 14.8283 93.6499 15.5496 93.6499 16.3122ZM101.204 9.22294C101.626 8.93539 101.941 8.55803 102.109 8.10677C102.421 7.27146 102.412 6.43706 101.951 5.63631C101.704 5.20761 101.354 4.8608 100.896 4.64232C100.32 4.36797 99.6953 4.24867 99.0434 4.25057C97.3511 4.25547 95.6588 4.25176 93.9665 4.2518C93.6733 4.2518 93.6494 4.27316 93.6494 4.54327C93.649 6.21289 93.649 7.88252 93.6499 9.55214C93.6499 9.86394 93.6826 9.89338 94.0169 9.89346C95.3855 9.89383 96.7545 9.90039 98.1227 9.88983C98.5921 9.8862 99.0624 9.85462 99.5292 9.80802C100.126 9.74843 100.704 9.61903 101.204 9.22294Z" fill="#233650"/>
<path d="M45.8023 10.4877C45.8915 10.2063 45.9573 9.93332 46.0496 9.66829C46.1326 9.42928 46.247 9.19975 46.3424 8.96437C46.368 8.90193 46.3715 8.83208 46.3932 8.76783C46.4245 8.67274 46.4629 8.57962 46.4983 8.48556C46.5217 8.42259 46.5438 8.35921 46.5681 8.2964C46.6104 8.1851 46.6546 8.07426 46.6966 7.96283C46.7138 7.91838 46.7266 7.87269 46.7434 7.82807C46.7889 7.7039 46.8379 7.58069 46.8807 7.45561C46.9006 7.39804 46.9028 7.33528 46.9231 7.27788C46.958 7.17792 47.0013 7.08068 47.0393 6.98159C47.0609 6.92497 47.0768 6.86641 47.098 6.80963C47.1395 6.69816 47.1828 6.58723 47.2265 6.47639C47.2314 6.46385 47.2459 6.45416 47.2495 6.44158C47.3184 6.19758 47.3767 5.95036 47.4579 5.70999C47.5414 5.46219 47.6469 5.22087 47.7441 4.97707C47.7516 4.95823 47.7732 4.94367 47.7785 4.92474C47.8492 4.67286 47.9084 4.41752 47.9914 4.16923C48.0722 3.92708 48.1773 3.69191 48.2727 3.45413C48.2829 3.42889 48.308 3.40819 48.3156 3.38271C48.3862 3.13 48.4427 2.87314 48.5271 2.62464C48.6101 2.38171 48.7223 2.14752 48.819 1.90863C48.8393 1.85824 48.8473 1.80352 48.8654 1.75213C48.9051 1.63848 48.9497 1.52619 48.9886 1.4123C49.0107 1.34838 49.0226 1.28141 49.0442 1.21749C49.0769 1.1224 49.1131 1.02842 49.1502 0.934642C49.1701 0.884374 49.1962 0.836332 49.2156 0.785981C49.2889 0.597608 49.3401 0.398596 49.4413 0.224697C49.4859 0.14849 49.6303 0.0816032 49.7296 0.0810671C51.3999 0.072366 53.0705 0.073356 54.7407 0.0764076C55.0039 0.0768612 55.0644 0.208615 54.9448 0.423586C54.8529 0.588866 54.8017 0.773899 54.7306 0.949488C54.6211 1.21963 54.5071 1.48821 54.4002 1.75939C54.3283 1.94257 54.2713 2.13094 54.1984 2.31362C54.0933 2.57511 53.9741 2.83165 53.8716 3.09396C53.7935 3.29475 53.7396 3.50394 53.6605 3.70432C53.5669 3.94057 53.4565 4.17092 53.3562 4.40486C53.335 4.45422 53.3293 4.50923 53.3099 4.55942C53.2719 4.65736 53.2299 4.75402 53.188 4.85064C53.1743 4.88157 53.1531 4.90953 53.1403 4.94066C53.029 5.21398 52.9124 5.48549 52.8108 5.76195C52.7305 5.98199 52.6744 6.20983 52.5967 6.43107C52.53 6.62249 52.4536 6.81148 52.3714 6.99783C52.2804 7.20563 52.174 7.40769 52.0822 7.61516C52.0225 7.74972 51.9726 7.88848 51.9249 8.02725C51.8521 8.23789 51.7942 8.45339 51.713 8.66098C51.6264 8.88264 51.5195 9.0974 51.4219 9.31551C51.4025 9.35885 51.3875 9.40375 51.3694 9.44767C51.2647 9.70252 51.1583 9.95683 51.0554 10.2123C50.9927 10.3679 50.9322 10.5245 50.8756 10.6822C50.8001 10.8917 50.7379 11.1055 50.6548 11.3123C50.5634 11.5412 50.4552 11.7644 50.3536 11.9898C50.3453 12.0084 50.3276 12.0239 50.3219 12.0428C50.253 12.2665 50.2 12.4956 50.1138 12.7132C50.0304 12.9241 49.9107 13.1222 49.8122 13.3283C49.7893 13.3763 49.7946 13.4356 49.7764 13.4863C49.7429 13.5796 49.7023 13.6706 49.6634 13.7622C49.6448 13.8057 49.6219 13.8477 49.6042 13.8915C49.4982 14.1546 49.3878 14.4163 49.2893 14.6819C49.2076 14.9017 49.1427 15.1271 49.065 15.3484C48.9983 15.5394 48.925 15.7286 48.8521 15.9176C48.7466 16.19 48.6437 16.4633 48.5302 16.7329C48.4396 16.9485 48.3279 17.1564 48.2396 17.3727C48.1535 17.5833 48.0864 17.8006 48.0082 18.0141C47.934 18.217 47.8585 18.4195 47.7799 18.621C47.6801 18.8777 47.578 19.1339 47.4738 19.3892C47.3965 19.5787 47.3144 19.7664 47.223 19.9814C46.9328 19.7791 46.6051 19.5881 46.3269 19.3472C45.9489 19.0197 45.5726 18.6793 45.2631 18.297C44.995 17.9659 44.8108 17.573 44.6081 17.1989C44.4862 16.9748 44.3997 16.7341 44.2972 16.5009C44.2946 16.4945 44.2902 16.4875 44.291 16.4813C44.3436 16.0902 44.1219 15.7378 44.1095 15.3583C44.1056 15.2385 44.178 15.1167 44.2146 14.9957C44.2345 14.931 44.2504 14.8651 44.2734 14.8015C44.3074 14.7071 44.3449 14.6137 44.3842 14.5209C44.3944 14.4961 44.4235 14.4771 44.4306 14.4522C44.4999 14.2059 44.5556 13.9559 44.6368 13.7131C44.7199 13.464 44.8281 13.2224 44.9226 12.9765C45.0007 12.7739 45.0758 12.5703 45.1496 12.3663C45.2622 12.0563 45.3796 11.7475 45.4821 11.4346C45.5616 11.192 45.6186 10.943 45.6923 10.6986C45.7131 10.6292 45.7568 10.5657 45.8023 10.4877Z" fill="#98C0D9"/>
<path d="M45.79 43V41.11H49.102C49.966 41.11 50.722 40.924 51.37 40.552C52.03 40.18 52.54 39.664 52.9 39.004C53.272 38.332 53.458 37.558 53.458 36.682C53.458 35.818 53.272 35.056 52.9 34.396C52.528 33.736 52.012 33.22 51.352 32.848C50.704 32.476 49.954 32.29 49.102 32.29H45.79V30.4H49.156C50.068 30.4 50.914 30.562 51.694 30.886C52.474 31.198 53.152 31.642 53.728 32.218C54.316 32.782 54.772 33.448 55.096 34.216C55.42 34.972 55.582 35.8 55.582 36.7C55.582 37.588 55.42 38.416 55.096 39.184C54.772 39.952 54.322 40.624 53.746 41.2C53.17 41.764 52.492 42.208 51.712 42.532C50.932 42.844 50.092 43 49.192 43H45.79ZM44.368 43V30.4H46.438V43H44.368ZM58.5922 43V30.4H60.6622V43H58.5922ZM69.979 43.18C69.115 43.18 68.299 43.012 67.531 42.676C66.763 42.34 66.091 41.878 65.515 41.29C64.939 40.69 64.483 40 64.147 39.22C63.823 38.428 63.661 37.582 63.661 36.682C63.661 35.782 63.823 34.942 64.147 34.162C64.483 33.382 64.939 32.698 65.515 32.11C66.103 31.51 66.787 31.048 67.567 30.724C68.359 30.388 69.211 30.22 70.123 30.22C71.119 30.22 72.043 30.412 72.895 30.796C73.747 31.18 74.461 31.726 75.037 32.434L73.633 33.838C73.261 33.31 72.763 32.908 72.139 32.632C71.515 32.344 70.843 32.2 70.123 32.2C69.259 32.2 68.497 32.392 67.837 32.776C67.189 33.148 66.685 33.67 66.325 34.342C65.965 35.014 65.785 35.794 65.785 36.682C65.785 37.57 65.965 38.356 66.325 39.04C66.697 39.712 67.195 40.24 67.819 40.624C68.443 41.008 69.151 41.2 69.943 41.2C70.783 41.2 71.503 41.05 72.103 40.75C72.715 40.438 73.183 39.982 73.507 39.382C73.831 38.77 73.993 38.02 73.993 37.132L75.289 38.068H69.907V36.178H76.135V36.466C76.135 37.966 75.865 39.214 75.325 40.21C74.797 41.206 74.071 41.95 73.147 42.442C72.223 42.934 71.167 43.18 69.979 43.18ZM79.0953 43V30.4H81.1653V43H79.0953ZM92.5377 43L88.3977 30.4H90.4317L93.5457 40.102H93.0057L96.0477 30.4H97.4877L100.53 40.102H99.9897L103.104 30.4H105.138L100.998 43H99.5577L96.4977 33.316H97.0377L93.9777 43H92.5377ZM105.434 43L110.618 30.4H112.058L117.206 43H114.974L110.942 32.794H111.698L107.63 43H105.434ZM107.99 40.57V38.77H114.668V40.57H107.99ZM121.19 37.654V35.944H124.376C125.012 35.944 125.504 35.782 125.852 35.458C126.212 35.122 126.392 34.66 126.392 34.072C126.392 33.544 126.218 33.1 125.87 32.74C125.522 32.38 125.03 32.2 124.394 32.2H121.19V30.4H124.484C125.276 30.4 125.972 30.562 126.572 30.886C127.172 31.198 127.634 31.63 127.958 32.182C128.294 32.722 128.462 33.34 128.462 34.036C128.462 34.768 128.294 35.404 127.958 35.944C127.634 36.484 127.172 36.904 126.572 37.204C125.972 37.504 125.276 37.654 124.484 37.654H121.19ZM119.768 43V30.4H121.838V43H119.768ZM126.68 43L122.27 37.528L124.196 36.826L129.29 43H126.68ZM131.724 43V30.4H133.794V43H131.724ZM133.146 43V41.11H140.202V43H133.146ZM133.146 37.474V35.656H139.59V37.474H133.146ZM133.146 32.29V30.4H140.112V32.29H133.146ZM143.241 43V30.4H145.311V43H143.241ZM151.251 43V30.4H153.321V43H151.251ZM144.663 37.42V35.53H151.701V37.42H144.663ZM162.752 43.18C161.852 43.18 161.012 43.012 160.232 42.676C159.452 42.34 158.768 41.878 158.18 41.29C157.592 40.69 157.13 40 156.794 39.22C156.47 38.428 156.308 37.582 156.308 36.682C156.308 35.782 156.47 34.942 156.794 34.162C157.13 33.382 157.586 32.698 158.162 32.11C158.75 31.51 159.428 31.048 160.196 30.724C160.976 30.388 161.816 30.22 162.716 30.22C163.616 30.22 164.45 30.388 165.218 30.724C165.998 31.048 166.682 31.51 167.27 32.11C167.858 32.698 168.314 33.388 168.638 34.18C168.974 34.96 169.142 35.8 169.142 36.7C169.142 37.6 168.974 38.446 168.638 39.238C168.314 40.018 167.858 40.702 167.27 41.29C166.694 41.878 166.016 42.34 165.236 42.676C164.468 43.012 163.64 43.18 162.752 43.18ZM162.716 41.2C163.568 41.2 164.312 41.008 164.948 40.624C165.596 40.24 166.1 39.712 166.46 39.04C166.832 38.356 167.018 37.57 167.018 36.682C167.018 36.022 166.91 35.422 166.694 34.882C166.49 34.33 166.196 33.856 165.812 33.46C165.428 33.052 164.972 32.74 164.444 32.524C163.928 32.308 163.352 32.2 162.716 32.2C161.876 32.2 161.132 32.392 160.484 32.776C159.848 33.148 159.344 33.67 158.972 34.342C158.612 35.014 158.432 35.794 158.432 36.682C158.432 37.342 158.534 37.954 158.738 38.518C158.954 39.07 159.248 39.544 159.62 39.94C160.004 40.336 160.46 40.648 160.988 40.876C161.516 41.092 162.092 41.2 162.716 41.2ZM177.007 43.18C176.059 43.18 175.207 42.964 174.451 42.532C173.695 42.1 173.095 41.512 172.651 40.768C172.219 40.012 172.003 39.16 172.003 38.212V30.4H174.073V38.194C174.073 38.806 174.199 39.34 174.451 39.796C174.715 40.24 175.069 40.588 175.513 40.84C175.957 41.08 176.455 41.2 177.007 41.2C177.571 41.2 178.069 41.08 178.501 40.84C178.933 40.588 179.275 40.24 179.527 39.796C179.779 39.34 179.905 38.812 179.905 38.212V30.4H181.975V38.23C181.975 39.178 181.759 40.024 181.327 40.768C180.895 41.512 180.307 42.1 179.563 42.532C178.819 42.964 177.967 43.18 177.007 43.18ZM188.844 43.18C187.848 43.18 187.002 43 186.306 42.64C185.61 42.28 184.986 41.752 184.434 41.056L185.838 39.652C186.186 40.156 186.6 40.552 187.08 40.84C187.56 41.116 188.172 41.254 188.916 41.254C189.612 41.254 190.164 41.11 190.572 40.822C190.992 40.534 191.202 40.138 191.202 39.634C191.202 39.214 191.094 38.872 190.878 38.608C190.662 38.344 190.374 38.128 190.014 37.96C189.666 37.78 189.276 37.624 188.844 37.492C188.424 37.348 187.998 37.192 187.566 37.024C187.146 36.844 186.756 36.622 186.396 36.358C186.048 36.094 185.766 35.752 185.55 35.332C185.334 34.912 185.226 34.378 185.226 33.73C185.226 32.986 185.406 32.356 185.766 31.84C186.138 31.312 186.636 30.91 187.26 30.634C187.884 30.358 188.58 30.22 189.348 30.22C190.176 30.22 190.914 30.382 191.562 30.706C192.222 31.03 192.756 31.444 193.164 31.948L191.76 33.352C191.4 32.944 191.022 32.644 190.626 32.452C190.242 32.248 189.798 32.146 189.294 32.146C188.67 32.146 188.178 32.272 187.818 32.524C187.47 32.776 187.296 33.13 187.296 33.586C187.296 33.97 187.404 34.282 187.62 34.522C187.836 34.75 188.118 34.948 188.466 35.116C188.826 35.272 189.216 35.422 189.636 35.566C190.068 35.71 190.494 35.872 190.914 36.052C191.346 36.232 191.736 36.466 192.084 36.754C192.444 37.03 192.732 37.39 192.948 37.834C193.164 38.278 193.272 38.836 193.272 39.508C193.272 40.636 192.87 41.53 192.066 42.19C191.274 42.85 190.2 43.18 188.844 43.18ZM196.236 43V30.4H198.306V43H196.236ZM197.658 43V41.11H204.714V43H197.658ZM197.658 37.474V35.656H204.102V37.474H197.658ZM197.658 32.29V30.4H204.624V32.29H197.658Z" fill="#98C0D9"/>
</svg>
