<svg width="814" height="198" viewBox="0 0 814 198" fill="none" xmlns="http://www.w3.org/2000/svg">
<g opacity="0.1">
<path d="M474.934 2.1875C475.773 2.18419 476.364 2.31395 476.833 2.5957C477.244 2.84198 477.607 3.23206 477.961 3.85352L478.113 4.13379C484.089 15.8475 490.227 27.4873 496.26 39.165C497.725 42.0024 499.154 44.8591 500.583 47.7197C501.655 49.8646 502.728 52.0121 503.815 54.1523L504.908 56.29C508.585 63.4317 512.337 70.537 516.049 77.6543L516.05 77.6553C516.795 79.0815 517.514 80.521 518.295 82.0771L518.297 82.0801C522.289 89.8655 526.215 97.5468 530.187 105.203C531.664 108.051 533.163 110.887 534.662 113.722C536.16 116.557 537.659 119.39 539.136 122.233C541.059 125.936 542.956 129.647 544.739 133.41V133.411C545.183 134.346 545.391 135.504 545.394 136.585C545.438 155.963 545.424 175.341 545.424 194.72C545.424 195.369 545.413 195.827 545.363 196.162C545.313 196.495 545.236 196.632 545.165 196.702C545.093 196.773 544.953 196.851 544.615 196.9C544.275 196.95 543.813 196.961 543.16 196.961C530.37 196.961 517.582 196.961 504.792 196.96C504.182 196.96 503.745 196.944 503.423 196.891C503.105 196.837 502.96 196.757 502.879 196.677C502.799 196.597 502.718 196.455 502.664 196.141C502.609 195.822 502.591 195.39 502.59 194.783L502.583 188.038C502.554 172.3 502.455 156.572 502.725 140.847C502.798 136.615 501.297 133.312 499.608 129.958C497.184 125.139 494.69 120.347 492.24 115.548V115.547C489.605 110.391 486.971 105.236 484.361 100.07C481.173 93.7653 478.021 87.4222 474.818 81.1191L472.459 76.5078C471.671 74.9721 470.88 73.4374 470.089 71.9033C469.299 70.3691 468.508 68.8355 467.719 67.3008L465.363 62.6934C464.593 61.179 463.827 59.6624 463.064 58.1445L458.49 49.0293C457.726 47.5104 456.959 45.9925 456.189 44.4766V44.4756C451.749 35.7451 447.264 27.0273 442.819 18.3037C440.279 13.3158 437.756 8.26497 435.21 3.27441V3.27344L435.119 3.08105C434.938 2.66904 434.977 2.50401 435 2.45996C435.023 2.41786 435.158 2.2698 435.762 2.23145C436.13 2.20831 436.496 2.21679 436.9 2.2168C449.578 2.21546 462.257 2.23812 474.934 2.1875Z" fill="url(#paint0_linear_283_68)" stroke="#013E5A"/>
<path d="M254.875 2.18457C256.045 2.18474 256.554 2.28717 256.885 2.53809C257.229 2.79779 257.478 3.28378 257.879 4.40332V4.4043C259.133 7.89138 260.404 11.3734 261.678 14.8535L265.499 25.292C267.015 29.4484 268.517 33.6216 270.029 37.7871L271.545 41.9492C273.936 48.4842 276.373 55.0318 278.765 61.5625C281.276 68.4192 283.761 75.276 286.27 82.1357C288.34 87.7936 290.442 93.4252 292.497 99.083C293.495 101.832 294.479 104.585 295.463 107.341C295.956 108.718 296.449 110.096 296.943 111.474L298.432 115.604C299.135 117.544 299.851 119.481 300.57 121.415L302.723 127.214C303.727 129.933 304.732 132.651 305.735 135.369L308.733 143.527C311.32 150.593 313.89 157.664 316.464 164.735C318.904 171.436 321.329 178.147 323.779 184.846V184.847C325.046 188.304 326.334 191.754 327.649 195.192V195.193C327.852 195.723 327.979 196.103 328.033 196.381C328.088 196.666 328.043 196.737 328.041 196.741C328.04 196.742 328.031 196.758 327.985 196.781C327.934 196.807 327.85 196.837 327.715 196.862C327.441 196.914 327.042 196.934 326.47 196.935C314.967 196.942 303.461 196.937 291.955 196.937C291.614 196.937 291.279 196.939 290.947 196.94L289.953 196.935C289.482 196.926 289.076 196.932 288.725 196.939C288.37 196.947 288.086 196.957 287.837 196.956C287.332 196.954 287.102 196.906 286.939 196.802C286.774 196.697 286.595 196.482 286.343 195.931C286.094 195.384 285.811 194.595 285.393 193.43C284.25 190.246 283.057 187.068 281.881 183.896L280.713 180.724C279.956 178.658 279.209 176.589 278.461 174.52C278.088 173.485 277.714 172.449 277.339 171.414L276.208 168.312L272.479 158.195C271.234 154.825 269.989 151.454 268.75 148.082C267.599 144.945 266.481 141.795 265.314 138.52L265.313 138.518L259.447 122.37C257.413 116.769 255.391 111.157 253.346 105.558C252.647 103.647 251.94 101.738 251.231 99.8311L249.106 94.1113C247.128 88.7818 245.141 83.4606 243.186 78.126C240.964 72.0594 238.775 65.9828 236.567 59.9082C232.684 49.2269 228.821 38.5344 224.904 27.8633C222.023 20.0141 219.077 12.1886 216.144 4.3623C215.927 3.78298 215.798 3.35364 215.753 3.0332C215.708 2.71145 215.758 2.57741 215.8 2.5166C215.843 2.45555 215.951 2.36094 216.272 2.28906C216.591 2.21747 217.045 2.18571 217.674 2.18555C230.074 2.1832 242.474 2.18356 254.875 2.18457Z" fill="url(#paint1_linear_283_68)" stroke="#013E5A"/>
<path d="M572.205 2.14844C584.881 2.23458 597.568 2.1824 610.239 2.21289C610.531 2.21373 610.84 2.28114 611.19 2.38281C611.368 2.43459 611.575 2.50077 611.787 2.56543C611.728 2.75906 611.671 2.95002 611.617 3.12402C611.51 3.46458 611.4 3.77775 611.257 4.06445C609.297 7.99382 607.296 11.8959 605.316 15.8223C602.882 20.647 600.455 25.4758 598.032 30.3057C597.199 31.965 596.405 33.5856 595.518 35.3496C593.904 38.4693 592.333 41.4796 590.803 44.5098C587.52 51.0168 584.257 57.5502 580.979 64.0566C576.163 73.6091 571.34 83.1575 566.513 92.7041C565.069 95.5609 563.55 98.4715 562.105 101.338C561.884 101.775 561.598 101.997 561.318 102.089C561.032 102.182 560.695 102.159 560.347 101.999H560.346C557.369 100.629 554.314 99.553 551.771 97.7891L551.269 97.4268C545.436 93.0403 542.049 86.9146 540.078 79.8213V79.8203C538.777 75.1432 538.606 70.3866 538.187 65.5361C538.133 64.9103 538.402 64.1323 538.758 63.4307C542.326 56.4177 545.942 49.4763 549.52 42.4609C551.606 38.3675 553.656 34.247 555.714 30.1387L557.776 26.0361C561.464 18.7392 565.198 11.4561 568.855 4.1377C569.238 3.37067 569.656 2.88834 570.159 2.58984C570.664 2.28993 571.308 2.14229 572.205 2.14844Z" fill="url(#paint2_linear_283_68)" stroke="#013E5A"/>
<path d="M122.339 188.06C120.774 188.837 119.204 189.601 117.623 190.34C116.818 190.716 115.953 190.988 115.051 191.237C114.164 191.482 113.21 191.713 112.304 191.993C110.895 192.428 109.586 192.904 108.206 193.286C105.674 193.986 103.162 194.703 100.628 195.309L99.54 195.562C98.797 195.728 98.0272 195.808 97.2285 195.873C96.44 195.937 95.609 195.986 94.7959 196.093C92.0569 196.454 89.279 196.869 86.3916 197.257C85.7708 197.257 85.15 197.257 84.5293 197.257C87.2535 196.934 90.0236 196.668 92.7588 196.255C96.5798 195.677 100.472 195.167 104.265 194.266C107.94 193.392 111.549 192.197 115.084 190.904C117.518 190.014 119.945 189.076 122.339 188.06ZM1.1582 2.01758C0.664253 2.43335 0.574018 3.09959 0.720703 3.88672C0.851292 4.58609 0.808598 5.31143 0.808594 6.13281C0.812281 68.4054 0.811974 130.678 0.807617 192.95C0.807619 193.811 0.83252 194.606 0.705078 195.373C0.574554 196.158 0.696174 196.81 1.22266 197.2C1.2307 197.206 1.23989 197.211 1.24805 197.217C0.910201 197.172 0.785524 197.102 0.726562 197.044C0.666927 196.985 0.592913 196.859 0.548828 196.505C0.504887 196.152 0.500087 195.67 0.5 194.976C0.499665 131.476 0.500306 67.9767 0.500977 4.47754C0.501061 3.73887 0.511474 3.2154 0.567383 2.83008C0.622988 2.44717 0.713265 2.28186 0.805664 2.19141C0.87027 2.12827 0.972914 2.06809 1.1582 2.01758ZM136.318 180.444C134.636 181.565 132.9 182.612 131.106 183.577C132.394 182.775 133.655 181.972 134.958 181.243C135.418 180.986 135.87 180.717 136.318 180.444ZM176.165 113.495C175.874 116.215 175.516 118.921 175.007 121.591C174.298 125.309 173.194 128.974 172.032 132.615C171.078 135.604 169.942 138.554 168.625 141.398C166.885 145.157 165.048 148.879 162.978 152.446C162.559 153.167 162.127 153.877 161.683 154.578C161.875 154.256 162.065 153.933 162.251 153.606C164.557 149.553 166.704 145.4 168.699 141.188C169.891 138.67 170.739 135.981 171.554 133.354C172.802 129.331 173.998 125.278 175.021 121.185C175.251 120.268 175.267 119.303 175.293 118.417C175.319 117.507 175.354 116.673 175.581 115.907C175.819 115.105 176.009 114.3 176.165 113.495ZM176.556 92.21C176.732 94.2852 176.882 96.3616 176.996 98.4385C177.149 101.224 177.002 104.043 176.778 106.865C176.784 106.5 176.788 106.135 176.788 105.77L176.775 104.32L176.654 96.3691C176.628 94.9829 176.596 93.5963 176.556 92.21ZM173.438 70.6934C174.284 74.0888 174.931 77.5523 175.365 81.0215C175.376 81.1048 175.385 81.1882 175.396 81.2715C174.817 77.8859 174.221 74.4958 173.532 71.124C173.503 70.9802 173.47 70.8369 173.438 70.6934ZM169.846 59.9883C170.624 61.9675 171.386 63.9534 172.06 65.958C171.251 63.7011 170.412 61.4537 169.544 59.2178C169.644 59.4746 169.745 59.7315 169.846 59.9883ZM168.534 56.6562C168.703 57.079 168.871 57.5029 169.038 57.9277C168.871 57.5036 168.704 57.0794 168.534 56.6562ZM161.516 43.4014C162.432 44.8272 163.313 46.2774 164.172 47.7441C163.301 46.296 162.423 44.8394 161.516 43.4014ZM144.641 23.9297C147.98 26.8554 151.023 30.1543 154.05 33.5029C155.172 34.7443 156.236 36.0244 157.252 37.3359C157.137 37.1929 157.022 37.0487 156.905 36.9072C153.112 32.329 148.785 28.1663 144.641 23.9297ZM133.611 16.3477C135.666 17.509 137.684 18.717 139.632 20.0342C140.142 20.3792 140.644 20.7342 141.139 21.0986C138.638 19.5139 136.138 17.9092 133.611 16.3477ZM113.302 6.99707C114.742 7.40045 116.175 7.81195 117.598 8.26367L118.893 8.6875C120.819 9.34037 122.654 10.3487 124.496 11.3701C124.775 11.5247 125.056 11.6759 125.335 11.8291C124.775 11.5731 124.214 11.3228 123.656 11.0732C121.184 9.96727 118.669 8.95084 116.133 8.00879C115.196 7.66091 114.252 7.32101 113.302 6.99707ZM97.4414 3.1084C100.788 3.4587 104.011 4.33188 107.266 5.28125C106.656 5.15221 106.047 5.03305 105.442 4.91504C104.193 4.67115 102.964 4.42958 101.761 4.10449C100.33 3.71796 98.8891 3.38803 97.4414 3.1084ZM87.2676 1.95215C87.999 1.95449 88.7322 2.0062 89.4697 2.08691C88.2118 2.00485 86.9533 1.9587 85.6963 1.94727C86.2201 1.94886 86.7438 1.95047 87.2676 1.95215Z" fill="url(#paint3_linear_283_68)" stroke="#013E5A"/>
<path d="M779.101 191.712C777.129 192.438 775.121 193.068 773.072 193.604C771.797 193.937 770.536 194.35 769.299 194.733C768.055 195.119 766.827 195.477 765.583 195.718C762.021 196.405 758.466 197.144 754.934 197.193C754.159 197.204 753.385 197.211 752.61 197.22C756.362 196.895 760.103 196.366 763.806 195.866C766.851 195.455 769.834 194.414 772.724 193.573C774.819 192.963 776.983 192.401 779.101 191.712ZM654.222 2.05371C653.917 2.35732 653.81 2.77143 653.761 3.20703C653.712 3.64597 653.712 4.21843 653.712 4.9248V194.121C653.712 194.855 653.712 195.447 653.762 195.9C653.812 196.35 653.919 196.773 654.226 197.084C654.257 197.115 654.29 197.144 654.323 197.171C654.018 197.109 653.861 197.025 653.765 196.93C653.658 196.823 653.561 196.639 653.499 196.255C653.436 195.868 653.419 195.345 653.419 194.619C653.416 131.161 653.416 67.7029 653.419 4.24512C653.419 3.59009 653.435 3.12149 653.493 2.77539C653.549 2.43291 653.636 2.27506 653.726 2.18555C653.816 2.09568 653.976 2.00866 654.322 1.95215C654.328 1.95114 654.334 1.9502 654.34 1.94922C654.299 1.98103 654.26 2.0161 654.222 2.05371ZM792.083 185.173C790.411 186.276 788.669 187.302 786.861 188.256C786.36 188.52 785.855 188.776 785.349 189.026C786.013 188.661 786.668 188.281 787.316 187.898C788.851 186.991 790.349 186.074 791.903 185.271L791.902 185.27C791.963 185.238 792.023 185.205 792.083 185.173ZM813.147 153.257C812.945 155.27 812.596 157.276 811.958 159.126L811.785 159.604C809.961 164.411 808.055 169.129 804.917 173.26H804.916C803.961 174.516 802.959 175.711 801.913 176.851C804.131 174.262 806.337 171.547 807.91 168.531C809.909 164.692 811.022 160.355 812.352 156.297C812.683 155.288 812.943 154.274 813.147 153.257ZM808.978 121.214L809.317 121.913C811.007 125.477 811.979 129.397 813.085 133.296C813.495 134.74 813.479 136.346 813.482 137.979C813.483 138.31 813.485 138.642 813.486 138.974C813.426 138.092 813.365 137.214 813.311 136.341C813.099 132.893 811.979 129.451 810.865 126.223C810.286 124.549 809.668 122.86 808.972 121.203C808.974 121.207 808.976 121.21 808.978 121.214ZM772.679 92.8252C772.496 92.8963 772.358 93.0188 772.261 93.1084C772.142 93.218 772.025 93.3346 771.833 93.4961L771.135 94.084L772.007 94.3555C772.089 94.3808 772.167 94.4057 772.244 94.4297C771.955 94.3555 771.667 94.2832 771.381 94.2061H771.38C771.206 94.1594 771.019 94.0344 770.779 93.8223C770.703 93.7553 770.613 93.6706 770.516 93.5801C770.623 93.5052 770.724 93.4354 770.809 93.3789C771.077 93.2021 771.291 93.0922 771.49 93.0566C771.888 92.9853 772.284 92.9075 772.679 92.8252ZM801.113 73.1465C801.061 73.2332 801.008 73.3199 800.956 73.4062C801.008 73.3198 801.061 73.2332 801.113 73.1465ZM801.517 72.4619C801.453 72.5732 801.388 72.6843 801.323 72.7949C801.388 72.6843 801.452 72.5731 801.517 72.4619ZM805.611 37.126C806.825 41.2147 807.173 45.4069 807.704 49.6455V49.6465C807.85 50.8002 807.709 52.0043 807.492 53.2715C807.279 54.5151 806.985 55.8493 806.874 57.1523C806.533 61.1384 805.28 64.8667 803.603 68.4521C803.954 67.5897 804.234 66.7003 804.493 65.8379C804.697 65.1585 804.922 64.4785 805.151 63.792C805.379 63.1075 805.612 62.4145 805.829 61.7197C806.261 60.3301 806.634 58.9079 806.787 57.4531V57.4521C806.983 55.5675 807.334 53.5277 807.472 51.5635C807.604 49.6884 807.557 47.7757 807.024 45.8506L806.911 45.4658C806.855 45.2875 806.86 45.0682 806.883 44.7451C806.904 44.4575 806.943 44.0633 806.871 43.6875V43.6855C806.454 41.5536 806.147 39.303 805.611 37.126ZM782.151 10.4746C783.35 11.086 784.527 11.7344 785.668 12.4287C791.351 15.8791 796.532 19.8484 800.101 25.5439C800.605 26.3485 801.092 27.157 801.56 27.9717C801.521 27.9123 801.483 27.852 801.444 27.793L801.143 27.3516C798.915 24.1424 796.563 20.7585 793.571 18.1826C790.1 15.1895 786.032 12.8517 782.151 10.4746ZM759.174 3.37109C761.825 3.71008 764.444 4.04659 767.001 4.67773C768.681 5.09232 770.342 5.60763 771.989 6.18555C770.859 5.91645 769.725 5.68759 768.626 5.4375C765.5 4.72535 762.352 3.9574 759.174 3.37109ZM747.804 1.94336C750.594 1.95084 753.353 2.56358 756.231 2.97852C755.831 2.95202 755.433 2.93206 755.037 2.91699C753.962 2.8761 752.918 2.85885 751.879 2.77148C749.251 2.55069 746.577 2.19509 743.895 1.93359C745.198 1.93675 746.501 1.93983 747.804 1.94336Z" fill="url(#paint4_linear_283_68)" stroke="#013E5A"/>
<mask id="path-6-inside-1_283_68" fill="white">
<path d="M404.818 1.3125C405.887 2.74937 404.728 3.99185 404.312 5.17466C402.217 11.1518 399.975 17.0772 397.753 23.0087C395.728 28.413 393.627 33.7888 391.626 39.2015C390.084 43.3676 388.693 47.5888 387.148 51.7536C385.566 56.022 383.85 60.2404 382.248 64.5021C381.192 67.3105 380.27 70.1685 379.231 72.9829C377.656 77.254 376.014 81.5016 374.425 85.7677C373.339 88.6823 372.3 91.6154 371.221 94.5327C369.622 98.8534 368 103.164 366.401 107.485C364.879 111.603 363.384 115.731 361.863 119.848C360.244 124.22 358.591 128.579 356.979 132.953C355.441 137.123 353.959 141.312 352.414 145.479C350.832 149.747 349.17 153.985 347.615 158.262C346.897 160.235 346.331 162.263 345.738 164.279C345.473 165.184 345.024 165.565 344.176 164.976C337.804 160.551 331.513 155.999 327.561 149.083C325.42 145.332 323.13 141.565 321.729 137.521C320.342 133.518 319.373 129.22 319.926 124.865C320.117 123.348 320.784 121.888 321.27 120.413C322.866 115.555 324.495 110.706 326.083 105.845C327.223 102.36 328.295 98.8524 329.445 95.37C330.554 91.9972 331.744 88.6505 332.864 85.2803C333.93 82.066 334.942 78.833 335.998 75.615C337.154 72.085 338.344 68.5651 339.507 65.0357C340.546 61.8697 341.565 58.6953 342.6 55.5273C343.79 51.8843 344.99 48.2454 346.183 44.6031C347.239 41.3794 348.282 38.1521 349.337 34.9291C350.534 31.2841 351.754 27.6475 352.937 23.9978C354.063 20.509 355.112 16.9928 356.275 13.5157C357.616 9.51478 359.044 5.54335 360.545 1.47472C361.212 1.37719 361.772 1.35272 362.329 1.35205C376.493 1.3373 390.654 1.32524 404.818 1.3125ZM333.487 87.0051C333.236 87.5431 332.904 88.0589 332.746 88.6233C332.187 90.6099 331.754 92.6333 331.151 94.6054C330.37 97.1487 329.482 99.6585 328.627 102.178C328.067 103.836 327.498 105.491 326.904 107.138C326.187 109.136 325.366 111.1 324.733 113.125C324.119 115.098 323.697 117.13 323.171 119.132C323.117 119.335 322.896 119.488 322.815 119.69C322.52 120.444 322.236 121.203 321.977 121.971C321.803 122.488 321.682 123.024 321.532 123.549C321.25 124.532 320.704 125.523 320.734 126.496C320.828 129.581 322.51 132.445 322.108 135.624C322.105 135.674 322.135 135.731 322.158 135.783C322.936 137.679 323.593 139.635 324.515 141.456C326.056 144.497 327.454 147.69 329.489 150.381C331.838 153.489 334.694 156.255 337.563 158.917C339.674 160.876 342.161 162.428 344.363 164.072C345.057 162.324 345.681 160.799 346.267 159.259C347.058 157.184 347.832 155.102 348.59 153.015C349.187 151.377 349.76 149.731 350.323 148.082C350.916 146.347 351.425 144.58 352.079 142.869C352.749 141.111 353.597 139.421 354.284 137.668C355.143 135.477 355.927 133.256 356.728 131.042C357.281 129.506 357.837 127.968 358.343 126.416C358.933 124.617 359.426 122.786 360.046 120.998C360.794 118.84 361.631 116.713 362.436 114.574C362.57 114.218 362.744 113.877 362.882 113.523C363.18 112.779 363.488 112.04 363.743 111.282C363.88 110.869 363.84 110.387 364.014 109.997C364.759 108.322 365.67 106.711 366.304 104.997C366.957 103.229 367.359 101.367 367.882 99.5489C367.926 99.3947 368.06 99.2687 368.124 99.1175C368.895 97.2855 369.716 95.4719 370.41 93.6117C371.04 91.9308 371.512 90.1929 372.082 88.4899C372.514 87.2082 372.97 85.9356 373.45 84.6707C374.23 82.5943 375.038 80.5273 375.833 78.4559C375.967 78.0993 376.084 77.734 376.231 77.3817C376.969 75.609 377.783 73.8638 378.44 72.0619C379.057 70.3746 379.496 68.6234 380.049 66.911C380.411 65.7831 380.786 64.6553 381.242 63.5616C381.939 61.8754 382.744 60.2331 383.438 58.5445C384.061 57.0295 384.641 55.4934 385.147 53.9376C385.737 52.1397 386.159 50.2876 386.773 48.4991C387.543 46.2521 388.428 44.0453 389.273 41.8238C389.37 41.5708 389.531 41.3435 389.635 41.0922C389.953 40.3069 390.272 39.5216 390.56 38.7252C390.707 38.3173 390.751 37.8702 390.912 37.469C391.673 35.5679 392.511 33.6953 393.221 31.7754C393.821 30.1465 394.23 28.4462 394.823 26.8143C395.601 24.6822 396.506 22.5975 397.3 20.4718C397.857 18.987 398.289 17.456 398.835 15.9671C399.646 13.7631 400.511 11.5801 401.342 9.3844C401.882 7.95758 402.271 6.45334 402.968 5.10997C403.876 3.36273 403.417 2.29187 401.419 2.28818C388.743 2.26338 376.064 2.25533 363.388 2.32605C362.634 2.33041 361.538 2.87439 361.199 3.49345C360.432 4.90686 360.039 6.52439 359.486 8.05545C359.339 8.46469 359.138 8.85517 358.99 9.26374C358.709 10.0259 358.434 10.7898 358.186 11.5627C358.022 12.0825 357.931 12.6265 357.764 13.1464C357.469 14.0718 357.13 14.9844 356.828 15.9082C356.691 16.3258 356.631 16.7705 356.477 17.1801C355.742 19.1218 354.891 21.0252 354.261 22.9997C353.621 25.0194 353.192 27.1072 352.652 29.1611C352.599 29.3682 352.408 29.5365 352.33 29.7416C351.606 31.6742 350.809 33.5857 350.195 35.5538C349.562 37.5719 349.116 39.6473 348.58 41.6945C348.54 41.8483 348.375 41.9666 348.318 42.1198C347.581 44.1013 346.78 46.0627 346.147 48.0768C345.53 50.0308 345.087 52.0398 344.565 54.023C344.538 54.1253 344.427 54.204 344.39 54.3059C344.058 55.2069 343.73 56.1085 343.415 57.0144C343.254 57.476 343.133 57.9519 342.969 58.4121C342.681 59.2175 342.352 60.0078 342.088 60.8203C341.933 61.2868 341.917 61.797 341.766 62.2649C341.441 63.2818 341.069 64.2829 340.724 65.2925C340.596 65.6548 340.499 66.0262 340.368 66.3875C340.05 67.2931 339.715 68.194 339.393 69.0987C339.209 69.6091 339.041 70.1243 338.863 70.6361C338.595 71.4006 338.304 72.1574 338.066 72.9303C337.901 73.4529 337.875 74.0203 337.68 74.5277C336.956 76.4409 336.088 78.3064 335.458 80.2491C334.757 82.4032 334.258 84.6221 333.487 87.0051Z"/>
</mask>
<path d="M404.818 1.3125C405.887 2.74937 404.728 3.99185 404.312 5.17466C402.217 11.1518 399.975 17.0772 397.753 23.0087C395.728 28.413 393.627 33.7888 391.626 39.2015C390.084 43.3676 388.693 47.5888 387.148 51.7536C385.566 56.022 383.85 60.2404 382.248 64.5021C381.192 67.3105 380.27 70.1685 379.231 72.9829C377.656 77.254 376.014 81.5016 374.425 85.7677C373.339 88.6823 372.3 91.6154 371.221 94.5327C369.622 98.8534 368 103.164 366.401 107.485C364.879 111.603 363.384 115.731 361.863 119.848C360.244 124.22 358.591 128.579 356.979 132.953C355.441 137.123 353.959 141.312 352.414 145.479C350.832 149.747 349.17 153.985 347.615 158.262C346.897 160.235 346.331 162.263 345.738 164.279C345.473 165.184 345.024 165.565 344.176 164.976C337.804 160.551 331.513 155.999 327.561 149.083C325.42 145.332 323.13 141.565 321.729 137.521C320.342 133.518 319.373 129.22 319.926 124.865C320.117 123.348 320.784 121.888 321.27 120.413C322.866 115.555 324.495 110.706 326.083 105.845C327.223 102.36 328.295 98.8524 329.445 95.37C330.554 91.9972 331.744 88.6505 332.864 85.2803C333.93 82.066 334.942 78.833 335.998 75.615C337.154 72.085 338.344 68.5651 339.507 65.0357C340.546 61.8697 341.565 58.6953 342.6 55.5273C343.79 51.8843 344.99 48.2454 346.183 44.6031C347.239 41.3794 348.282 38.1521 349.337 34.9291C350.534 31.2841 351.754 27.6475 352.937 23.9978C354.063 20.509 355.112 16.9928 356.275 13.5157C357.616 9.51478 359.044 5.54335 360.545 1.47472C361.212 1.37719 361.772 1.35272 362.329 1.35205C376.493 1.3373 390.654 1.32524 404.818 1.3125ZM333.487 87.0051C333.236 87.5431 332.904 88.0589 332.746 88.6233C332.187 90.6099 331.754 92.6333 331.151 94.6054C330.37 97.1487 329.482 99.6585 328.627 102.178C328.067 103.836 327.498 105.491 326.904 107.138C326.187 109.136 325.366 111.1 324.733 113.125C324.119 115.098 323.697 117.13 323.171 119.132C323.117 119.335 322.896 119.488 322.815 119.69C322.52 120.444 322.236 121.203 321.977 121.971C321.803 122.488 321.682 123.024 321.532 123.549C321.25 124.532 320.704 125.523 320.734 126.496C320.828 129.581 322.51 132.445 322.108 135.624C322.105 135.674 322.135 135.731 322.158 135.783C322.936 137.679 323.593 139.635 324.515 141.456C326.056 144.497 327.454 147.69 329.489 150.381C331.838 153.489 334.694 156.255 337.563 158.917C339.674 160.876 342.161 162.428 344.363 164.072C345.057 162.324 345.681 160.799 346.267 159.259C347.058 157.184 347.832 155.102 348.59 153.015C349.187 151.377 349.76 149.731 350.323 148.082C350.916 146.347 351.425 144.58 352.079 142.869C352.749 141.111 353.597 139.421 354.284 137.668C355.143 135.477 355.927 133.256 356.728 131.042C357.281 129.506 357.837 127.968 358.343 126.416C358.933 124.617 359.426 122.786 360.046 120.998C360.794 118.84 361.631 116.713 362.436 114.574C362.57 114.218 362.744 113.877 362.882 113.523C363.18 112.779 363.488 112.04 363.743 111.282C363.88 110.869 363.84 110.387 364.014 109.997C364.759 108.322 365.67 106.711 366.304 104.997C366.957 103.229 367.359 101.367 367.882 99.5489C367.926 99.3947 368.06 99.2687 368.124 99.1175C368.895 97.2855 369.716 95.4719 370.41 93.6117C371.04 91.9308 371.512 90.1929 372.082 88.4899C372.514 87.2082 372.97 85.9356 373.45 84.6707C374.23 82.5943 375.038 80.5273 375.833 78.4559C375.967 78.0993 376.084 77.734 376.231 77.3817C376.969 75.609 377.783 73.8638 378.44 72.0619C379.057 70.3746 379.496 68.6234 380.049 66.911C380.411 65.7831 380.786 64.6553 381.242 63.5616C381.939 61.8754 382.744 60.2331 383.438 58.5445C384.061 57.0295 384.641 55.4934 385.147 53.9376C385.737 52.1397 386.159 50.2876 386.773 48.4991C387.543 46.2521 388.428 44.0453 389.273 41.8238C389.37 41.5708 389.531 41.3435 389.635 41.0922C389.953 40.3069 390.272 39.5216 390.56 38.7252C390.707 38.3173 390.751 37.8702 390.912 37.469C391.673 35.5679 392.511 33.6953 393.221 31.7754C393.821 30.1465 394.23 28.4462 394.823 26.8143C395.601 24.6822 396.506 22.5975 397.3 20.4718C397.857 18.987 398.289 17.456 398.835 15.9671C399.646 13.7631 400.511 11.5801 401.342 9.3844C401.882 7.95758 402.271 6.45334 402.968 5.10997C403.876 3.36273 403.417 2.29187 401.419 2.28818C388.743 2.26338 376.064 2.25533 363.388 2.32605C362.634 2.33041 361.538 2.87439 361.199 3.49345C360.432 4.90686 360.039 6.52439 359.486 8.05545C359.339 8.46469 359.138 8.85517 358.99 9.26374C358.709 10.0259 358.434 10.7898 358.186 11.5627C358.022 12.0825 357.931 12.6265 357.764 13.1464C357.469 14.0718 357.13 14.9844 356.828 15.9082C356.691 16.3258 356.631 16.7705 356.477 17.1801C355.742 19.1218 354.891 21.0252 354.261 22.9997C353.621 25.0194 353.192 27.1072 352.652 29.1611C352.599 29.3682 352.408 29.5365 352.33 29.7416C351.606 31.6742 350.809 33.5857 350.195 35.5538C349.562 37.5719 349.116 39.6473 348.58 41.6945C348.54 41.8483 348.375 41.9666 348.318 42.1198C347.581 44.1013 346.78 46.0627 346.147 48.0768C345.53 50.0308 345.087 52.0398 344.565 54.023C344.538 54.1253 344.427 54.204 344.39 54.3059C344.058 55.2069 343.73 56.1085 343.415 57.0144C343.254 57.476 343.133 57.9519 342.969 58.4121C342.681 59.2175 342.352 60.0078 342.088 60.8203C341.933 61.2868 341.917 61.797 341.766 62.2649C341.441 63.2818 341.069 64.2829 340.724 65.2925C340.596 65.6548 340.499 66.0262 340.368 66.3875C340.05 67.2931 339.715 68.194 339.393 69.0987C339.209 69.6091 339.041 70.1243 338.863 70.6361C338.595 71.4006 338.304 72.1574 338.066 72.9303C337.901 73.4529 337.875 74.0203 337.68 74.5277C336.956 76.4409 336.088 78.3064 335.458 80.2491C334.757 82.4032 334.258 84.6221 333.487 87.0051Z" fill="url(#paint5_linear_283_68)" stroke="#013E5A" stroke-width="2" mask="url(#path-6-inside-1_283_68)"/>
<path d="M403.308 0.505859C403.517 0.495158 403.679 0.498829 403.811 0.529297C403.92 0.554555 403.999 0.5967 404.065 0.664063C390.166 0.815582 376.25 0.829255 362.329 0.84375C361.861 0.844316 361.471 0.8548 360.984 0.859375C361.002 0.765152 361.037 0.712349 361.064 0.682617C361.125 0.615993 361.284 0.522895 361.669 0.533203C361.808 0.536859 361.962 0.535022 362.11 0.532227L362.517 0.525391C375.894 0.525055 389.267 0.518925 402.639 0.540039H402.64C402.858 0.540272 403.128 0.515091 403.308 0.505859Z" fill="url(#paint6_linear_283_68)" stroke="#013E5A"/>
<path d="M2.90625 2.57324C4.45094 2.667 6.03351 2.79195 7.61133 2.79297C33.584 2.81241 59.5511 2.72635 85.5186 2.89258C90.8821 2.92721 96.268 3.60059 101.509 5.0166C102.752 5.35246 104.016 5.59987 105.26 5.84277C106.509 6.08677 107.739 6.32655 108.943 6.64844C111.255 7.2663 113.534 8.05325 115.794 8.89258C118.313 9.82807 120.808 10.8366 123.258 11.9326C125.584 12.973 127.894 14.0202 130.05 15.2988C133.087 17.1002 136.061 18.999 139.047 20.8984L142.04 22.7949C142.094 22.8291 142.15 22.8617 142.197 22.8896C142.247 22.9188 142.29 22.9434 142.33 22.9688C142.411 23.0198 142.462 23.0593 142.496 23.0947L142.497 23.0957C147.113 27.9012 151.942 32.4208 156.145 37.4922C159.385 41.4034 161.912 45.9187 164.614 50.3428C165.788 52.2648 166.592 54.4292 167.467 56.6025C168.444 59.0292 169.383 61.4722 170.287 63.9277L171.18 66.3867C171.75 67.9799 172.224 69.6196 172.562 71.2705C173.258 74.6798 173.86 78.1115 174.447 81.5498C174.844 83.8742 175.328 86.1281 175.429 88.4023C175.662 93.6859 175.702 98.9779 175.784 104.282C175.844 108.126 175.723 111.881 174.631 115.57C174.362 116.479 174.329 117.441 174.303 118.335C174.276 119.252 174.257 120.099 174.06 120.889C173.043 124.956 171.853 128.989 170.607 133.004C169.79 135.639 168.962 138.262 167.805 140.706C165.82 144.898 163.683 149.029 161.391 153.059C157.985 159.045 153.435 164.209 148.559 169.066C144.275 173.333 139.776 177.351 134.479 180.317C133.063 181.11 131.69 181.992 130.331 182.835C128.966 183.682 127.607 184.497 126.189 185.178C122.479 186.96 118.63 188.491 114.749 189.911C111.232 191.198 107.664 192.379 104.043 193.239C100.303 194.129 96.4686 194.631 92.6191 195.213C89.8429 195.632 87.0494 195.896 84.0723 196.232C58.506 196.239 33.104 196.24 7.70215 196.26C6.07296 196.261 4.42211 196.407 2.83594 196.485C2.2803 196.513 1.97594 196.453 1.82812 196.344C1.74614 196.283 1.59527 196.115 1.7002 195.483C1.84479 194.613 1.81738 193.709 1.81738 192.896C1.82174 130.624 1.82205 68.3524 1.81836 6.08008C1.81836 5.34021 1.86533 4.46899 1.71289 3.65039V3.64941C1.5855 2.96625 1.74027 2.78126 1.82617 2.71582C1.97807 2.60032 2.30091 2.53651 2.90625 2.57324ZM77.6602 37.3213C67.2808 37.469 56.9034 37.3525 46.5098 37.3545C45.8912 37.3547 45.3799 37.3594 44.9795 37.4141C44.5779 37.4689 44.1971 37.5842 43.9141 37.8779C43.6341 38.1685 43.527 38.5549 43.4756 38.9629C43.424 39.3727 43.4189 39.8971 43.4189 40.5361C43.4196 52.2063 43.4203 63.8768 43.4199 75.5469C43.4196 103.076 43.4189 130.605 43.4199 158.134C43.42 158.746 43.4322 159.254 43.4893 159.662C43.5461 160.069 43.6551 160.441 43.8955 160.733C44.146 161.038 44.4838 161.19 44.8584 161.271C45.2213 161.348 45.6652 161.367 46.1787 161.372C58.1139 161.483 70.0674 161.72 82.0137 161.636C89.7472 161.581 97.0783 159.42 103.886 155.884C113.098 151.097 119.999 143.882 124.927 134.797C130.457 124.601 132.937 113.614 133.155 102.119C133.274 95.8871 132.786 89.6734 131.472 83.2598L131.467 83.2354L131.46 83.2119L130.952 81.5244C129.789 77.5649 128.752 73.471 127.156 69.6406C125.001 64.4669 122.1 59.6582 118.25 55.417C114.335 51.1049 110.085 47.1678 104.968 44.3252C96.5135 39.6296 87.4365 37.1822 77.6602 37.3213Z" fill="url(#paint7_linear_283_68)" stroke="#013E5A"/>
<path d="M657.165 2.51465C684.201 2.51431 711.237 2.45773 738.27 2.56934C742.792 2.58803 747.253 3.34756 751.858 3.73438C752.927 3.82431 754.015 3.84301 755.061 3.88281C756.117 3.92299 757.147 3.98545 758.15 4.1582C761.605 4.75384 765.017 5.59364 768.467 6.37988C770.651 6.87686 772.796 7.25683 774.818 7.99805C777.076 8.82585 779.303 9.82643 781.328 11.0732C785.363 13.556 789.48 15.8886 792.98 18.9072H792.981C795.86 21.386 798.141 24.6592 800.387 27.8887C801.951 30.1432 803.221 32.7068 804.116 35.3105C805.046 38.0212 805.378 40.9094 805.951 43.8418V43.8428C805.992 44.0596 805.972 44.3007 805.948 44.6406C805.926 44.9451 805.899 45.3462 806.018 45.7295V45.7305C806.606 47.6216 806.673 49.5269 806.537 51.4609C806.398 53.4305 806.063 55.3108 805.854 57.3154C805.712 58.674 805.361 60.0238 804.936 61.3896C804.724 62.0724 804.495 62.754 804.265 63.4424C804.151 63.7854 804.035 64.1298 803.923 64.4756L803.597 65.5166C803.232 66.7359 802.85 67.9332 802.299 69.0176C800.099 73.3296 797.493 77.3236 794.017 80.6572L793.31 81.3154C792.577 81.9782 791.81 82.5637 790.928 83.3018L790.922 83.3057C788.077 85.7539 784.743 87.0853 781.438 88.7539C778.269 90.3519 774.894 91.4096 771.375 92.04C770.968 92.1131 770.612 92.3185 770.32 92.5117C769.991 92.7291 769.779 92.9001 769.505 93.0596L768.866 93.4336L769.452 93.8867C769.699 94.0778 769.88 94.2764 770.179 94.54C770.441 94.771 770.774 95.0285 771.182 95.1387C774.829 96.124 778.423 96.7773 781.945 97.915C785.861 99.1804 789.581 100.889 792.964 103.269L793.636 103.753C798.407 107.281 802.533 111.425 805.562 116.446C807.431 119.546 808.778 123.031 809.982 126.516C811.099 129.752 812.172 133.074 812.375 136.369V136.37C812.791 143.006 813.552 149.583 811.464 155.953H811.463C810.105 160.099 809.033 164.293 807.084 168.036C805.296 171.464 802.654 174.512 800.042 177.531L800.041 177.532C797.797 180.131 795.17 182.345 792.121 184.021L791.505 184.35C789.919 185.17 788.386 186.109 786.87 187.005C785.346 187.905 783.831 188.766 782.248 189.458H782.247C779.931 190.471 777.481 191.175 774.998 191.873L772.507 192.58C769.546 193.442 766.682 194.445 763.735 194.843C757.942 195.625 752.149 196.465 746.374 196.497C716.659 196.661 686.942 196.573 657.224 196.573C656.475 196.573 655.955 196.572 655.575 196.529C655.192 196.486 655.06 196.409 655 196.348C654.938 196.285 654.861 196.149 654.818 195.759C654.775 195.373 654.775 194.846 654.775 194.088V4.89258C654.775 4.16152 654.776 3.65526 654.818 3.28516C654.86 2.91229 654.933 2.78596 654.99 2.72949C655.047 2.67274 655.175 2.59839 655.55 2.55664C655.922 2.51531 656.431 2.51465 657.165 2.51465ZM699.121 113.469C698.606 113.469 698.168 113.481 697.813 113.542C697.453 113.604 697.115 113.725 696.857 113.992C696.601 114.257 696.486 114.6 696.427 114.965C696.369 115.328 696.356 115.776 696.355 116.308V116.309C696.352 122.172 696.358 128.036 696.358 134.233C696.358 138.561 696.358 142.889 696.357 147.217C696.356 151.544 696.355 155.872 696.355 160.199C696.355 160.746 696.364 161.207 696.42 161.574C696.477 161.945 696.593 162.296 696.865 162.562C697.135 162.827 697.489 162.939 697.862 162.994C698.234 163.049 698.701 163.058 699.258 163.058C711.157 163.059 723.047 162.99 734.936 163.084C741.008 163.132 747.01 162.492 752.704 160.292C755.741 159.119 758.91 157.57 761.347 155.377C767.072 150.226 769.432 143.588 768.813 135.963L768.744 135.223C767.808 126.301 762.902 120.247 754.99 116.704C749.955 114.45 744.534 113.472 738.989 113.477C725.699 113.488 712.411 113.469 699.121 113.469ZM737.792 35.6982C724.949 35.7381 712.107 35.7086 699.261 35.709C698.708 35.709 698.243 35.7183 697.871 35.7754C697.496 35.8328 697.144 35.9477 696.874 36.2129C696.602 36.4794 696.484 36.8298 696.424 37.2021C696.366 37.5713 696.355 38.0314 696.355 38.5771C696.352 52.1476 696.351 65.7185 696.358 79.2891C696.358 79.9213 696.373 80.449 696.444 80.873C696.515 81.3006 696.651 81.687 696.947 81.9805C697.242 82.2735 697.629 82.4086 698.057 82.4785C698.482 82.5479 699.01 82.5623 699.643 82.5625C710.027 82.5655 720.422 82.619 730.808 82.5332C734.392 82.5035 737.979 82.2452 741.533 81.8652C746.098 81.3773 750.595 80.3111 754.501 77.0059C757.766 74.6161 760.221 71.4725 761.533 67.7051C763.934 60.8065 763.873 53.8759 760.297 47.2246C758.383 43.6644 755.656 40.766 752.078 38.9375H752.077C747.629 36.6665 742.806 35.6827 737.792 35.6982Z" fill="url(#paint8_linear_283_68)" stroke="#013E5A"/>
<path d="M363.391 2.86035C376.065 2.78964 388.742 2.79746 401.418 2.82227C402.367 2.82402 402.722 3.08184 402.839 3.30859C402.971 3.56487 402.964 4.06912 402.524 4.91406H402.523C402.158 5.61776 401.878 6.35684 401.624 7.08594C401.365 7.82762 401.141 8.53451 400.874 9.24121C400.047 11.4255 399.178 13.624 398.366 15.8291H398.365C398.088 16.5838 397.841 17.3482 397.596 18.1006C397.35 18.8556 397.107 19.5995 396.835 20.3301C396.439 21.3861 396.016 22.4329 395.592 23.4883C395.169 24.5414 394.745 25.6025 394.354 26.6768V26.6777C394.051 27.509 393.796 28.3557 393.546 29.1855C393.294 30.0198 393.046 30.8379 392.752 31.6357C392.22 33.0731 391.624 34.4644 391.033 35.8848L390.447 37.3174C390.351 37.5582 390.292 37.8054 390.243 38.0156C390.192 38.2375 390.151 38.419 390.09 38.5889C389.805 39.3746 389.49 40.1518 389.171 40.9385C389.131 41.0332 389.08 41.1267 389.012 41.252C388.948 41.3694 388.868 41.517 388.806 41.6787V41.6807C387.965 43.8909 387.073 46.1138 386.299 48.3711V48.3721C385.989 49.2807 385.727 50.203 385.471 51.1133C385.213 52.0277 384.963 52.9296 384.672 53.8164L384.671 53.8174C384.17 55.3585 383.594 56.8822 382.975 58.3877V58.3896C382.633 59.2246 382.262 60.0495 381.887 60.8828C381.512 61.7134 381.132 62.5527 380.78 63.4043C380.435 64.2392 380.132 65.0916 379.85 65.9424L379.572 66.793C379.003 68.5567 378.586 70.2404 377.971 71.9248H377.97C377.318 73.7126 376.521 75.425 375.77 77.2227C375.624 77.5703 375.482 78.0076 375.365 78.3105V78.3115C374.573 80.3786 373.763 82.4513 372.981 84.5293C372.504 85.7979 372.043 87.0758 371.611 88.3643C371.023 90.113 370.571 91.7923 369.941 93.4707L369.94 93.4717C369.251 95.3189 368.44 97.1094 367.662 98.958C367.654 98.9772 367.64 98.9982 367.58 99.0869C367.535 99.1539 367.448 99.2828 367.401 99.4443C366.865 101.308 366.48 103.111 365.834 104.858C365.526 105.692 365.149 106.505 364.751 107.328C364.356 108.145 363.935 108.98 363.558 109.827C363.437 110.097 363.398 110.383 363.369 110.601C363.338 110.841 363.318 111.007 363.269 111.156C363.144 111.527 363.007 111.893 362.863 112.26L362.42 113.373C362.354 113.538 362.281 113.7 362.201 113.878C362.162 113.965 362.123 114.055 362.083 114.147L361.968 114.433C361.167 116.561 360.324 118.703 359.573 120.869C358.958 122.642 358.44 124.549 357.868 126.294L357.867 126.295C357.364 127.839 356.811 129.369 356.257 130.907C355.454 133.127 354.676 135.337 353.818 137.52V137.521C353.48 138.385 353.101 139.235 352.718 140.099C352.337 140.959 351.952 141.832 351.611 142.725C351.119 144.013 350.701 145.354 350.277 146.661L349.85 147.954C349.287 149.602 348.715 151.245 348.12 152.878H348.119C347.363 154.963 346.59 157.043 345.8 159.115C345.283 160.473 344.738 161.816 344.138 163.321C342.04 161.793 339.828 160.371 337.902 158.585C335.035 155.925 332.208 153.184 329.887 150.114C327.888 147.47 326.52 144.341 324.964 141.265V141.264L324.633 140.585C323.995 139.218 323.483 137.798 322.912 136.353L322.621 135.628C322.62 135.625 322.618 135.623 322.617 135.62C322.804 133.967 322.468 132.409 322.092 130.936C321.702 129.406 321.278 127.988 321.233 126.516V126.515C321.221 126.121 321.327 125.701 321.49 125.223C321.642 124.78 321.869 124.222 322.012 123.719C322.174 123.153 322.281 122.671 322.451 122.165V122.164C322.706 121.407 322.987 120.657 323.283 119.908L323.285 119.903C323.285 119.904 323.289 119.894 323.307 119.869C323.328 119.839 323.352 119.81 323.393 119.759C323.455 119.682 323.595 119.513 323.653 119.294L323.654 119.293C324.123 117.509 324.496 115.767 324.992 114.045L325.213 113.308C325.84 111.294 326.645 109.375 327.375 107.342C327.97 105.691 328.54 104.032 329.101 102.373C329.952 99.8625 330.848 97.3392 331.629 94.7861C331.934 93.7876 332.196 92.7776 332.449 91.7764C332.704 90.7719 332.95 89.778 333.228 88.793V88.792C333.365 88.2998 333.648 87.8643 334.02 87.1826L334.045 87.1357L334.061 87.085C334.401 85.9335 334.697 84.798 334.993 83.6924C335.29 82.5835 335.588 81.5018 335.934 80.4385V80.4375C336.561 78.502 337.403 76.7066 338.147 74.7393L338.146 74.7383C338.261 74.4391 338.324 74.1316 338.375 73.8623C338.429 73.5791 338.471 73.3408 338.542 73.1143L338.543 73.1113C338.777 72.3503 339.06 71.6201 339.335 70.8359V70.834C339.518 70.3078 339.68 69.8114 339.863 69.3027V69.3008C340.179 68.412 340.522 67.4868 340.839 66.5869C340.908 66.3952 340.969 66.2034 341.024 66.0225C341.082 65.8365 341.135 65.6626 341.195 65.4922L341.196 65.4883C341.535 64.4976 341.916 63.4721 342.242 62.4512L342.241 62.4502C342.329 62.1777 342.377 61.8988 342.418 61.6621C342.461 61.4123 342.499 61.2042 342.562 61.0117V61.0098C342.827 60.1994 343.137 59.4591 343.439 58.6152V58.6143C343.526 58.371 343.601 58.1256 343.672 57.8926C343.743 57.6559 343.81 57.4318 343.887 57.2129C344.197 56.3204 344.521 55.431 344.849 54.54C344.853 54.534 344.861 54.5252 344.874 54.5088C344.891 54.4868 344.924 54.4446 344.954 54.3965C344.97 54.3716 344.987 54.3412 345.004 54.3057L345.048 54.1846C345.578 52.174 346.011 50.201 346.623 48.2617V48.2607C347.251 46.2631 348.042 44.3294 348.787 42.3281C348.783 42.3404 348.778 42.3398 348.849 42.25C348.893 42.1935 349.013 42.0477 349.063 41.8555C349.607 39.7791 350.046 37.7418 350.672 35.7373H350.673C351.281 33.7872 352.065 31.9078 352.798 29.9521C352.81 29.9199 352.835 29.8829 352.912 29.7705C352.972 29.6838 353.084 29.5246 353.138 29.3281L353.139 29.3213C353.684 27.2312 354.102 25.1909 354.737 23.1855C355.363 21.2247 356.195 19.3733 356.944 17.3916V17.3906C357.034 17.1536 357.093 16.9125 357.145 16.6982C357.198 16.475 357.242 16.2832 357.303 16.0986L357.304 16.0977C357.453 15.6411 357.611 15.1865 357.771 14.7256C357.929 14.2669 358.089 13.8021 358.238 13.333L358.239 13.334C358.33 13.0535 358.398 12.7694 358.462 12.5059C358.527 12.2364 358.586 11.9881 358.662 11.748L358.661 11.7471C358.783 11.3665 358.913 10.988 359.047 10.6094L359.459 9.47168C359.529 9.28301 359.61 9.09636 359.698 8.89355C359.784 8.69555 359.875 8.48122 359.955 8.25977L359.956 8.26074C360.235 7.49389 360.483 6.67007 360.736 5.92578C360.996 5.1627 361.273 4.43592 361.637 3.7666L361.638 3.76758C361.739 3.58264 361.998 3.3503 362.368 3.15723C362.732 2.96792 363.116 2.86194 363.391 2.86035Z" fill="url(#paint9_linear_283_68)" stroke="#013E5A"/>
<mask id="path-11-inside-2_283_68" fill="white">
<path d="M404.039 2.56822C404.006 2.52134 404.071 2.6151 404.039 2.56822V2.56822Z"/>
</mask>
<path d="M404.039 2.56822C404.006 2.52134 404.071 2.6151 404.039 2.56822V2.56822Z" fill="url(#paint10_linear_283_68)"/>
<path d="M404.039 2.56822L404.862 2.00049C404.862 2.0004 404.862 2.0003 404.862 2.00021C404.862 2.00012 404.862 2.00003 404.861 1.99994C404.861 1.99985 404.861 1.99977 404.861 1.99968C404.861 1.99959 404.861 1.9995 404.861 1.99941C404.861 1.99933 404.861 1.99924 404.861 1.99915C404.861 1.99907 404.861 1.99898 404.861 1.9989C404.861 1.99881 404.861 1.99873 404.861 1.99864C404.861 1.99856 404.86 1.99847 404.86 1.99839C404.86 1.99831 404.86 1.99823 404.86 1.99814C404.86 1.99806 404.86 1.99798 404.86 1.9979C404.86 1.99782 404.86 1.99774 404.86 1.99766C404.86 1.99758 404.86 1.9975 404.86 1.99742C404.86 1.99734 404.86 1.99726 404.86 1.99718C404.86 1.99711 404.859 1.99703 404.859 1.99695C404.859 1.99687 404.859 1.9968 404.859 1.99672C404.859 1.99665 404.859 1.99657 404.859 1.9965C404.859 1.99642 404.859 1.99635 404.859 1.99627C404.859 1.9962 404.859 1.99612 404.859 1.99605C404.859 1.99598 404.859 1.99591 404.859 1.99583C404.859 1.99576 404.859 1.99569 404.858 1.99562C404.858 1.99555 404.858 1.99548 404.858 1.99541C404.858 1.99534 404.858 1.99527 404.858 1.9952C404.858 1.99513 404.858 1.99506 404.858 1.995C404.858 1.99493 404.858 1.99486 404.858 1.99479C404.858 1.99473 404.858 1.99466 404.858 1.99459C404.858 1.99453 404.858 1.99446 404.858 1.9944C404.858 1.99433 404.858 1.99427 404.858 1.9942C404.857 1.99414 404.857 1.99407 404.857 1.99401C404.857 1.99395 404.857 1.99389 404.857 1.99382C404.857 1.99376 404.857 1.9937 404.857 1.99364C404.857 1.99358 404.857 1.99352 404.857 1.99346C404.857 1.9934 404.857 1.99334 404.857 1.99328C404.857 1.99322 404.857 1.99316 404.857 1.9931C404.857 1.99304 404.857 1.99298 404.857 1.99293C404.857 1.99287 404.857 1.99281 404.857 1.99275C404.856 1.9927 404.856 1.99264 404.856 1.99259C404.856 1.99253 404.856 1.99248 404.856 1.99242C404.856 1.99237 404.856 1.99231 404.856 1.99226C404.856 1.9922 404.856 1.99215 404.856 1.9921C404.856 1.99205 404.856 1.99199 404.856 1.99194C404.856 1.99189 404.856 1.99184 404.856 1.99179C404.856 1.99174 404.856 1.99168 404.856 1.99163C404.856 1.99158 404.856 1.99153 404.856 1.99149C404.856 1.99144 404.856 1.99139 404.856 1.99134C404.855 1.99129 404.855 1.99124 404.855 1.99119C404.855 1.99115 404.855 1.9911 404.855 1.99105C404.855 1.99101 404.855 1.99096 404.855 1.99091C404.855 1.99087 404.855 1.99082 404.855 1.99078C404.855 1.99073 404.855 1.99069 404.855 1.99065C404.855 1.9906 404.855 1.99056 404.855 1.99051C404.855 1.99047 404.855 1.99043 404.855 1.99039C404.855 1.99034 404.855 1.9903 404.855 1.99026C404.855 1.99022 404.855 1.99018 404.855 1.99014C404.855 1.9901 404.855 1.99006 404.855 1.99002C404.855 1.98998 404.855 1.98994 404.855 1.9899C404.855 1.98986 404.854 1.98982 404.854 1.98978C404.854 1.98975 404.854 1.98971 404.854 1.98967C404.854 1.98963 404.854 1.9896 404.854 1.98956C404.854 1.98952 404.854 1.98949 404.854 1.98945C404.854 1.98942 404.854 1.98938 404.854 1.98935C404.854 1.98931 404.854 1.98928 404.854 1.98924C404.854 1.98921 404.854 1.98918 404.854 1.98914C404.854 1.98911 404.854 1.98908 404.854 1.98905C404.854 1.98901 404.854 1.98898 404.854 1.98895C404.854 1.98892 404.854 1.98889 404.854 1.98886C404.854 1.98883 404.854 1.9888 404.854 1.98877C404.854 1.98874 404.854 1.98871 404.854 1.98868C404.854 1.98865 404.854 1.98862 404.854 1.98859C404.854 1.98856 404.854 1.98854 404.854 1.98851C404.854 1.98848 404.854 1.98845 404.854 1.98843C404.854 1.9884 404.853 1.98837 404.853 1.98835C404.853 1.98832 404.853 1.9883 404.853 1.98827C404.853 1.98825 404.853 1.98822 404.853 1.9882C404.853 1.98817 404.853 1.98815 404.853 1.98813C404.853 1.9881 404.853 1.98808 404.853 1.98806C404.853 1.98803 404.853 1.98801 404.853 1.98799C404.853 1.98797 404.853 1.98794 404.853 1.98792C404.853 1.9879 404.853 1.98788 404.853 1.98786C404.853 1.98784 404.853 1.98782 404.853 1.9878C404.853 1.98778 404.853 1.98776 404.853 1.98774C404.853 1.98772 404.853 1.9877 404.853 1.98768C404.853 1.98767 404.853 1.98765 404.853 1.98763C404.853 1.98761 404.853 1.98759 404.853 1.98758C404.853 1.98756 404.853 1.98754 404.853 1.98753C404.853 1.98751 404.853 1.9875 404.853 1.98748C404.853 1.98747 404.853 1.98745 404.853 1.98744C404.853 1.98742 404.853 1.98741 404.853 1.98739C404.853 1.98738 404.853 1.98736 404.853 1.98735C404.853 1.98734 404.853 1.98732 404.853 1.98731C404.853 1.9873 404.853 1.98729 404.853 1.98727C404.853 1.98726 404.853 1.98725 404.853 1.98724C404.853 1.98723 404.853 1.98722 404.853 1.98721C404.853 1.9872 404.853 1.98719 404.853 1.98718C404.853 1.98717 404.853 1.98716 404.853 1.98715C404.853 1.98714 404.853 1.98713 404.853 1.98712C404.853 1.98711 404.853 1.9871 404.853 1.9871C404.853 1.98709 404.853 1.98708 404.853 1.98707C404.853 1.98707 404.853 1.98706 404.853 1.98705C404.853 1.98705 404.853 1.98704 404.853 1.98703C404.853 1.98703 404.853 1.98702 404.853 1.98702C404.853 1.98701 404.853 1.98701 404.853 1.987C404.853 1.987 404.853 1.98699 404.853 1.98699C404.853 1.98699 404.853 1.98698 404.853 1.98698C404.853 1.98698 404.853 1.98697 404.853 1.98697C404.853 1.98697 404.853 1.98697 404.853 1.98696C404.853 1.98696 404.853 1.98696 404.853 1.98696C404.853 1.98696 404.853 1.98696 404.853 1.98696C404.853 1.98696 404.853 1.98695 404.853 1.98695C404.029 1.55469 403.206 3.12242 403.206 3.12242C403.206 3.12242 403.206 3.12242 403.206 3.12242C403.206 3.12242 403.206 3.12243 403.206 3.12243C403.206 3.12243 403.206 3.12243 403.206 3.12243C403.206 3.12244 403.206 3.12244 403.206 3.12244C403.206 3.12244 403.206 3.12245 403.206 3.12245C403.206 3.12245 403.206 3.12246 403.206 3.12246C403.206 3.12247 403.206 3.12247 403.206 3.12248C403.206 3.12248 403.206 3.12249 403.206 3.12249C403.206 3.1225 403.206 3.1225 403.206 3.12251C403.206 3.12251 403.206 3.12252 403.206 3.12253C403.206 3.12253 403.206 3.12254 403.206 3.12255C403.206 3.12255 403.206 3.12256 403.206 3.12257C403.206 3.12258 403.206 3.12258 403.206 3.12259C403.206 3.1226 403.206 3.12261 403.206 3.12262C403.206 3.12263 403.206 3.12263 403.206 3.12264C403.206 3.12265 403.206 3.12266 403.206 3.12267C403.206 3.12268 403.206 3.12269 403.206 3.1227C403.206 3.12271 403.206 3.12272 403.206 3.12274C403.206 3.12275 403.206 3.12276 403.206 3.12277C403.206 3.12278 403.206 3.12279 403.206 3.1228C403.206 3.12282 403.206 3.12283 403.206 3.12284C403.206 3.12285 403.206 3.12287 403.206 3.12288C403.206 3.12289 403.206 3.12291 403.206 3.12292C403.206 3.12293 403.206 3.12295 403.206 3.12296C403.206 3.12297 403.206 3.12299 403.206 3.123C403.206 3.12302 403.207 3.12303 403.207 3.12305C403.207 3.12306 403.207 3.12308 403.207 3.12309C403.207 3.12311 403.207 3.12313 403.207 3.12314C403.207 3.12316 403.207 3.12317 403.207 3.12319C403.207 3.12321 403.207 3.12322 403.207 3.12324C403.207 3.12326 403.207 3.12328 403.207 3.12329C403.207 3.12331 403.207 3.12333 403.207 3.12335C403.207 3.12336 403.207 3.12338 403.207 3.1234C403.207 3.12342 403.207 3.12344 403.207 3.12346C403.207 3.12348 403.207 3.1235 403.207 3.12352C403.207 3.12353 403.207 3.12355 403.207 3.12357C403.207 3.12359 403.207 3.12361 403.207 3.12364C403.207 3.12366 403.207 3.12368 403.207 3.1237C403.207 3.12372 403.207 3.12374 403.207 3.12376C403.207 3.12378 403.207 3.1238 403.207 3.12383C403.207 3.12385 403.207 3.12387 403.207 3.12389C403.207 3.12391 403.207 3.12394 403.207 3.12396C403.207 3.12398 403.207 3.124 403.207 3.12403C403.207 3.12405 403.207 3.12407 403.207 3.1241C403.207 3.12412 403.207 3.12414 403.207 3.12417C403.207 3.12419 403.207 3.12422 403.207 3.12424C403.207 3.12427 403.207 3.12429 403.207 3.12431C403.207 3.12434 403.207 3.12436 403.207 3.12439C403.207 3.12442 403.207 3.12444 403.207 3.12447C403.208 3.12449 403.208 3.12452 403.208 3.12454C403.208 3.12457 403.208 3.1246 403.208 3.12462C403.208 3.12465 403.208 3.12468 403.208 3.1247C403.208 3.12473 403.208 3.12476 403.208 3.12478C403.208 3.12481 403.208 3.12484 403.208 3.12487C403.208 3.12489 403.208 3.12492 403.208 3.12495C403.208 3.12498 403.208 3.12501 403.208 3.12503C403.208 3.12506 403.208 3.12509 403.208 3.12512C403.208 3.12515 403.208 3.12518 403.208 3.12521C403.208 3.12524 403.208 3.12527 403.208 3.1253C403.208 3.12532 403.208 3.12535 403.208 3.12538C403.208 3.12541 403.208 3.12544 403.208 3.12547C403.208 3.12551 403.208 3.12554 403.208 3.12557C403.208 3.1256 403.208 3.12563 403.208 3.12566C403.208 3.12569 403.208 3.12572 403.208 3.12575C403.208 3.12578 403.208 3.12582 403.208 3.12585C403.208 3.12588 403.208 3.12591 403.209 3.12594C403.209 3.12597 403.209 3.12601 403.209 3.12604C403.209 3.12607 403.209 3.1261 403.209 3.12614C403.209 3.12617 403.209 3.1262 403.209 3.12624C403.209 3.12627 403.209 3.1263 403.209 3.12633C403.209 3.12637 403.209 3.1264 403.209 3.12644C403.209 3.12647 403.209 3.1265 403.209 3.12654C403.209 3.12657 403.209 3.1266 403.209 3.12664C403.209 3.12667 403.209 3.12671 403.209 3.12674C403.209 3.12678 403.209 3.12681 403.209 3.12685C403.209 3.12688 403.209 3.12692 403.209 3.12695C403.209 3.12699 403.209 3.12702 403.209 3.12706C403.209 3.12709 403.209 3.12713 403.209 3.12717C403.209 3.1272 403.209 3.12724 403.209 3.12727C403.209 3.12731 403.209 3.12735 403.21 3.12738C403.21 3.12742 403.21 3.12745 403.21 3.12749C403.21 3.12753 403.21 3.12756 403.21 3.1276C403.21 3.12764 403.21 3.12768 403.21 3.12771C403.21 3.12775 403.21 3.12779 403.21 3.12782C403.21 3.12786 403.21 3.1279 403.21 3.12794C403.21 3.12798 403.21 3.12801 403.21 3.12805C403.21 3.12809 403.21 3.12813 403.21 3.12817C403.21 3.1282 403.21 3.12824 403.21 3.12828C403.21 3.12832 403.21 3.12836 403.21 3.1284C403.21 3.12843 403.21 3.12847 403.21 3.12851C403.21 3.12855 403.21 3.12859 403.21 3.12863C403.21 3.12867 403.21 3.12871 403.21 3.12875C403.21 3.12879 403.211 3.12883 403.211 3.12887C403.211 3.12891 403.211 3.12895 403.211 3.12899C403.211 3.12903 403.211 3.12907 403.211 3.12911C403.211 3.12915 403.211 3.12919 403.211 3.12923C403.211 3.12927 403.211 3.12931 403.211 3.12935C403.211 3.12939 403.211 3.12943 403.211 3.12947C403.211 3.12951 403.211 3.12955 403.211 3.12959C403.211 3.12963 403.211 3.12967 403.211 3.12972C403.211 3.12976 403.211 3.1298 403.211 3.12984C403.211 3.12988 403.211 3.12992 403.211 3.12996C403.211 3.13001 403.211 3.13005 403.211 3.13009C403.211 3.13013 403.211 3.13017 403.211 3.13021C403.211 3.13026 403.212 3.1303 403.212 3.13034C403.212 3.13038 403.212 3.13042 403.212 3.13047C403.212 3.13051 403.212 3.13055 403.212 3.13059C403.212 3.13064 403.212 3.13068 403.212 3.13072C403.212 3.13076 403.212 3.13081 403.212 3.13085C403.212 3.13089 403.212 3.13093 403.212 3.13098C403.212 3.13102 403.212 3.13106 403.212 3.13111C403.212 3.13115 403.212 3.13119 403.212 3.13124C403.212 3.13128 403.212 3.13132 403.212 3.13137C403.212 3.13141 403.212 3.13145 403.212 3.1315C403.212 3.13154 403.212 3.13158 403.212 3.13163C403.212 3.13167 403.212 3.13171 403.213 3.13176C403.213 3.1318 403.213 3.13185 403.213 3.13189C403.213 3.13193 403.213 3.13198 403.213 3.13202C403.213 3.13207 403.213 3.13211 403.213 3.13215C403.213 3.1322 403.213 3.13224 403.213 3.13229C403.213 3.13233 403.213 3.13237 403.213 3.13242C403.213 3.13246 403.213 3.13251 403.213 3.13255C403.213 3.1326 403.213 3.13264 403.213 3.13269C403.213 3.13273 403.213 3.13277 403.213 3.13282C403.213 3.13286 403.213 3.13291 403.213 3.13295C403.213 3.133 403.213 3.13304 403.213 3.13309C403.213 3.13313 403.214 3.13318 403.214 3.13322C403.214 3.13327 403.214 3.13331 403.214 3.13336C403.214 3.1334 403.214 3.13345 403.214 3.13349C403.214 3.13354 403.214 3.13358 403.214 3.13363C403.214 3.13367 403.214 3.13372 403.214 3.13376C403.214 3.13381 403.214 3.13385 403.214 3.1339C403.214 3.13395 403.214 3.13399 403.214 3.13404C403.214 3.13408 403.214 3.13413 403.214 3.13417C403.214 3.13422 403.214 3.13426 403.214 3.13431C403.214 3.13435 403.214 3.1344 403.214 3.13444C403.214 3.13449 403.214 3.13454 403.214 3.13458C403.215 3.13463 403.215 3.13467 403.215 3.13472C403.215 3.13476 403.215 3.13481 403.215 3.13486C403.215 3.1349 403.215 3.13495 403.215 3.13499C403.215 3.13504 403.215 3.13508 403.215 3.13513C403.215 3.13517 403.215 3.13522 403.215 3.13527C403.215 3.13531 403.215 3.13536 403.215 3.1354C403.215 3.13545 403.215 3.1355 403.215 3.13554C403.215 3.13559 403.215 3.13563 403.215 3.13568C403.215 3.13572 403.215 3.13577 403.215 3.13582C403.215 3.13586 403.215 3.13591 403.215 3.13595C403.215 3.136 403.215 3.13604 403.216 3.13609C403.216 3.13614 403.216 3.13618 403.216 3.13623C403.216 3.13627 403.216 3.13632 403.216 3.13636C403.216 3.13641 403.216 3.13646 403.216 3.1365C403.216 3.13655 403.216 3.13659 403.216 3.13664C403.216 3.13668 403.216 3.13673 403.216 3.13678C403.216 3.13682 403.216 3.13687 403.216 3.13691C403.216 3.13696 403.216 3.137 403.216 3.13705C403.216 3.1371 403.216 3.13714 403.216 3.13719C403.216 3.13723 403.216 3.13728 403.216 3.13732C403.216 3.13737 403.216 3.13742 403.216 3.13746C403.216 3.13751 403.217 3.13755 403.217 3.1376C403.217 3.13764 403.217 3.13769 403.217 3.13773C403.217 3.13778 403.217 3.13782 403.217 3.13787C403.217 3.13792 403.217 3.13796 403.217 3.13801C403.217 3.13805 403.217 3.1381 403.217 3.13814C403.217 3.13819 403.217 3.13823 403.217 3.13828C403.217 3.13832 403.217 3.13837 403.217 3.13841C403.217 3.13846 403.217 3.1385 403.217 3.13855C403.217 3.13859 403.217 3.13864 403.217 3.13868C403.217 3.13873 403.217 3.13877 403.217 3.13882C403.217 3.13886 403.217 3.13891 403.217 3.13895C403.218 3.139 403.218 3.13904 403.218 3.13909C403.218 3.13913 403.218 3.13918 403.218 3.13922C403.218 3.13926 403.218 3.13931 403.218 3.13935C403.218 3.1394 403.218 3.13944 403.218 3.13949C403.218 3.13953 403.218 3.13958 403.218 3.13962C403.218 3.13966 403.218 3.13971 403.218 3.13975C403.218 3.1398 403.218 3.13984 403.218 3.13988C403.218 3.13993 403.218 3.13997 403.218 3.14002C403.218 3.14006 403.218 3.1401 403.218 3.14015C403.218 3.14019 403.218 3.14024 403.218 3.14028C403.218 3.14032 403.218 3.14037 403.218 3.14041C403.219 3.14045 403.219 3.1405 403.219 3.14054C403.219 3.14058 403.219 3.14063 403.219 3.14067C403.219 3.14071 403.219 3.14076 403.219 3.1408C403.219 3.14084 403.219 3.14089 403.219 3.14093C403.219 3.14097 403.219 3.14101 403.219 3.14106C403.219 3.1411 403.219 3.14114 403.219 3.14118C403.219 3.14123 403.219 3.14127 403.219 3.14131C403.219 3.14135 403.219 3.1414 403.219 3.14144C403.219 3.14148 403.219 3.14152 403.219 3.14157C403.219 3.14161 403.219 3.14165 403.219 3.14169C403.219 3.14173 403.219 3.14178 403.219 3.14182C403.219 3.14186 403.22 3.1419 403.22 3.14194C403.22 3.14198 403.22 3.14202 403.22 3.14207C403.22 3.14211 403.22 3.14215 403.22 3.14219C403.22 3.14223 403.22 3.14227 403.22 3.14231C403.22 3.14235 403.22 3.14239 403.22 3.14244C403.22 3.14248 403.22 3.14252 403.22 3.14256C403.22 3.1426 403.22 3.14264 403.22 3.14268C403.22 3.14272 403.22 3.14276 403.22 3.1428C403.22 3.14284 403.22 3.14288 403.22 3.14292C403.22 3.14296 403.22 3.143 403.22 3.14304C403.22 3.14308 403.22 3.14312 403.22 3.14316C403.22 3.1432 403.22 3.14324 403.22 3.14328C403.22 3.14331 403.221 3.14335 403.221 3.14339C403.221 3.14343 403.221 3.14347 403.221 3.14351C403.221 3.14355 403.221 3.14359 403.221 3.14363C403.221 3.14366 403.221 3.1437 403.221 3.14374C403.221 3.14378 403.221 3.14382 403.221 3.14385C403.221 3.14389 403.221 3.14393 403.221 3.14397C403.221 3.14401 403.221 3.14404 403.221 3.14408C403.221 3.14412 403.221 3.14416 403.221 3.14419C403.221 3.14423 403.221 3.14427 403.221 3.1443C403.221 3.14434 403.221 3.14438 403.221 3.14441C403.221 3.14445 403.221 3.14449 403.221 3.14452C403.221 3.14456 403.221 3.1446 403.221 3.14463C403.221 3.14467 403.221 3.1447 403.221 3.14474C403.222 3.14478 403.222 3.14481 403.222 3.14485C403.222 3.14488 403.222 3.14492 403.222 3.14495C403.222 3.14499 403.222 3.14502 403.222 3.14506C403.222 3.14509 403.222 3.14513 403.222 3.14516C403.222 3.1452 403.222 3.14523 403.222 3.14527C403.222 3.1453 403.222 3.14533 403.222 3.14537C403.222 3.1454 403.222 3.14544 403.222 3.14547C403.222 3.1455 403.222 3.14554 403.222 3.14557C403.222 3.1456 403.222 3.14564 403.222 3.14567C403.222 3.1457 403.222 3.14574 403.222 3.14577C403.222 3.1458 403.222 3.14583 403.222 3.14587C403.222 3.1459 403.222 3.14593 403.222 3.14596C403.222 3.146 403.222 3.14603 403.222 3.14606C403.222 3.14609 403.222 3.14612 403.222 3.14615C403.222 3.14618 403.222 3.14622 403.223 3.14625C403.223 3.14628 403.223 3.14631 403.223 3.14634C403.223 3.14637 403.223 3.1464 403.223 3.14643C403.223 3.14646 403.223 3.14649 403.223 3.14652C403.223 3.14655 403.223 3.14658 403.223 3.14661C403.223 3.14664 403.223 3.14667 403.223 3.1467C403.223 3.14673 403.223 3.14676 403.223 3.14679C403.223 3.14681 403.223 3.14684 403.223 3.14687C403.223 3.1469 403.223 3.14693 403.223 3.14696C403.223 3.14698 403.223 3.14701 403.223 3.14704C403.223 3.14707 403.223 3.14709 403.223 3.14712C403.223 3.14715 403.223 3.14718 403.223 3.1472C403.223 3.14723 403.223 3.14726 403.223 3.14728C403.223 3.14731 403.223 3.14734 403.223 3.14736C403.223 3.14739 403.223 3.14741 403.223 3.14744C403.223 3.14746 403.223 3.14749 403.223 3.14752C403.223 3.14754 403.223 3.14757 403.223 3.14759C403.223 3.14762 403.223 3.14764 403.223 3.14766C403.224 3.14769 403.224 3.14771 403.224 3.14774C403.224 3.14776 403.224 3.14778 403.224 3.14781C403.224 3.14783 403.224 3.14786 403.224 3.14788C403.224 3.1479 403.224 3.14792 403.224 3.14795C403.224 3.14797 403.224 3.14799 403.224 3.14801C403.224 3.14804 403.224 3.14806 403.224 3.14808C403.224 3.1481 403.224 3.14812 403.224 3.14815C403.224 3.14817 403.224 3.14819 403.224 3.14821C403.224 3.14823 403.224 3.14825 403.224 3.14827C403.224 3.14829 403.224 3.14831 403.224 3.14833C403.224 3.14835 403.224 3.14837 403.224 3.14839C403.224 3.14841 403.224 3.14843 403.224 3.14845C403.224 3.14847 403.224 3.14849 403.224 3.1485C403.224 3.14852 403.224 3.14854 403.224 3.14856C403.224 3.14858 403.224 3.1486 403.224 3.14861C403.224 3.14863 403.224 3.14865 403.224 3.14866C403.224 3.14868 403.224 3.1487 403.224 3.14872C403.224 3.14873 403.224 3.14875 403.224 3.14876C403.224 3.14878 403.224 3.1488 403.224 3.14881C403.224 3.14883 403.224 3.14884 403.224 3.14886C403.224 3.14887 403.224 3.14889 403.224 3.1489C403.224 3.14892 403.224 3.14893 403.224 3.14895C403.224 3.14896 403.224 3.14897 403.224 3.14899C403.224 3.149 403.224 3.14901 403.224 3.14903C403.224 3.14904 403.224 3.14905 403.224 3.14907C403.224 3.14908 403.224 3.14909 403.224 3.1491C403.224 3.14911 403.225 3.14913 403.225 3.14914C403.225 3.14963 403.224 3.14878 403.225 3.14926C403.225 3.14927 403.225 3.14928 403.225 3.14929C403.225 3.1493 403.225 3.14931 403.225 3.14931C403.225 3.14937 403.225 3.14931 403.225 3.14936C403.225 3.14955 403.225 3.14924 403.225 3.14943C403.225 3.14943 403.225 3.14944 403.225 3.14944C403.225 3.14945 403.225 3.14945 403.225 3.14945C403.225 3.14968 403.225 3.14925 403.225 3.14947C403.225 3.14951 403.225 3.14945 403.225 3.14948C403.225 3.14948 403.225 3.14948 403.225 3.14948C403.225 3.14948 404.616 3.40496 404.871 2.01402C404.871 2.01401 404.871 2.01402 404.871 2.014C404.871 2.01361 404.871 2.01436 404.871 2.01396C404.871 2.01395 404.871 2.01394 404.871 2.01394C404.871 2.01393 404.871 2.01393 404.871 2.01392C404.871 2.01391 404.871 2.01391 404.871 2.0139C404.871 2.01389 404.871 2.01388 404.871 2.01388C404.871 2.01387 404.871 2.01386 404.871 2.01385C404.871 2.01384 404.871 2.01384 404.871 2.01383C404.871 2.01382 404.871 2.01381 404.871 2.0138C404.871 2.01379 404.871 2.01378 404.871 2.01377C404.871 2.01376 404.871 2.01374 404.871 2.01373C404.871 2.01372 404.871 2.01371 404.871 2.0137C404.871 2.01369 404.871 2.01367 404.871 2.01366C404.871 2.01365 404.871 2.01364 404.871 2.01362C404.871 2.01361 404.871 2.0136 404.871 2.01358C404.871 2.01357 404.871 2.01355 404.871 2.01354C404.871 2.01352 404.871 2.01351 404.871 2.01349C404.871 2.01348 404.871 2.01346 404.871 2.01345C404.871 2.01343 404.871 2.01341 404.871 2.0134C404.871 2.01338 404.871 2.01336 404.871 2.01334C404.87 2.01284 404.871 2.01374 404.871 2.01323C404.871 2.01321 404.871 2.01319 404.871 2.01317C404.871 2.01315 404.871 2.01313 404.871 2.01311C404.871 2.01309 404.871 2.01307 404.871 2.01305C404.87 2.01303 404.87 2.01301 404.87 2.01299C404.87 2.01296 404.87 2.01294 404.87 2.01292C404.87 2.0129 404.87 2.01287 404.87 2.01285C404.87 2.01282 404.87 2.0128 404.87 2.01278C404.87 2.01275 404.87 2.01273 404.87 2.0127C404.87 2.01268 404.87 2.01265 404.87 2.01263C404.87 2.0126 404.87 2.01257 404.87 2.01255C404.87 2.01252 404.87 2.01249 404.87 2.01247C404.87 2.01244 404.87 2.01241 404.87 2.01238C404.87 2.01235 404.87 2.01232 404.87 2.0123C404.87 2.01227 404.87 2.01224 404.87 2.01221C404.87 2.01218 404.87 2.01215 404.87 2.01212C404.87 2.01209 404.87 2.01205 404.87 2.01202C404.87 2.01199 404.87 2.01196 404.87 2.01193C404.87 2.0119 404.87 2.01186 404.87 2.01183C404.87 2.0118 404.87 2.01176 404.87 2.01173C404.87 2.01169 404.87 2.01166 404.87 2.01163C404.87 2.01159 404.869 2.01156 404.869 2.01152C404.869 2.01148 404.869 2.01145 404.869 2.01141C404.869 2.01138 404.869 2.01134 404.869 2.0113C404.869 2.01127 404.869 2.01123 404.869 2.01119C404.869 2.01115 404.869 2.01111 404.869 2.01107C404.869 2.01104 404.869 2.011 404.869 2.01096C404.869 2.01092 404.869 2.01088 404.869 2.01084C404.869 2.01079 404.869 2.01075 404.869 2.01071C404.869 2.01067 404.869 2.01063 404.869 2.01059C404.869 2.01054 404.869 2.0105 404.869 2.01046C404.869 2.01042 404.869 2.01037 404.869 2.01033C404.869 2.01028 404.869 2.01024 404.869 2.01019C404.869 2.01015 404.868 2.0101 404.868 2.01006C404.868 2.01001 404.868 2.00997 404.868 2.00992C404.868 2.00987 404.868 2.00983 404.868 2.00978C404.868 2.00973 404.868 2.00968 404.868 2.00964C404.868 2.00959 404.868 2.00954 404.868 2.00949C404.868 2.00944 404.868 2.00939 404.868 2.00934C404.868 2.00929 404.868 2.00924 404.868 2.00919C404.868 2.00914 404.868 2.00908 404.868 2.00903C404.868 2.00898 404.868 2.00893 404.868 2.00888C404.868 2.00882 404.868 2.00877 404.868 2.00872C404.867 2.00866 404.867 2.00861 404.867 2.00855C404.867 2.0085 404.867 2.00844 404.867 2.00839C404.867 2.00833 404.867 2.00828 404.867 2.00822C404.867 2.00816 404.867 2.00811 404.867 2.00805C404.867 2.00799 404.867 2.00793 404.867 2.00787C404.867 2.00782 404.867 2.00776 404.867 2.0077C404.867 2.00764 404.867 2.00758 404.867 2.00752C404.867 2.00746 404.867 2.0074 404.867 2.00734C404.867 2.00727 404.866 2.00721 404.866 2.00715C404.866 2.00709 404.866 2.00703 404.866 2.00696C404.866 2.0069 404.866 2.00684 404.866 2.00677C404.866 2.00671 404.866 2.00664 404.866 2.00658C404.866 2.00651 404.866 2.00645 404.866 2.00638C404.866 2.00631 404.866 2.00625 404.866 2.00618C404.866 2.00611 404.866 2.00605 404.866 2.00598C404.866 2.00591 404.866 2.00584 404.865 2.00577C404.865 2.0057 404.865 2.00563 404.865 2.00556C404.865 2.00549 404.865 2.00542 404.865 2.00535C404.865 2.00528 404.865 2.00521 404.865 2.00514C404.865 2.00507 404.865 2.00499 404.865 2.00492C404.865 2.00485 404.865 2.00478 404.865 2.0047C404.865 2.00463 404.865 2.00455 404.865 2.00448C404.865 2.0044 404.864 2.00433 404.864 2.00425C404.864 2.00418 404.864 2.0041 404.864 2.00402C404.864 2.00395 404.864 2.00387 404.864 2.00379C404.864 2.00371 404.864 2.00363 404.864 2.00355C404.864 2.00348 404.864 2.0034 404.864 2.00332C404.864 2.00324 404.864 2.00316 404.864 2.00307C404.864 2.00299 404.864 2.00291 404.863 2.00283C404.863 2.00275 404.863 2.00267 404.863 2.00258C404.863 2.0025 404.863 2.00242 404.863 2.00233C404.863 2.00225 404.863 2.00216 404.863 2.00208C404.863 2.00199 404.863 2.00191 404.863 2.00182C404.863 2.00173 404.863 2.00165 404.863 2.00156C404.863 2.00147 404.862 2.00138 404.862 2.0013C404.862 2.00121 404.862 2.00112 404.862 2.00103C404.862 2.00094 404.862 2.00085 404.862 2.00076C404.862 2.00067 404.862 2.00058 404.862 2.00049L404.039 2.56822L403.215 3.13595C403.223 3.14642 403.209 3.12658 403.216 3.13703C403.216 3.13711 403.216 3.1372 403.216 3.13729C403.216 3.13737 403.216 3.13746 403.217 3.13754C403.217 3.13763 403.217 3.13771 403.217 3.1378C403.217 3.13788 403.217 3.13797 403.217 3.13805C403.228 3.15393 403.206 3.12266 403.217 3.13854C403.217 3.13862 403.217 3.1387 403.217 3.13878C403.217 3.13886 403.217 3.13894 403.218 3.13902C403.255 3.19384 403.18 3.08515 403.218 3.13994C403.257 3.19576 403.18 3.08502 403.219 3.14082C403.219 3.14089 403.219 3.14096 403.219 3.14103C403.219 3.1411 403.219 3.14117 403.219 3.14124C403.228 3.15416 403.21 3.12873 403.219 3.14165C403.261 3.20263 403.178 3.08224 403.22 3.14316C403.225 3.15009 403.216 3.13694 403.221 3.14385C403.221 3.14391 403.221 3.14396 403.221 3.14402C403.221 3.14407 403.221 3.14413 403.221 3.14418C403.221 3.14424 403.221 3.14429 403.221 3.14434C403.221 3.14439 403.221 3.14445 403.221 3.1445C403.221 3.14455 403.221 3.1446 403.221 3.14465C403.221 3.1447 403.221 3.14476 403.222 3.14481C403.224 3.14894 403.219 3.14097 403.222 3.1451C403.222 3.14515 403.222 3.1452 403.222 3.14524C403.222 3.14529 403.222 3.14534 403.222 3.14539C403.222 3.14543 403.222 3.14548 403.222 3.14552C403.222 3.14557 403.222 3.14562 403.222 3.14566C403.222 3.14571 403.222 3.14575 403.222 3.14579C403.222 3.14584 403.222 3.14588 403.222 3.14592C403.222 3.14601 403.222 3.14609 403.222 3.14618C403.222 3.14622 403.223 3.14626 403.223 3.1463C403.223 3.14634 403.223 3.14638 403.223 3.14642C403.231 3.15905 403.214 3.13404 403.223 3.14666C403.233 3.16183 403.213 3.13237 403.223 3.14749C403.23 3.15724 403.217 3.1381 403.224 3.14785C403.23 3.15709 403.217 3.13894 403.224 3.14817C403.252 3.18838 403.197 3.10854 403.224 3.1487C403.225 3.14928 403.224 3.14823 403.224 3.14881C403.224 3.14883 403.224 3.14884 403.224 3.14886C403.224 3.14888 403.224 3.1489 403.224 3.14891C403.228 3.15411 403.221 3.14381 403.224 3.149C403.225 3.1493 403.224 3.1488 403.224 3.14909C403.226 3.15136 403.223 3.14711 403.225 3.14934C403.225 3.14974 403.224 3.14911 403.225 3.14947C403.225 3.14954 403.225 3.14942 403.225 3.14949C403.48 1.75854 404.871 2.01402 404.871 2.01402C404.871 2.01402 404.871 2.01402 404.871 2.01402C404.871 2.01402 404.871 2.01401 404.871 2.01401C404.871 2.01401 404.871 2.01401 404.871 2.01401C404.861 1.99983 404.881 2.02799 404.871 2.01367C404.869 2.01062 404.873 2.01665 404.871 2.0136C404.871 2.01359 404.871 2.01357 404.871 2.01356C404.871 2.01355 404.871 2.01353 404.871 2.01352C404.869 2.01127 404.872 2.01569 404.871 2.01344C404.867 2.00747 404.875 2.01932 404.871 2.01335C404.868 2.00996 404.873 2.01664 404.871 2.01325C404.871 2.01323 404.871 2.01322 404.871 2.0132C404.871 2.01318 404.871 2.01316 404.871 2.01315C404.86 1.99729 404.881 2.02879 404.87 2.01292C404.866 2.00697 404.874 2.01788 404.87 2.01182C404.867 2.0076 404.872 2.01588 404.87 2.01166C404.856 1.99137 404.883 2.03178 404.869 2.01149C404.867 2.00801 404.872 2.01463 404.869 2.01114C404.847 1.97898 404.891 2.04259 404.869 2.0104C404.865 2.00577 404.872 2.01464 404.868 2.01C404.868 2.00997 404.868 2.00994 404.868 2.0099C404.868 2.00987 404.868 2.00983 404.868 2.0098C404.868 2.00977 404.868 2.00973 404.868 2.0097C404.868 2.00966 404.868 2.00963 404.868 2.00959C404.829 1.95326 404.907 2.06551 404.868 2.00917C404.857 1.99337 404.878 2.02452 404.868 2.00873C404.856 1.99271 404.878 2.0243 404.867 2.00827C404.867 2.00824 404.867 2.0082 404.867 2.00816C404.867 2.00812 404.867 2.00808 404.867 2.00804C404.866 2.00695 404.868 2.00891 404.867 2.00781C404.855 1.99017 404.879 2.02522 404.867 2.00757C404.828 1.95168 404.905 2.06323 404.867 2.00733C404.859 1.99588 404.874 2.01831 404.866 2.00685C404.826 1.94803 404.906 2.06517 404.866 2.00635C404.866 2.00631 404.866 2.00627 404.866 2.00623C404.866 2.00618 404.866 2.00614 404.866 2.0061C404.866 2.00606 404.866 2.00602 404.866 2.00597C404.866 2.00593 404.866 2.00589 404.866 2.00585C404.837 1.96464 404.893 2.04602 404.865 2.00481C404.855 1.99065 404.874 2.01872 404.865 2.00455C404.865 2.00451 404.865 2.00446 404.865 2.00442C404.865 2.00437 404.864 2.00433 404.864 2.00429C404.839 1.96777 404.889 2.04054 404.864 2.00402C404.863 2.00181 404.866 2.00596 404.864 2.00375C404.864 2.00371 404.864 2.00366 404.864 2.00362C404.864 2.00358 404.864 2.00353 404.864 2.00349C404.853 1.98774 404.875 2.01897 404.864 2.00322C404.835 1.96152 404.892 2.04438 404.863 2.00268C404.863 2.00263 404.863 2.00259 404.863 2.00254C404.863 2.00249 404.863 2.00245 404.863 2.0024C404.863 2.00236 404.863 2.00231 404.863 2.00227C404.863 2.00222 404.863 2.00218 404.863 2.00213C404.863 2.00209 404.863 2.00204 404.863 2.00199C404.863 2.00195 404.863 2.0019 404.863 2.00186C404.863 2.00181 404.863 2.00177 404.863 2.00172C404.863 2.00168 404.863 2.00163 404.863 2.00158C404.851 1.98412 404.874 2.01877 404.862 2.00131C404.862 2.00126 404.862 2.00122 404.862 2.00117C404.862 2.00113 404.862 2.00108 404.862 2.00104C404.862 2.00099 404.862 2.00094 404.862 2.0009C404.862 2.00085 404.862 2.00081 404.862 2.00076C404.849 1.98239 404.875 2.01885 404.862 2.00049C404.86 1.99851 404.863 2.00219 404.862 2.00021C404.846 1.97788 404.877 2.02227 404.861 1.99994C404.861 1.99989 404.861 1.99985 404.861 1.9998C404.861 1.99975 404.861 1.99971 404.861 1.99966C404.861 1.99962 404.861 1.99957 404.861 1.99953C404.861 1.99948 404.861 1.99943 404.861 1.99939C404.852 1.98609 404.87 2.01214 404.861 1.99884C404.861 1.9988 404.861 1.99875 404.861 1.99871C404.861 1.99866 404.861 1.99862 404.861 1.99857C404.86 1.99852 404.86 1.99848 404.86 1.99843C404.86 1.99839 404.86 1.99834 404.86 1.9983C404.86 1.99825 404.86 1.99821 404.86 1.99816C404.86 1.99812 404.86 1.99807 404.86 1.99803C404.86 1.99798 404.86 1.99794 404.86 1.99789C404.86 1.99785 404.86 1.9978 404.86 1.99776C404.86 1.99771 404.86 1.99767 404.86 1.99762C404.86 1.99758 404.86 1.99753 404.86 1.99749C404.86 1.99744 404.86 1.9974 404.86 1.99735C404.86 1.99731 404.86 1.99726 404.86 1.99722C404.854 1.9897 404.864 2.0042 404.859 1.99669C404.859 1.99664 404.859 1.9966 404.859 1.99656C404.859 1.99651 404.859 1.99647 404.859 1.99642C404.859 1.99638 404.859 1.99634 404.859 1.99629C404.859 1.99625 404.859 1.9962 404.859 1.99616C404.848 1.98091 404.869 2.01089 404.859 1.99564C404.858 1.9956 404.858 1.99555 404.858 1.99551C404.858 1.99547 404.858 1.99543 404.858 1.99538C404.858 1.99534 404.858 1.9953 404.858 1.99526C404.858 1.99521 404.858 1.99517 404.858 1.99513C404.858 1.99509 404.858 1.99504 404.858 1.995C404.858 1.99496 404.858 1.99492 404.858 1.99487C404.833 1.95914 404.882 2.03035 404.858 1.99462C404.858 1.99458 404.858 1.99454 404.858 1.9945C404.858 1.99446 404.858 1.99441 404.858 1.99437C404.858 1.99433 404.858 1.99429 404.858 1.99425C404.858 1.99421 404.857 1.99417 404.857 1.99413C404.857 1.99409 404.857 1.99404 404.857 1.994C404.857 1.99396 404.857 1.99392 404.857 1.99388C404.857 1.99384 404.857 1.9938 404.857 1.99376C404.857 1.99372 404.857 1.99368 404.857 1.99364C404.851 1.98454 404.863 2.00226 404.857 1.99316C404.857 1.99312 404.857 1.99309 404.857 1.99305C404.857 1.99301 404.857 1.99297 404.857 1.99293C404.857 1.99289 404.857 1.99285 404.857 1.99281C404.857 1.99278 404.856 1.99274 404.856 1.9927C404.856 1.99266 404.856 1.99262 404.856 1.99259C404.856 1.99255 404.856 1.99251 404.856 1.99247C404.856 1.99243 404.856 1.9924 404.856 1.99236C404.856 1.99232 404.856 1.99228 404.856 1.99225C404.856 1.99221 404.856 1.99217 404.856 1.99214C404.856 1.9921 404.856 1.99206 404.856 1.99203C404.856 1.99199 404.856 1.99195 404.856 1.99192C404.856 1.99188 404.856 1.99184 404.856 1.99181C404.856 1.99177 404.856 1.99173 404.856 1.9917C404.856 1.99166 404.856 1.99163 404.856 1.99159C404.856 1.99156 404.856 1.99152 404.856 1.99149C404.856 1.99145 404.856 1.99142 404.856 1.99138C404.856 1.99135 404.856 1.99131 404.855 1.99128C404.855 1.99124 404.855 1.99121 404.855 1.99117C404.832 1.95734 404.879 2.0248 404.855 1.99097C404.847 1.97911 404.863 2.00243 404.855 1.99057C404.814 1.93163 404.896 2.04932 404.855 1.99038C404.855 1.99035 404.855 1.99032 404.855 1.99029C404.855 1.99025 404.855 1.99022 404.855 1.99019C404.855 1.99016 404.855 1.99013 404.855 1.9901C404.855 1.99007 404.855 1.99004 404.855 1.99001C404.855 1.98998 404.855 1.98995 404.855 1.98992C404.855 1.98989 404.855 1.98986 404.854 1.98983C404.854 1.9898 404.854 1.98977 404.854 1.98974C404.854 1.98971 404.854 1.98968 404.854 1.98965C404.854 1.98963 404.854 1.9896 404.854 1.98957C404.854 1.98954 404.854 1.98951 404.854 1.98948C404.854 1.98946 404.854 1.98943 404.854 1.9894C404.854 1.98937 404.854 1.98935 404.854 1.98932C404.854 1.98929 404.854 1.98926 404.854 1.98924C404.854 1.98921 404.854 1.98918 404.854 1.98916C404.854 1.98913 404.854 1.9891 404.854 1.98908C404.854 1.98905 404.854 1.98903 404.854 1.989C404.844 1.97392 404.864 2.00393 404.854 1.98885C404.854 1.98882 404.854 1.9888 404.854 1.98877C404.854 1.98875 404.854 1.98873 404.854 1.9887C404.854 1.98868 404.854 1.98865 404.854 1.98863C404.854 1.98861 404.854 1.98858 404.854 1.98856C404.854 1.98854 404.854 1.98852 404.854 1.98849C404.854 1.98847 404.854 1.98845 404.854 1.98843C404.854 1.9884 404.853 1.98838 404.853 1.98836C404.853 1.98834 404.853 1.98832 404.853 1.98829C404.847 1.97936 404.859 1.99697 404.853 1.98805C404.817 1.93605 404.889 2.03993 404.853 1.98794C404.853 1.98792 404.853 1.9879 404.853 1.98788C404.853 1.98786 404.853 1.98784 404.853 1.98783C404.853 1.98781 404.853 1.98779 404.853 1.98777C404.853 1.98776 404.853 1.98774 404.853 1.98772C404.853 1.98771 404.853 1.98769 404.853 1.98768C404.853 1.98766 404.853 1.98764 404.853 1.98763C404.821 1.94085 404.885 2.03422 404.853 1.98745C404.853 1.98744 404.853 1.98743 404.853 1.98741C404.853 1.9874 404.853 1.98739 404.853 1.98737C404.853 1.98736 404.853 1.98735 404.853 1.98734C404.853 1.98733 404.853 1.98731 404.853 1.9873C404.853 1.98729 404.853 1.98728 404.853 1.98727C404.853 1.98726 404.853 1.98725 404.853 1.98724C404.853 1.98723 404.853 1.98722 404.853 1.98721C404.853 1.9872 404.853 1.98719 404.853 1.98718C404.853 1.98717 404.853 1.98716 404.853 1.98715C404.853 1.98714 404.853 1.98713 404.853 1.98713C404.853 1.98712 404.853 1.98711 404.853 1.9871C404.853 1.98709 404.853 1.98709 404.853 1.98708C404.853 1.98707 404.853 1.98707 404.853 1.98706C404.853 1.98705 404.853 1.98705 404.853 1.98704C404.853 1.98704 404.853 1.98703 404.853 1.98703C404.853 1.98702 404.853 1.98701 404.853 1.98701C404.853 1.98701 404.853 1.987 404.853 1.987C404.853 1.98699 404.853 1.98699 404.853 1.98699C404.845 1.97652 404.86 1.99743 404.853 1.98697C404.853 1.98697 404.853 1.98696 404.853 1.98696C404.853 1.98696 404.853 1.98696 404.853 1.98696C404.853 1.98696 404.853 1.98696 404.853 1.98696C404.853 1.98695 404.029 3.55469 403.206 3.12242C403.206 3.12242 403.206 3.12242 403.206 3.12242C403.206 3.12242 403.206 3.12242 403.206 3.12243C403.206 3.12243 403.206 3.12243 403.206 3.12243C403.206 3.12243 403.206 3.12243 403.206 3.12244C403.206 3.12244 403.206 3.12244 403.206 3.12245C403.206 3.12245 403.206 3.12245 403.206 3.12246C403.206 3.12246 403.206 3.12246 403.206 3.12247C403.206 3.12247 403.206 3.12248 403.206 3.12248C403.206 3.12249 403.206 3.12249 403.206 3.1225C403.206 3.12251 403.206 3.12251 403.206 3.12252C403.226 3.15182 403.186 3.09326 403.206 3.12256C403.206 3.12257 403.206 3.12258 403.206 3.12259C403.206 3.1226 403.206 3.1226 403.206 3.12261C403.206 3.12262 403.206 3.12263 403.206 3.12264C403.206 3.12265 403.206 3.12266 403.206 3.12267C403.206 3.12268 403.206 3.12269 403.206 3.12271C403.206 3.12272 403.206 3.12273 403.206 3.12274C403.206 3.12275 403.206 3.12277 403.206 3.12278C403.206 3.12279 403.206 3.1228 403.206 3.12282C403.216 3.13692 403.197 3.10879 403.206 3.1229C403.223 3.14697 403.19 3.09893 403.206 3.12299C403.206 3.12301 403.207 3.12303 403.207 3.12304C403.207 3.12306 403.207 3.12308 403.207 3.1231C403.207 3.12311 403.207 3.12313 403.207 3.12315C403.207 3.12317 403.207 3.12319 403.207 3.12321C403.207 3.12323 403.207 3.12324 403.207 3.12326C403.207 3.12328 403.207 3.1233 403.207 3.12333C403.207 3.12335 403.207 3.12337 403.207 3.12339C403.207 3.12341 403.207 3.12343 403.207 3.12345C403.207 3.12348 403.207 3.1235 403.207 3.12352C403.207 3.12354 403.207 3.12357 403.207 3.12359C403.207 3.12361 403.207 3.12364 403.207 3.12366C403.207 3.12369 403.207 3.12371 403.207 3.12374C403.207 3.12376 403.207 3.12379 403.207 3.12381C403.207 3.12384 403.207 3.12387 403.207 3.12389C403.207 3.12392 403.207 3.12395 403.207 3.12397C403.207 3.124 403.207 3.12403 403.207 3.12406C403.209 3.12694 403.205 3.12135 403.207 3.12423C403.237 3.16773 403.177 3.08092 403.207 3.12442C403.207 3.12445 403.208 3.12448 403.208 3.12451C403.208 3.12454 403.208 3.12458 403.208 3.12461C403.208 3.12464 403.208 3.12468 403.208 3.12471C403.208 3.12474 403.208 3.12478 403.208 3.12481C403.208 3.12485 403.208 3.12488 403.208 3.12492C403.208 3.12495 403.208 3.12499 403.208 3.12503C403.208 3.12506 403.208 3.1251 403.208 3.12514C403.208 3.12517 403.208 3.12521 403.208 3.12525C403.208 3.12529 403.208 3.12533 403.208 3.12537C403.208 3.1254 403.208 3.12544 403.208 3.12548C403.208 3.12552 403.208 3.12556 403.208 3.1256C403.208 3.12564 403.208 3.12569 403.208 3.12573C403.22 3.14308 403.197 3.10862 403.209 3.12598C403.247 3.18172 403.17 3.0705 403.209 3.12624C403.229 3.15584 403.188 3.09692 403.209 3.12652C403.209 3.12657 403.209 3.12661 403.209 3.12666C403.209 3.12671 403.209 3.12676 403.209 3.1268C403.209 3.12685 403.209 3.1269 403.209 3.12695C403.209 3.127 403.209 3.12705 403.209 3.1271C403.22 3.14216 403.199 3.11234 403.21 3.12741C403.21 3.12746 403.21 3.12751 403.21 3.12756C403.21 3.12762 403.21 3.12767 403.21 3.12772C403.21 3.12778 403.21 3.12783 403.21 3.12789C403.21 3.12794 403.21 3.128 403.21 3.12805C403.21 3.12811 403.21 3.12816 403.21 3.12822C403.21 3.12828 403.21 3.12833 403.21 3.12839C403.21 3.12845 403.21 3.12851 403.21 3.12857C403.21 3.12862 403.21 3.12868 403.21 3.12874C403.21 3.1288 403.211 3.12886 403.211 3.12892C403.211 3.12898 403.211 3.12904 403.211 3.1291C403.211 3.12917 403.211 3.12923 403.211 3.12929C403.211 3.12935 403.211 3.12941 403.211 3.12948C403.211 3.12954 403.211 3.1296 403.211 3.12967C403.211 3.12973 403.211 3.1298 403.211 3.12986C403.211 3.12993 403.211 3.12999 403.211 3.13006C403.211 3.13013 403.211 3.13019 403.211 3.13026C403.212 3.13033 403.212 3.13039 403.212 3.13046C403.212 3.13053 403.212 3.1306 403.212 3.13067C403.212 3.13074 403.212 3.13081 403.212 3.13088C403.212 3.13094 403.212 3.13102 403.212 3.13109C403.212 3.13116 403.212 3.13123 403.212 3.1313C403.212 3.13137 403.212 3.13144 403.212 3.13152C403.212 3.13159 403.212 3.13166 403.213 3.13174C403.213 3.13181 403.213 3.13189 403.213 3.13196C403.239 3.17073 403.187 3.09502 403.214 3.13386C403.214 3.13394 403.214 3.13402 403.214 3.13411C403.214 3.13419 403.214 3.13428 403.214 3.13436C403.214 3.13445 403.214 3.13453 403.214 3.13462C403.215 3.13471 403.215 3.13479 403.215 3.13488C403.215 3.13497 403.215 3.13505 403.215 3.13514C403.215 3.13523 403.215 3.13532 403.215 3.13541C403.215 3.1355 403.215 3.13559 403.215 3.13568C403.215 3.13577 403.215 3.13586 403.215 3.13595L404.039 2.56822Z" fill="#013E5A" mask="url(#path-11-inside-2_283_68)"/>
</g>
<defs>
<linearGradient id="paint0_linear_283_68" x1="525.252" y1="91.7554" x2="482.199" y2="91.4229" gradientUnits="userSpaceOnUse">
<stop offset="0.5" stop-color="#BCBCBC"/>
<stop offset="1" stop-color="#257EA7"/>
</linearGradient>
<linearGradient id="paint1_linear_283_68" x1="307.538" y1="91.7507" x2="263.759" y2="91.407" gradientUnits="userSpaceOnUse">
<stop offset="0.5" stop-color="#BCBCBC"/>
<stop offset="1" stop-color="#257EA7"/>
</linearGradient>
<linearGradient id="paint2_linear_283_68" x1="598.554" y1="48.1126" x2="569.683" y2="47.8227" gradientUnits="userSpaceOnUse">
<stop offset="0.5" stop-color="#BCBCBC"/>
<stop offset="1" stop-color="#257EA7"/>
</linearGradient>
<linearGradient id="paint3_linear_283_68" x1="144.621" y1="91.7353" x2="76.0342" y2="90.8941" gradientUnits="userSpaceOnUse">
<stop offset="0.5" stop-color="#BCBCBC"/>
<stop offset="1" stop-color="#257EA7"/>
</linearGradient>
<linearGradient id="paint4_linear_283_68" x1="784.118" y1="91.7445" x2="721.894" y2="91.0523" gradientUnits="userSpaceOnUse">
<stop offset="0.5" stop-color="#BCBCBC"/>
<stop offset="1" stop-color="#257EA7"/>
</linearGradient>
<linearGradient id="paint5_linear_283_68" x1="389.4" y1="76.7375" x2="356.374" y2="76.5039" gradientUnits="userSpaceOnUse">
<stop offset="0.5" stop-color="#BCBCBC"/>
<stop offset="1" stop-color="#257EA7"/>
</linearGradient>
<linearGradient id="paint6_linear_283_68" x1="396.576" y1="0.627776" x2="382.235" y2="-5.69117" gradientUnits="userSpaceOnUse">
<stop offset="0.5" stop-color="#BCBCBC"/>
<stop offset="1" stop-color="#257EA7"/>
</linearGradient>
<linearGradient id="paint7_linear_283_68" x1="143.809" y1="91.7423" x2="76.1598" y2="90.9179" gradientUnits="userSpaceOnUse">
<stop offset="0.5" stop-color="#BCBCBC"/>
<stop offset="1" stop-color="#257EA7"/>
</linearGradient>
<linearGradient id="paint8_linear_283_68" x1="783.848" y1="91.7563" x2="722.396" y2="91.0766" gradientUnits="userSpaceOnUse">
<stop offset="0.5" stop-color="#BCBCBC"/>
<stop offset="1" stop-color="#257EA7"/>
</linearGradient>
<linearGradient id="paint9_linear_283_68" x1="388.076" y1="76.7432" x2="356.135" y2="76.5218" gradientUnits="userSpaceOnUse">
<stop offset="0.5" stop-color="#BCBCBC"/>
<stop offset="1" stop-color="#257EA7"/>
</linearGradient>
<linearGradient id="paint10_linear_283_68" x1="404.044" y1="2.56714" x2="404.037" y2="2.56707" gradientUnits="userSpaceOnUse">
<stop offset="0.5" stop-color="#BCBCBC"/>
<stop offset="1" stop-color="#257EA7"/>
</linearGradient>
</defs>
</svg>
