<svg width="140" height="44" viewBox="0 0 140 44" fill="none" xmlns="http://www.w3.org/2000/svg">
<g clip-path="url(#clip0_283_39)">
<mask id="mask0_283_39" style="mask-type:luminance" maskUnits="userSpaceOnUse" x="0" y="0" width="140" height="44">
<path d="M140 0L0.0126953 0L0.0126953 43.311L140 43.311V0Z" fill="white"/>
</mask>
<g mask="url(#mask0_283_39)">
<path d="M87.6856 22.6317C88.2613 23.7546 88.8274 24.8622 89.4002 25.9662C89.826 26.787 90.2645 27.6015 90.6908 28.4221C90.9683 28.9563 91.2423 29.4926 91.5 30.0365C91.5696 30.1832 91.601 30.3612 91.6015 30.525C91.6078 33.3198 91.6058 36.1146 91.6058 38.9094C91.6058 39.2814 91.5817 39.3047 91.2071 39.3047C89.3625 39.3048 87.5184 39.3048 85.6738 39.3047C85.3219 39.3047 85.2847 39.2687 85.2842 38.9186C85.2842 36.3251 85.259 33.7313 85.3035 31.1386C85.3137 30.5472 85.1048 30.0846 84.8617 29.6019C84.5122 28.907 84.1531 28.2168 83.7992 27.524C83.4193 26.7803 83.0393 26.0368 82.6628 25.2917C82.2026 24.3814 81.7487 23.468 81.2866 22.5587C80.8351 21.6711 80.3745 20.7887 79.923 19.9012C79.4787 19.0272 79.0442 18.1481 78.6 17.274C77.9595 16.0145 77.3132 14.7582 76.6717 13.4994C76.3044 12.7778 75.9423 12.0532 75.5745 11.3319C75.4904 11.1679 75.5339 11.0882 75.7137 11.0768C75.7698 11.0733 75.8263 11.0745 75.8824 11.0745C77.711 11.0743 79.5392 11.0776 81.3673 11.0703C81.6235 11.0693 81.7671 11.1492 81.8903 11.3903C82.7522 13.0796 83.6368 14.7572 84.5074 16.4422C84.9303 17.2616 85.3325 18.092 85.7545 18.9121C86.2848 19.9419 86.8257 20.966 87.3613 21.9929C87.4691 22.1993 87.573 22.4075 87.6856 22.6317Z" fill="#003952"/>
<path d="M51.0683 30.829C50.7831 30.0405 50.5023 29.2706 50.2224 28.5003C49.929 27.6923 49.6375 26.8833 49.3427 26.0758C49.1411 25.5247 48.9347 24.9755 48.7312 24.4253C48.446 23.6569 48.1592 22.8892 47.8773 22.1197C47.5567 21.2446 47.241 20.3678 46.9226 19.4921C46.3626 17.9514 45.8056 16.4097 45.2407 14.8708C44.8253 13.7391 44.4005 12.6108 43.9775 11.4819C43.8507 11.1436 43.8982 11.0707 44.2657 11.0706C46.054 11.0702 47.8423 11.0703 49.6307 11.0704C49.9648 11.0705 50.0189 11.1228 50.132 11.4382C50.4936 12.444 50.8648 13.4462 51.2307 14.4504C51.5227 15.2508 51.8098 16.0526 52.1028 16.8526C52.4479 17.7962 52.7983 18.7378 53.144 19.6812C53.506 20.6698 53.8647 21.6597 54.2263 22.6484C54.5245 23.4635 54.8281 24.2768 55.1244 25.0926C55.4125 25.8858 55.6924 26.682 55.9805 27.4754C56.183 28.0347 56.3933 28.5912 56.5992 29.1493C56.8887 29.9334 57.1788 30.7173 57.4659 31.5022C57.8391 32.5213 58.2098 33.5412 58.581 34.5609C58.933 35.5276 59.2824 36.4951 59.6358 37.4612C59.8185 37.9596 60.0041 38.4568 60.1936 38.9524C60.3106 39.258 60.2869 39.3013 59.9563 39.3015C58.2973 39.3026 56.6379 39.3018 54.9784 39.3017C54.8817 39.3017 54.7851 39.3033 54.6884 39.3015C54.1562 39.2915 54.2035 39.4147 53.9643 38.7483C53.7443 38.1359 53.5128 37.5274 53.2895 36.9162C53.071 36.3201 52.8583 35.7221 52.6398 35.1262C52.2826 34.1532 51.9215 33.1816 51.5643 32.2087C51.398 31.7558 51.2365 31.3012 51.0683 30.829Z" fill="#003952"/>
<path d="M98.8223 15.956C98.5894 16.4063 98.3631 16.8398 98.1427 17.2764C97.669 18.2153 97.1991 19.1563 96.7259 20.0955C96.0313 21.4732 95.3357 22.8502 94.6396 24.2271C94.4294 24.6429 94.2138 25.0561 94.004 25.4722C93.9257 25.6272 93.7836 25.6593 93.656 25.6006C93.2069 25.3939 92.7221 25.2257 92.3334 24.9333C91.4759 24.2884 90.9804 23.3892 90.6933 22.3558C90.5033 21.6729 90.4782 20.9772 90.4183 20.2826C90.4086 20.1712 90.4555 20.0438 90.5082 19.9401C91.022 18.9302 91.5455 17.9252 92.0603 16.9157C92.4615 16.1284 92.8526 15.3359 93.2509 14.5472C93.7831 13.4943 94.3211 12.4446 94.8485 11.3892C94.9669 11.1521 95.1225 11.0606 95.3966 11.0625C97.2248 11.075 99.0534 11.0675 100.882 11.0719C100.986 11.0721 101.091 11.12 101.196 11.1456C101.162 11.2451 101.139 11.35 101.093 11.4431C100.81 12.0099 100.521 12.5735 100.236 13.1391C99.8848 13.8349 99.5348 14.5313 99.1854 15.2278C99.0664 15.4649 98.9495 15.7031 98.8223 15.956Z" fill="#003952"/>
<path d="M25.3377 39.3478C21.3029 39.3485 17.2918 39.3493 13.2807 39.3498C12.8807 39.3498 12.8726 39.3414 12.8726 38.9466C12.8725 29.7888 12.8725 20.6309 12.8726 11.4731C12.8727 11.0503 12.8959 11.0275 13.3286 11.0276C17.372 11.0281 21.4153 11.0239 25.4586 11.0368C25.8965 11.0383 26.3328 11.1596 26.7723 11.1896C27.3774 11.231 27.9507 11.3983 28.526 11.5677C29.0313 11.7164 29.5439 11.8432 30.0424 12.012C30.3274 12.1086 30.5975 12.2573 30.8624 12.4041C31.5978 12.8119 32.3563 13.1874 33.0507 13.657C33.8442 14.1936 34.4988 14.898 35.1431 15.6108C35.7959 16.333 36.3125 17.1429 36.7865 17.9803C37.0494 18.4448 37.2386 18.9535 37.4348 19.4525C37.6183 19.9193 37.7974 20.3919 37.9234 20.8762C38.0623 21.4098 38.1669 21.9561 38.2353 22.5033C38.3399 23.3393 38.4247 24.1793 38.4709 25.0202C38.4989 25.5317 38.4582 26.0497 38.4129 26.5617C38.3591 27.169 38.2969 27.7787 38.1829 28.3767C38.0798 28.9175 37.9195 29.4495 37.7518 29.975C37.6133 30.4088 37.4483 30.837 37.257 31.2501C37.0056 31.7932 36.7397 32.3322 36.4395 32.8494C35.883 33.8082 35.1651 34.6481 34.3785 35.4213C33.5689 36.217 32.6821 36.9229 31.6649 37.4456C31.069 37.7519 30.4735 38.0601 29.8667 38.3435C29.6233 38.4572 29.3495 38.5055 29.0902 38.5855C28.8922 38.6467 28.6969 38.7173 28.4973 38.7725C28.081 38.8877 27.6652 39.007 27.2441 39.1015C27.0193 39.1519 26.7832 39.1491 26.5534 39.1793C26.1555 39.2317 25.7586 39.2912 25.3377 39.3478ZM25.0243 39.2077C25.4295 39.1592 25.8362 39.1208 26.2395 39.0599C26.7926 38.9762 27.3498 38.9033 27.893 38.7742C28.4191 38.6491 28.9367 38.4778 29.4452 38.2918C30.0061 38.0866 30.5636 37.8647 31.1015 37.6063C31.5177 37.4063 31.8965 37.1298 32.3009 36.9033C33.0737 36.4707 33.7281 35.8856 34.3473 35.2689C35.0525 34.5665 35.7138 33.8164 36.2096 32.9448C36.5412 32.3619 36.8501 31.7646 37.1371 31.1585C37.3065 30.8007 37.4274 30.4176 37.5451 30.0382C37.725 29.4585 37.8969 28.8756 38.0441 28.2871C38.1057 28.0409 38.0542 27.7646 38.1257 27.5231C38.2864 26.98 38.3036 26.4293 38.295 25.8735C38.2832 25.1093 38.2773 24.3445 38.2435 23.5812C38.2288 23.2473 38.1576 22.9151 38.1011 22.584C38.0164 22.088 37.9294 21.5922 37.8286 21.0993C37.7792 20.8574 37.7099 20.6176 37.6266 20.385C37.4568 19.9105 37.2784 19.4389 37.0902 18.9713C36.9653 18.6608 36.8467 18.3416 36.6735 18.0579C36.2858 17.4232 35.9176 16.7654 35.4459 16.1961C34.8377 15.4621 34.1362 14.8052 33.4741 14.1158C33.4523 14.0932 33.4218 14.0785 33.3946 14.0614C32.8186 13.6992 32.2489 13.3264 31.6638 12.9794C31.3488 12.7925 31.012 12.64 30.6769 12.4901C30.322 12.3313 29.9606 12.1853 29.5961 12.0499C29.2692 11.9285 28.9383 11.8142 28.6017 11.7242C28.2486 11.6298 27.8824 11.5843 27.5297 11.489C26.7674 11.283 25.9844 11.1851 25.2051 11.1801C21.4599 11.1561 17.7144 11.1685 13.9689 11.1657C13.7442 11.1655 13.5194 11.1478 13.2948 11.1342C13.1212 11.1236 13.0071 11.1586 13.0474 11.3746C13.0678 11.4841 13.0613 11.5993 13.0613 11.7118C13.0618 20.6928 13.0618 29.6737 13.0612 38.6546C13.0612 38.7752 13.065 38.8978 13.0454 39.0159C13.0114 39.2201 13.1239 39.2521 13.2839 39.2442C13.5166 39.2327 13.7493 39.2119 13.9821 39.2117C17.647 39.2088 21.3118 39.2086 25.0243 39.2077Z" fill="#003952"/>
<path d="M116.167 39.3476C113.259 39.3476 110.375 39.3477 107.49 39.3476C107.075 39.3476 107.036 39.3104 107.036 38.8925C107.036 29.7406 107.036 20.5887 107.036 11.4369C107.036 11.0596 107.073 11.0234 107.452 11.0235C111.875 11.024 116.298 11.0208 120.721 11.0327C121.136 11.0339 121.551 11.1269 121.964 11.1856C122.48 11.2588 123.003 11.3048 123.507 11.4291C124.008 11.5529 124.497 11.7378 124.976 11.9355C125.403 12.1121 125.825 12.3156 126.219 12.5554C127.042 13.0553 127.801 13.6348 128.324 14.4702C128.648 14.9864 128.928 15.5143 129.111 16.105C129.302 16.7191 129.353 17.3505 129.431 17.9755C129.476 18.3306 129.343 18.7055 129.312 19.0733C129.256 19.7246 129.035 20.3268 128.75 20.901C128.27 21.8664 127.611 22.6901 126.679 23.2601C126.298 23.4933 125.9 23.7062 125.491 23.8844C125.119 24.0462 124.722 24.1478 124.336 24.2781C124.311 24.2868 124.291 24.3144 124.233 24.3637C124.339 24.3968 124.41 24.4206 124.483 24.4412C125.053 24.6036 125.645 24.7127 126.186 24.9425C126.711 25.1653 127.211 25.4747 127.671 25.8154C128.054 26.0997 128.404 26.4526 128.693 26.8328C129.06 27.3144 129.399 27.8307 129.657 28.376C129.904 28.897 130.046 29.4701 130.205 30.0288C130.267 30.2487 130.264 30.4913 130.265 30.7237C130.266 31.3732 130.278 32.0242 130.238 32.6716C130.213 33.0748 130.157 33.494 130.016 33.8681C129.753 34.5613 129.475 35.2507 129.015 35.8557C128.305 36.7904 127.419 37.4943 126.387 38.0385C125.747 38.3762 125.081 38.6333 124.383 38.8159C124.02 38.9108 123.666 39.0509 123.298 39.1218C122.787 39.2204 122.267 39.3285 121.75 39.3358C119.897 39.3618 118.044 39.3469 116.167 39.3476ZM126.99 22.8868C127.101 22.7948 127.216 22.7067 127.323 22.61C127.885 22.1031 128.295 21.4836 128.635 20.8157C128.718 20.6529 128.775 20.4747 128.827 20.2989C128.947 19.9023 129.113 19.5087 129.156 19.1029C129.214 18.5419 129.353 17.9722 129.176 17.403C129.151 17.322 129.185 17.2242 129.169 17.1387C129.087 16.7232 129.038 16.2957 128.901 15.8984C128.77 15.517 128.584 15.1413 128.354 14.8103C128.032 14.346 127.698 13.8659 127.274 13.5015C126.764 13.0613 126.163 12.721 125.584 12.3649C125.287 12.1819 124.961 12.0356 124.633 11.9151C124.335 11.8061 124.018 11.7497 123.708 11.6791C123.212 11.5661 122.717 11.4442 122.216 11.3579C121.917 11.3064 121.607 11.3217 121.303 11.2961C120.647 11.241 119.993 11.1305 119.337 11.1278C115.438 11.1117 111.539 11.1198 107.64 11.1199C107.224 11.1199 107.223 11.1201 107.223 11.5349C107.223 20.6302 107.223 29.7254 107.223 38.8207C107.223 39.251 107.223 39.2511 107.648 39.2511C111.934 39.2511 116.22 39.2638 120.506 39.2402C121.345 39.2356 122.185 39.1135 123.019 39.0009C123.451 38.9426 123.873 38.7952 124.295 38.6724C124.77 38.534 125.257 38.4162 125.708 38.219C126.174 38.0157 126.595 37.7144 127.048 37.4803C127.534 37.2288 127.95 36.886 128.3 36.4801C128.676 36.046 129.063 35.6 129.325 35.0968C129.61 34.55 129.768 33.9349 129.961 33.3433C130.268 32.4082 130.155 31.4427 130.096 30.4921C130.066 30.0058 129.908 29.518 129.747 29.0519C129.573 28.5482 129.377 28.0398 129.103 27.586C128.661 26.8519 128.058 26.2477 127.365 25.7346C126.844 25.3491 126.266 25.0785 125.658 24.882C125.149 24.7177 124.619 24.6202 124.102 24.4806C124.018 24.458 123.952 24.3703 123.878 24.3126C123.96 24.265 124.037 24.1899 124.124 24.1743C124.637 24.0822 125.131 23.9277 125.595 23.6937C126.064 23.4568 126.558 23.259 126.99 22.8868Z" fill="#003952"/>
<path d="M71.2557 11.0195C71.4099 11.2268 71.2426 11.4059 71.1827 11.5765C70.8805 12.4385 70.5572 13.2931 70.2367 14.1486C69.9447 14.928 69.6416 15.7033 69.3531 16.4839C69.1307 17.0847 68.9301 17.6935 68.7073 18.2941C68.4791 18.9097 68.2316 19.5181 68.0006 20.1327C67.8483 20.5378 67.7154 20.9499 67.5655 21.3558C67.3383 21.9718 67.1015 22.5844 66.8723 23.1996C66.7157 23.62 66.5659 24.043 66.4102 24.4637C66.1797 25.0869 65.9457 25.7086 65.7151 26.3318C65.4957 26.9256 65.2801 27.5209 65.0606 28.1147C64.8272 28.7452 64.5888 29.3739 64.3563 30.0047C64.1345 30.6061 63.9208 31.2102 63.698 31.8111C63.4698 32.4267 63.2301 33.0379 63.0058 33.6548C62.9023 33.9393 62.8206 34.2318 62.7351 34.5225C62.6969 34.6531 62.6321 34.708 62.5098 34.623C61.5909 33.9848 60.6836 33.3283 60.1137 32.3309C59.8048 31.7901 59.4747 31.2467 59.2726 30.6635C59.0725 30.0862 58.9328 29.4664 59.0125 28.8382C59.0401 28.6195 59.1363 28.4089 59.2064 28.1962C59.4365 27.4956 59.6714 26.7963 59.9005 26.0952C60.0649 25.5926 60.2196 25.0867 60.3854 24.5845C60.5454 24.0981 60.717 23.6154 60.8784 23.1294C61.0321 22.6658 61.1781 22.1995 61.3304 21.7354C61.4971 21.2263 61.6687 20.7187 61.8365 20.2097C61.9863 19.7531 62.1333 19.2953 62.2826 18.8384C62.4542 18.313 62.6273 17.7882 62.7994 17.2629C62.9516 16.798 63.102 16.3325 63.2542 15.8677C63.4268 15.342 63.6027 14.8176 63.7734 14.2912C63.9358 13.7881 64.0871 13.2809 64.2548 12.7795C64.4482 12.2025 64.6541 11.6297 64.8707 11.0429C64.9669 11.0289 65.0476 11.0253 65.1278 11.0252C67.1706 11.0231 69.2129 11.0214 71.2557 11.0195ZM60.9683 23.3781C60.9321 23.4557 60.8842 23.5301 60.8615 23.6115C60.7808 23.898 60.7184 24.1898 60.6314 24.4742C60.5188 24.841 60.3907 25.203 60.2674 25.5664C60.1867 25.8054 60.1045 26.0441 60.019 26.2816C59.9155 26.5698 59.7971 26.8531 59.7057 27.1451C59.6173 27.4296 59.5564 27.7227 59.4805 28.0114C59.4727 28.0407 59.4408 28.0629 59.4292 28.092C59.3867 28.2007 59.3456 28.3102 59.3084 28.4208C59.2832 28.4954 59.2658 28.5727 59.2441 28.6485C59.2035 28.7903 59.1247 28.9331 59.129 29.0735C59.1426 29.5184 59.3852 29.9314 59.3272 30.3899C59.3267 30.3972 59.3311 30.4054 59.3345 30.4129C59.4466 30.6863 59.5414 30.9683 59.6743 31.231C59.8967 31.6696 60.0982 32.1301 60.3916 32.5182C60.7305 32.9664 61.1423 33.3654 61.5561 33.7493C61.8606 34.0317 62.2193 34.2556 62.5369 34.4927C62.637 34.2406 62.7269 34.0207 62.8115 33.7986C62.9255 33.4993 63.0372 33.199 63.1464 32.898C63.2325 32.6618 63.3151 32.4245 63.3963 32.1866C63.4819 31.9363 63.5554 31.6816 63.6496 31.4348C63.7463 31.1812 63.8686 30.9375 63.9677 30.6848C64.0914 30.3688 64.2046 30.0484 64.3201 29.7292C64.3998 29.5076 64.4801 29.2858 64.5531 29.062C64.6382 28.8025 64.7092 28.5384 64.7986 28.2806C64.9064 27.9694 65.0273 27.6625 65.1433 27.3541C65.1626 27.3028 65.1878 27.2536 65.2076 27.2026C65.2506 27.0953 65.2951 26.9886 65.3318 26.8792C65.3516 26.8197 65.3458 26.7503 65.371 26.694C65.4783 26.4525 65.6097 26.2202 65.7011 25.973C65.7954 25.7179 65.8534 25.4494 65.9288 25.1872C65.9351 25.1649 65.9544 25.1468 65.9636 25.125C66.0748 24.8607 66.1932 24.5992 66.2933 24.3309C66.3841 24.0885 66.4523 23.8379 66.5345 23.5922C66.5968 23.4074 66.6626 23.2239 66.7317 23.0414C66.8443 22.742 66.9608 22.4439 67.0754 22.1451C67.0947 22.0937 67.1116 22.041 67.1329 21.9902C67.2392 21.7346 67.3567 21.4829 67.4514 21.223C67.5404 20.9797 67.6037 20.7271 67.6835 20.4801C67.7357 20.3175 67.7898 20.1548 67.8555 19.9971C67.9561 19.7539 68.0721 19.517 68.1722 19.2735C68.2621 19.055 68.3457 18.8335 68.4187 18.6091C68.5038 18.3498 68.5647 18.0827 68.6531 17.8248C68.7643 17.5007 68.8919 17.1825 69.0137 16.8621C69.0277 16.8256 69.051 16.7928 69.0659 16.7566C69.1119 16.6433 69.1578 16.53 69.1993 16.4152C69.2206 16.3564 69.2269 16.2919 69.2501 16.234C69.3598 15.9598 69.4807 15.6898 69.5832 15.4129C69.6697 15.178 69.7287 14.9328 69.8142 14.6974C69.9264 14.3899 70.0569 14.0892 70.1714 13.7827C70.2517 13.5685 70.314 13.3477 70.3928 13.133C70.5098 12.8152 70.6345 12.5003 70.7544 12.1837C70.8322 11.9779 70.8883 11.7609 70.9888 11.5672C71.1198 11.3152 71.0536 11.1608 70.7655 11.1602C68.9374 11.1567 67.1087 11.1555 65.2806 11.1657C65.1718 11.1663 65.0137 11.2448 64.9649 11.3341C64.8542 11.5379 64.7977 11.7712 64.7179 11.992C64.6966 12.051 64.6676 12.1073 64.6464 12.1663C64.6058 12.2762 64.5661 12.3863 64.5304 12.4978C64.5067 12.5728 64.4936 12.6512 64.4695 12.7262C64.4269 12.8597 64.3781 12.9913 64.3346 13.1245C64.3148 13.1847 64.3061 13.2489 64.2838 13.308C64.178 13.588 64.0552 13.8625 63.9643 14.1473C63.872 14.4385 63.8101 14.7396 63.7323 15.0359C63.7246 15.0657 63.697 15.09 63.6859 15.1196C63.5815 15.3983 63.4664 15.674 63.378 15.9578C63.2866 16.2489 63.2223 16.5482 63.145 16.8434C63.1392 16.8656 63.1155 16.8827 63.1073 16.9048C63.0009 17.1905 62.8854 17.4734 62.7941 17.7639C62.7051 18.0457 62.6413 18.3354 62.5659 18.6214C62.562 18.6362 62.5461 18.6475 62.5408 18.6622C62.4929 18.7922 62.4455 18.9222 62.4001 19.0529C62.3769 19.1194 62.3595 19.1881 62.3358 19.2544C62.2942 19.3706 62.2469 19.4846 62.2087 19.6017C62.1864 19.669 62.184 19.7426 62.1623 19.8101C62.1154 19.9567 62.0617 20.1011 62.0119 20.2467C61.9936 20.299 61.9795 20.3525 61.9607 20.4046C61.9148 20.5352 61.8664 20.6652 61.82 20.7956C61.7935 20.8693 61.7693 20.9436 61.7437 21.0174C61.705 21.1276 61.6629 21.2368 61.6286 21.3482C61.6049 21.4236 61.6011 21.5054 61.573 21.5786C61.4686 21.8545 61.3434 22.1236 61.2525 22.4038C61.1515 22.7144 61.0795 23.0344 60.9683 23.3781Z" fill="#003952"/>
<path d="M71.2526 10.9912C69.2128 11.0141 67.1705 11.0159 65.1277 11.018C65.0475 11.0181 64.9667 11.0216 64.8648 11.0209C64.8411 10.8884 64.9044 10.8255 65.0344 10.829C65.0745 10.83 65.1147 10.8279 65.1548 10.8279C67.084 10.8278 69.0127 10.8269 70.9413 10.83C71.0583 10.8301 71.214 10.7769 71.2526 10.9912Z" fill="#003952"/>
<path d="M25.0017 39.2002C21.3131 39.2012 17.6482 39.2014 13.9834 39.2043C13.7506 39.2044 13.5178 39.2252 13.2851 39.2367C13.1252 39.2447 13.0127 39.2127 13.0466 39.0084C13.0662 38.8903 13.0625 38.7677 13.0625 38.6471C13.0631 29.6662 13.0631 20.6853 13.0626 11.7044C13.0626 11.5918 13.0691 11.4766 13.0487 11.3671C13.0084 11.1511 13.1225 11.1161 13.2961 11.1267C13.5206 11.1403 13.7455 11.158 13.9702 11.1582C17.7156 11.161 21.4611 11.1486 25.2064 11.1726C25.9857 11.1776 26.7686 11.2755 27.5309 11.4815C27.8837 11.5768 28.2499 11.6224 28.603 11.7167C28.9395 11.8067 29.2705 11.9211 29.5973 12.0424C29.9619 12.1778 30.3232 12.3238 30.6781 12.4826C31.0132 12.6325 31.35 12.785 31.6651 12.9719C32.2501 13.3189 32.8199 13.6917 33.3959 14.0539C33.4231 14.071 33.4536 14.0857 33.4754 14.1084C34.1375 14.7977 34.8389 15.4546 35.4472 16.1886C35.9188 16.7579 36.2871 17.4158 36.6747 18.0504C36.848 18.3341 36.9666 18.6534 37.0915 18.9638C37.2797 19.4314 37.4581 19.903 37.6279 20.3775C37.7111 20.6101 37.7805 20.8499 37.8299 21.0918C37.9306 21.5847 38.0177 22.0805 38.1024 22.5765C38.1589 22.9076 38.2301 23.2398 38.2448 23.5737C38.2786 24.3371 38.2844 25.1018 38.2962 25.866C38.3048 26.4218 38.2877 26.9726 38.127 27.5156C38.0555 27.7571 38.1069 28.0334 38.0454 28.2796C37.8982 28.8681 37.7262 29.451 37.5464 30.0307C37.4286 30.4101 37.3078 30.7932 37.1384 31.151C36.8514 31.7571 36.5425 32.3544 36.2109 32.9373C35.715 33.8089 35.0538 34.559 34.3486 35.2614C33.7293 35.8781 33.0749 36.4632 32.3022 36.8959C31.8978 37.1223 31.519 37.3989 31.1027 37.5988C30.5648 37.8572 30.0074 38.0791 29.4464 38.2843C28.9379 38.4703 28.4204 38.6416 27.8942 38.7667C27.3511 38.8959 26.7939 38.9688 26.2407 39.0524C25.8374 39.1133 25.4307 39.1517 25.0017 39.2002ZM31.7628 22.8497C31.5607 22.1978 31.4056 21.5262 31.1444 20.8989C30.8363 20.1593 30.4221 19.4731 29.8731 18.8683C29.311 18.2491 28.7042 17.6877 27.9759 17.2832C26.767 16.6117 25.4703 16.2623 24.0737 16.2821C22.5761 16.3034 21.078 16.2866 19.5801 16.2869C19.2185 16.287 19.2065 16.3003 19.2065 16.6737C19.2066 18.3568 19.2067 20.0399 19.2067 21.723C19.2066 25.6932 19.2065 29.6634 19.2066 33.6336C19.2067 33.9872 19.2369 34.0258 19.533 34.0285C21.2553 34.0445 22.9778 34.0786 24.7 34.0665C25.8019 34.0588 26.848 33.751 27.8216 33.2452C29.1362 32.5622 30.1215 31.5326 30.8261 30.2336C31.6174 28.7747 31.9728 27.2019 32.0041 25.5537C32.0211 24.6598 31.9511 23.769 31.7628 22.8497Z" fill="#003952"/>
<path d="M126.986 22.8978C126.567 23.2585 126.073 23.4562 125.604 23.6932C125.14 23.9272 124.646 24.0817 124.133 24.1737C124.045 24.1893 123.969 24.2644 123.887 24.3121C123.961 24.3697 124.027 24.4574 124.111 24.4801C124.628 24.6197 125.158 24.7172 125.667 24.8815C126.275 25.078 126.852 25.3485 127.373 25.734C128.067 26.2471 128.669 26.8513 129.112 27.5854C129.386 28.0392 129.582 28.5477 129.756 29.0513C129.917 29.5174 130.075 30.0052 130.105 30.4915C130.165 31.4421 130.277 32.4076 129.97 33.3427C129.776 33.9343 129.619 34.5494 129.334 35.0962C129.072 35.5994 128.684 36.0455 128.309 36.4795C127.958 36.8854 127.543 37.2282 127.056 37.4797C126.603 37.7138 126.182 38.0151 125.717 38.2184C125.266 38.4156 124.779 38.5334 124.304 38.6719C123.882 38.7947 123.46 38.942 123.028 39.0004C122.194 39.1129 121.353 39.2351 120.515 39.2396C116.229 39.2632 111.943 39.2506 107.657 39.2506C107.232 39.2506 107.232 39.2504 107.232 38.8201C107.232 29.7248 107.232 20.6296 107.232 11.5343C107.232 11.1196 107.232 11.1193 107.649 11.1193C111.548 11.1192 115.447 11.1111 119.346 11.1272C120.001 11.1299 120.656 11.2405 121.311 11.2955C121.615 11.3211 121.926 11.3058 122.225 11.3573C122.726 11.4437 123.221 11.5655 123.717 11.6786C124.027 11.7492 124.344 11.8055 124.641 11.9145C124.97 12.035 125.296 12.1813 125.593 12.3644C126.172 12.7204 126.773 13.0607 127.283 13.5009C127.707 13.8654 128.041 14.3455 128.363 14.8098C128.593 15.1407 128.779 15.5165 128.91 15.8978C129.046 16.2951 129.096 16.7226 129.177 17.1382C129.194 17.2237 129.16 17.3215 129.185 17.4025C129.362 17.9717 129.223 18.5414 129.164 19.1023C129.122 19.5081 128.956 19.9017 128.836 20.2983C128.784 20.4741 128.727 20.6523 128.644 20.8151C128.304 21.483 127.894 22.1025 127.332 22.6095C127.225 22.7061 127.11 22.7942 126.986 22.8978ZM113.373 30.1879C113.373 31.4362 113.373 32.6844 113.373 33.9327C113.373 34.2507 113.396 34.2727 113.719 34.2728C115.435 34.273 117.15 34.263 118.865 34.2766C119.736 34.2835 120.592 34.1916 121.401 33.8788C121.836 33.7108 122.284 33.4913 122.626 33.1837C123.459 32.4338 123.787 31.462 123.669 30.3381C123.537 29.0794 122.848 28.2272 121.728 27.7257C121.012 27.4053 120.241 27.2657 119.449 27.2664C117.533 27.268 115.616 27.2654 113.7 27.2653C113.402 27.2653 113.373 27.2955 113.373 27.6028C113.372 28.4484 113.373 29.294 113.373 30.1879ZM121.642 21.8779C122.103 21.5408 122.448 21.0985 122.632 20.5695C122.973 19.5904 122.964 18.6123 122.459 17.6736C122.189 17.1711 121.805 16.7646 121.304 16.5085C120.674 16.1869 119.99 16.0471 119.277 16.0493C117.425 16.055 115.572 16.0507 113.72 16.0507C113.399 16.0507 113.373 16.0758 113.373 16.3924C113.372 18.3495 113.372 20.3066 113.373 22.2637C113.373 22.6292 113.409 22.6637 113.775 22.6638C115.273 22.6643 116.771 22.672 118.269 22.6596C118.783 22.6553 119.298 22.6183 119.809 22.5637C120.462 22.4938 121.094 22.3422 121.642 21.8779Z" fill="#003952"/>
<path d="M60.9819 23.3667C61.0795 23.0369 61.1516 22.7169 61.2526 22.4062C61.3435 22.1261 61.4687 21.857 61.5731 21.5811C61.6011 21.5079 61.605 21.426 61.6286 21.3507C61.663 21.2393 61.705 21.1301 61.7437 21.0198C61.7693 20.946 61.7935 20.8717 61.8201 20.7981C61.8665 20.6677 61.9148 20.5377 61.9607 20.4071C61.9796 20.355 61.9936 20.3014 62.012 20.2491C62.0618 20.1036 62.1154 19.9592 62.1623 19.8126C62.1841 19.7451 62.1865 19.6715 62.2087 19.6042C62.2469 19.487 62.2943 19.3731 62.3358 19.2569C62.3595 19.1905 62.3769 19.1219 62.4001 19.0553C62.4456 18.9247 62.4929 18.7946 62.5408 18.6647C62.5461 18.65 62.5621 18.6387 62.5659 18.6239C62.6413 18.3379 62.7051 18.0481 62.7941 17.7663C62.8854 17.4759 63.001 17.193 63.1073 16.9072C63.1155 16.8851 63.1392 16.8681 63.145 16.8459C63.2224 16.5506 63.2871 16.2513 63.378 15.9603C63.4665 15.6764 63.5815 15.4008 63.6859 15.1221C63.697 15.0925 63.7246 15.0682 63.7328 15.0383C63.8101 14.7421 63.872 14.441 63.9644 14.1497C64.0552 13.865 64.178 13.5905 64.2839 13.3104C64.3061 13.2514 64.3148 13.1872 64.3346 13.127C64.3781 12.9938 64.4269 12.8621 64.4695 12.7286C64.4937 12.6537 64.5067 12.5752 64.5304 12.5003C64.5662 12.3888 64.6058 12.2787 64.6464 12.1687C64.6682 12.1098 64.6967 12.0535 64.7179 11.9945C64.7982 11.7737 64.8543 11.5404 64.9649 11.3365C65.0138 11.2472 65.1718 11.1688 65.2806 11.1682C67.1087 11.158 68.9374 11.1591 70.7655 11.1627C71.0536 11.1633 71.1199 11.3177 70.9889 11.5697C70.8883 11.7634 70.8322 11.9803 70.7544 12.1861C70.6345 12.5028 70.5098 12.8176 70.3928 13.1355C70.3141 13.3502 70.2517 13.571 70.1719 13.7852C70.0569 14.0917 69.9264 14.3924 69.8142 14.6999C69.7287 14.9352 69.6697 15.1804 69.5832 15.4153C69.4807 15.6923 69.3599 15.9623 69.2501 16.2365C69.2269 16.2944 69.2206 16.3588 69.1994 16.4177C69.1578 16.5325 69.1119 16.6458 69.066 16.759C69.051 16.7953 69.0278 16.8281 69.0138 16.8646C68.8919 17.1849 68.7643 17.5032 68.6532 17.8273C68.5652 18.0852 68.5038 18.3523 68.4187 18.6116C68.3457 18.836 68.2621 19.0575 68.1722 19.276C68.0726 19.5195 67.9561 19.7564 67.8556 19.9996C67.7903 20.1573 67.7357 20.32 67.6835 20.4826C67.6037 20.7295 67.5404 20.9821 67.4515 21.2255C67.3567 21.4853 67.2397 21.737 67.1329 21.9927C67.1116 22.0435 67.0952 22.0961 67.0754 22.1476C66.9608 22.4464 66.8443 22.7445 66.7317 23.0439C66.6631 23.2263 66.5968 23.4099 66.535 23.5947C66.4523 23.8403 66.3842 24.091 66.2933 24.3334C66.1932 24.6017 66.0748 24.8632 65.9636 25.1274C65.9544 25.1492 65.9351 25.1674 65.9288 25.1896C65.8534 25.4518 65.7954 25.7204 65.7011 25.9754C65.6098 26.2226 65.4788 26.4549 65.371 26.6964C65.3459 26.7528 65.3517 26.8222 65.3318 26.8817C65.2951 26.9911 65.2506 27.0977 65.2081 27.2051C65.1878 27.2561 65.1627 27.3053 65.1433 27.3566C65.0273 27.665 64.9065 27.9718 64.7987 28.2831C64.7092 28.5408 64.6382 28.805 64.5531 29.0644C64.4801 29.2883 64.3999 29.5101 64.3201 29.7316C64.2046 30.0509 64.092 30.3713 63.9677 30.6872C63.8686 30.94 63.7463 31.1837 63.6497 31.4373C63.5554 31.6841 63.4819 31.9388 63.3964 32.1891C63.3152 32.4269 63.2325 32.6643 63.1465 32.9005C63.0372 33.2015 62.9256 33.5018 62.8115 33.8011C62.7269 34.0231 62.637 34.2431 62.5369 34.4951C62.2193 34.258 61.8607 34.0342 61.5561 33.7517C61.1424 33.3678 60.7305 32.9689 60.3917 32.5207C60.0983 32.1326 59.8967 31.6721 59.6748 31.2335C59.5414 30.9708 59.4467 30.6887 59.3345 30.4153C59.3316 30.4079 59.3268 30.3996 59.3277 30.3924C59.3853 29.9339 59.1426 29.5208 59.1291 29.076C59.1247 28.9356 59.204 28.7928 59.2441 28.651C59.2659 28.5751 59.2833 28.4979 59.3084 28.4233C59.3456 28.3126 59.3867 28.2031 59.4297 28.0944C59.4409 28.0653 59.4728 28.0431 59.4805 28.0139C59.5564 27.7252 59.6173 27.4321 59.7062 27.1475C59.7971 26.8556 59.9155 26.5723 60.019 26.2841C60.1045 26.0466 60.1867 25.8079 60.2674 25.5689C60.3907 25.2055 60.5193 24.8435 60.6314 24.4767C60.7184 24.1923 60.7808 23.9005 60.8615 23.614C60.8842 23.5326 60.9321 23.4582 60.9819 23.3667Z" fill="white"/>
<path d="M71.1436 11.1975C71.1383 11.1899 71.1489 11.2051 71.1436 11.1975V11.1975Z" fill="#003952"/>
</g>
</g>
<defs>
<clipPath id="clip0_283_39">
<rect width="140" height="43.7793" fill="white"/>
</clipPath>
</defs>
</svg>
