<svg width="118" height="114" viewBox="0 0 118 114" fill="none" xmlns="http://www.w3.org/2000/svg">
<path d="M112.345 92.2921C112.705 93.769 112.998 95.2853 113.212 96.8373C113.505 98.9364 113.655 101.046 113.655 103.156V110.147C113.655 111.882 112.252 113.287 110.521 113.287H3.82297C2.0915 113.287 0.688477 111.882 0.688477 110.147V103.156C0.688477 90.5685 5.82576 79.1287 14.1047 70.8395C20.7628 64.1702 29.4523 59.5392 39.1342 57.98C37.6383 56.9287 36.2389 55.7486 34.9501 54.4576C29.263 48.761 25.743 40.8902 25.743 32.1968C25.743 23.5035 29.2595 15.6326 34.9501 9.93598C40.6372 4.23935 48.4948 0.713379 57.1736 0.713379C65.8523 0.713379 73.71 4.23935 79.397 9.93598C85.0841 15.6326 88.6042 23.5035 88.6042 32.1968C88.6042 40.8902 85.0877 48.761 79.397 54.4576C78.1047 55.7522 76.6981 56.9358 75.1987 57.9872C77.023 58.2804 78.8008 58.6809 80.5252 59.1744C84.3487 56.3851 89.0576 54.7366 94.152 54.7366C100.546 54.7366 106.337 57.3328 110.528 61.531C114.719 65.7293 117.311 71.5296 117.311 77.9343C117.311 83.3556 115.454 88.3442 112.341 92.2921H112.345ZM74.9702 14.3703C70.4148 9.80724 64.1244 6.98575 57.1771 6.98575C50.2299 6.98575 43.9359 9.80724 39.3841 14.3703C34.8323 18.9297 32.0155 25.2307 32.0155 32.1932C32.0155 39.1522 34.8323 45.4568 39.3841 50.0162C43.9395 54.5792 50.2299 57.4007 57.1771 57.4007C64.1244 57.4007 70.4184 54.5792 74.9702 50.0162C79.5256 45.4568 82.3387 39.1522 82.3387 32.1932C82.3387 25.2343 79.522 18.9297 74.9702 14.3703ZM86.5835 81.0741C84.8521 81.0741 83.449 79.6687 83.449 77.9343C83.449 76.2 84.8521 74.7946 86.5835 74.7946H91.0211V70.3495C91.0211 68.6152 92.4241 67.2098 94.1556 67.2098C95.887 67.2098 97.2901 68.6152 97.2901 70.3495V74.7946H101.731C103.463 74.7946 104.866 76.2 104.866 77.9343C104.866 79.6687 103.463 81.0741 101.731 81.0741H97.2901V85.5191C97.2901 87.2535 95.887 88.6589 94.1556 88.6589C92.4241 88.6589 91.0211 87.2535 91.0211 85.5191V81.0741H86.5835ZM75.3665 64.3668C74.9738 64.2917 74.5811 64.2202 74.1848 64.1558C72.207 63.8376 70.1328 63.6731 67.9801 63.6731H57.1771H46.3742C35.5392 63.6731 25.6859 68.1181 18.5422 75.2738C11.395 82.4294 6.96103 92.2993 6.96103 103.153V107.008H107.393V103.153C107.393 101.268 107.268 99.4442 107.022 97.6919C107.001 97.5489 106.983 97.4059 106.958 97.2628C103.291 99.7052 98.8894 101.129 94.1556 101.129C87.7616 101.129 81.971 98.5323 77.7798 94.334C73.5886 90.1358 70.9967 84.3354 70.9967 77.9307C70.9967 72.8671 72.6175 68.1789 75.37 64.3633L75.3665 64.3668ZM106.101 65.9689C103.045 62.9078 98.8216 61.0125 94.1556 61.0125C89.4895 61.0125 85.2662 62.9078 82.2102 65.9689C79.1543 69.03 77.2622 73.2604 77.2622 77.9343C77.2622 82.6082 79.1543 86.8387 82.2102 89.8997C85.2662 92.9608 89.4895 94.8561 94.1556 94.8561C98.8216 94.8561 103.045 92.9608 106.101 89.8997C109.157 86.8387 111.049 82.6082 111.049 77.9343C111.049 73.2604 109.157 69.03 106.101 65.9689Z" fill="#825300"/>
</svg>
