<svg width="26" height="22" viewBox="0 0 26 22" fill="none" xmlns="http://www.w3.org/2000/svg">
<path d="M22.0501 0.96875H3.25469C2.41661 0.96875 1.61287 1.30167 1.02026 1.89428C0.42765 2.48689 0.0947266 3.29064 0.0947266 4.12871V17.8682C0.0947266 18.7063 0.42765 19.51 1.02026 20.1026C1.61287 20.6953 2.41661 21.0282 3.25469 21.0282H22.0501C22.8882 21.0282 23.692 20.6953 24.2846 20.1026C24.8772 19.51 25.2101 18.7063 25.2101 17.8682V4.12871C25.2101 3.29064 24.8772 2.48689 24.2846 1.89428C23.692 1.30167 22.8882 0.96875 22.0501 0.96875ZM3.25469 2.23273H22.0501C22.5285 2.23166 22.9893 2.41264 23.3391 2.73894C23.6889 3.06524 23.9014 3.51241 23.9335 3.98967C20.8114 5.65813 17.6767 7.31395 14.5421 8.98241C14.1187 9.24938 13.6699 9.47378 13.2022 9.65232C12.8356 9.72493 12.4576 9.71852 12.0936 9.63351C11.7297 9.54851 11.388 9.38687 11.0914 9.15937C9.29653 8.21138 7.50167 7.25075 5.71946 6.30276C4.27851 5.54437 2.81229 4.77334 1.37135 4.00231C1.40037 3.5228 1.61153 3.07249 1.96163 2.74354C2.31172 2.41459 2.77429 2.23186 3.25469 2.23273ZM23.9461 17.8682C23.9461 18.3711 23.7464 18.8533 23.3908 19.2089C23.0352 19.5644 22.553 19.7642 22.0501 19.7642H3.25469C2.75184 19.7642 2.26959 19.5644 1.91403 19.2089C1.55846 18.8533 1.35871 18.3711 1.35871 17.8682V5.43693C4.34171 7.00427 7.31208 8.5969 10.2951 10.1769C10.8279 10.5039 11.4017 10.7589 12.0015 10.9353C12.8791 11.0782 13.7788 10.8938 14.5294 10.417C16.3622 9.4564 18.1823 8.48314 20.0151 7.52251C21.3297 6.81468 22.6316 6.13213 23.9461 5.43693V17.8682Z" fill="#825300"/>
</svg>
