<svg width="66" height="81" viewBox="0 0 66 81" fill="none" xmlns="http://www.w3.org/2000/svg">
<path d="M17.1737 23.2512C17.0363 23.2512 16.9036 23.2046 16.7942 23.1208C13.9772 20.9394 12.4268 18.0247 12.4268 14.9141C12.4268 11.8035 13.9773 8.88924 16.7942 6.70733C17.0177 6.53506 17.332 6.53506 17.5555 6.70733C20.3725 8.88877 21.9229 11.8035 21.9229 14.9141C21.9229 18.0247 20.3724 20.9389 17.5555 23.1208C17.4461 23.2046 17.311 23.2512 17.1737 23.2512ZM17.1737 7.9975C14.9085 9.89721 13.6676 12.337 13.6676 14.9139C13.6676 17.4911 14.9085 19.931 17.1737 21.8304C19.4389 19.9307 20.6798 17.4909 20.6798 14.9139C20.6821 12.3368 19.4412 9.89691 17.1737 7.9975Z" fill="#825300"/>
<path d="M15.5539 28.9422C12.7951 29.0144 10.1271 27.9691 8.15052 26.0461C5.95979 23.8507 4.98899 20.7241 5.41738 17.2433C5.45231 16.9593 5.6758 16.7358 5.95983 16.7009C9.5404 16.2725 12.7368 17.2666 14.9622 19.5016C17.1529 21.6969 18.1238 24.8235 17.6977 28.3043C17.6628 28.5883 17.4393 28.8118 17.1552 28.8467C16.6244 28.9096 16.0893 28.9422 15.5539 28.9422ZM6.60036 17.8861C6.28607 20.554 7.17539 23.2243 9.03086 25.1684C11.0307 27.0728 13.7731 27.9877 16.5159 27.6618C16.8302 24.9938 15.9385 22.3235 14.0854 20.3794C12.0855 18.4727 9.34077 17.5601 6.60036 17.8861Z" fill="#825300"/>
<path d="M18.796 28.9413C18.2605 28.9413 17.725 28.9087 17.1942 28.8459C16.9102 28.8109 16.6867 28.5874 16.6518 28.3034C16.2258 24.823 17.1966 21.6963 19.3873 19.5007C21.6129 17.268 24.8164 16.2739 28.3897 16.7C28.6737 16.7349 28.8972 16.9584 28.9321 17.2425C29.3581 20.7229 28.3873 23.8472 26.1966 26.0452C24.2224 27.9682 21.5524 29.0135 18.796 28.9413ZM17.8345 27.6609C20.5746 27.9868 23.3194 27.0719 25.3195 25.1675C27.1726 23.2236 28.0643 20.5533 27.75 17.8851C25.0098 17.5592 22.265 18.4718 20.265 20.3785C18.4118 22.3224 17.5201 24.9928 17.8345 27.6609Z" fill="#825300"/>
<path d="M15.5539 38.4778C12.7951 38.5499 10.1271 37.507 8.15052 35.5816C5.95979 33.3839 4.98899 30.2596 5.41738 26.7789C5.45231 26.4949 5.6758 26.2714 5.95983 26.2388C9.5404 25.8081 12.7368 26.8045 14.9622 29.0394C17.1529 31.2348 18.1238 34.3614 17.6977 37.8422V37.8398C17.6628 38.1239 17.4393 38.3474 17.1552 38.3823C16.6244 38.4451 16.0893 38.4778 15.5539 38.4778ZM6.60036 27.4216C6.28607 30.0896 7.17539 32.7599 9.03086 34.7063C11.0307 36.6107 13.7755 37.5233 16.5159 37.1974C16.8302 34.5294 15.9385 31.8591 14.0854 29.915C12.0855 28.0107 9.34077 27.0957 6.60036 27.4216Z" fill="#825300"/>
<path d="M18.796 38.477C18.2605 38.477 17.725 38.4444 17.1942 38.3815C16.9102 38.3466 16.6867 38.1231 16.6518 37.8391C16.2258 34.3587 17.1966 31.232 19.3873 29.0364C21.6129 26.8037 24.8164 25.8096 28.3897 26.238C28.6737 26.2706 28.8972 26.4941 28.9321 26.7781C29.3581 30.2586 28.3873 33.3853 26.1966 35.5809C24.2224 37.5062 21.5524 38.5492 18.796 38.477ZM17.8345 37.1966C20.5746 37.5248 23.3194 36.6099 25.3195 34.7055C27.1726 32.7593 28.0643 30.0889 27.75 27.4208C25.0098 27.0948 22.265 28.0098 20.265 29.9141C18.4118 31.8581 17.5201 34.5285 17.8345 37.1966Z" fill="#825300"/>
<path d="M15.5537 48.0125C12.795 48.0847 10.127 47.0394 8.15038 45.1141C5.96198 42.9187 4.98885 39.7921 5.41724 36.3113C5.45216 36.0273 5.67566 35.8038 5.95969 35.7712C9.53561 35.3428 12.7367 36.3369 14.9621 38.5719C17.1528 40.7673 18.1236 43.8939 17.6975 47.3746C17.6626 47.6586 17.4391 47.8821 17.1551 47.9147C16.6243 47.9799 16.0892 48.0125 15.5537 48.0125ZM6.60022 36.954C6.28593 39.6243 7.17525 42.2946 9.03072 44.2387C10.8816 46.0942 13.5263 46.9695 16.5157 46.7321C16.83 44.0618 15.9384 41.3915 14.0852 39.4473C12.0854 37.543 9.34063 36.6304 6.60022 36.954Z" fill="#825300"/>
<path d="M18.796 48.0121C18.2605 48.0121 17.725 47.9796 17.1942 47.9144C16.9102 47.8818 16.6867 47.6583 16.6518 47.3743C16.2258 43.8938 17.1966 40.7671 19.3873 38.5715C21.6129 36.3389 24.8094 35.3448 28.3897 35.7732V35.7709C28.6737 35.8034 28.8972 36.0269 28.9321 36.311C29.3581 39.7914 28.3873 42.9157 26.1966 45.1137C24.2224 47.039 21.5524 48.0843 18.796 48.0121ZM17.8345 46.7317C20.5746 47.0553 23.3194 46.1427 25.3195 44.2384C27.1726 42.2944 28.0643 39.6241 27.75 36.9536C25.0098 36.63 22.265 37.5426 20.265 39.447C18.4118 41.3909 17.5201 44.0612 17.8345 46.7317Z" fill="#825300"/>
<path d="M15.5539 57.5496C12.7951 57.6218 10.1271 56.5765 8.15052 54.6535C5.95979 52.4558 4.98899 49.3315 5.41738 45.8508C5.45231 45.5667 5.6758 45.3432 5.95983 45.3083C9.5404 44.88 12.7368 45.874 14.9622 48.109C17.1529 50.3044 18.1238 53.431 17.6977 56.9117C17.6628 57.1957 17.4393 57.4192 17.1552 57.4518C16.6244 57.517 16.0893 57.5496 15.5539 57.5496ZM6.60036 46.4935C6.28607 49.1615 7.17539 51.8317 9.03086 53.7758C10.8817 55.6313 13.5264 56.5067 16.5159 56.2692C16.8302 53.6012 15.9385 50.931 14.0854 48.9845C12.0855 47.0801 9.34077 46.1675 6.60036 46.4935Z" fill="#825300"/>
<path d="M18.796 57.5487C18.2605 57.5487 17.725 57.5161 17.1942 57.4509C16.9102 57.4183 16.6867 57.1949 16.6518 56.9108C16.2258 53.4304 17.1966 50.3037 19.3873 48.1081C21.6129 45.8755 24.8164 44.8814 28.3897 45.3074C28.6737 45.3424 28.8972 45.5658 28.9321 45.8499C29.3581 49.3303 28.3873 52.457 26.1966 54.6526C24.2224 56.5756 21.5524 57.6209 18.796 57.5487ZM17.8345 56.2683C20.5746 56.5942 23.3194 55.6793 25.3195 53.7749C27.1726 51.831 28.0643 49.1607 27.75 46.4926C25.0098 46.1666 22.265 47.0792 20.265 48.9836C18.4118 50.9299 17.5201 53.6001 17.8345 56.2683Z" fill="#825300"/>
<path d="M17.173 64.6005C17.01 64.6005 16.8517 64.5353 16.7353 64.4189C16.6189 64.3025 16.5537 64.1442 16.5537 63.9789V22.6275C16.5537 22.2852 16.8308 22.0059 17.173 22.0059C17.5176 22.0059 17.7946 22.2852 17.7946 22.6275V63.9789C17.7946 64.1442 17.7294 64.3025 17.613 64.4189C17.4966 64.5353 17.3383 64.6005 17.173 64.6005Z" fill="#825300"/>
<path d="M48.1954 24.1283C48.0232 24.1283 47.8602 24.0561 47.7415 23.9304C45.3226 21.3369 44.268 18.2197 44.7662 15.1581C45.2667 12.078 47.2758 9.44269 50.4188 7.73387C50.6679 7.59884 50.9775 7.64773 51.1707 7.85493C53.5896 10.4484 54.6442 13.5634 54.146 16.6273C53.6431 19.7073 51.6364 22.3427 48.4934 24.0515C48.4026 24.1027 48.3002 24.1283 48.1954 24.1283ZM50.5864 9.06592C48.0324 10.5862 46.4075 12.8048 45.9908 15.3566H45.9931C45.6253 18.0362 46.482 20.7414 48.3258 22.72C50.8798 21.1997 52.5047 18.9811 52.9214 16.4293H52.9191C53.287 13.7497 52.4302 11.0445 50.5864 9.06592Z" fill="#825300"/>
<path d="M47.1899 29.6342H47.1643C43.5628 29.4852 40.5691 27.9976 38.7365 25.439C36.9299 22.9224 36.4829 19.6793 37.4723 16.3109C37.5491 16.0362 37.8076 15.8499 38.0939 15.8662C41.6955 16.0152 44.6891 17.5052 46.5242 20.0614C48.3284 22.5781 48.7777 25.8211 47.7883 29.1872H47.786C47.7092 29.4526 47.467 29.6342 47.1899 29.6342ZM38.5344 17.1346C37.7871 19.7164 38.2318 22.4962 39.745 24.715C41.2676 26.8382 43.733 28.1233 46.7246 28.3631C47.4719 25.7812 47.0272 23.0038 45.514 20.7827C43.9915 18.6595 41.5237 17.3744 38.5344 17.1346Z" fill="#825300"/>
<path d="M50.6842 30.1473C49.5062 30.1403 48.3352 29.9704 47.2037 29.6398C46.9267 29.5606 46.7428 29.3022 46.7544 29.0159C46.9011 25.5121 48.3724 22.581 50.8914 20.7626C53.4546 18.9141 56.7698 18.4439 60.2317 19.4356V19.4379C60.5088 19.5171 60.6927 19.7732 60.6811 20.0595C60.5321 23.5633 59.0631 26.4944 56.5417 28.3128C54.8329 29.5304 52.7818 30.1729 50.6842 30.1473ZM48.0256 28.5736C50.6819 29.3302 53.5361 28.8669 55.8151 27.3071C57.9639 25.6844 59.2816 23.1934 59.4096 20.5045C56.7533 19.7479 53.8967 20.2111 51.6177 21.771C49.4712 23.3937 48.1536 25.8846 48.0256 28.5736Z" fill="#825300"/>
<path d="M45.6347 39.0481H45.6091C42.0075 38.9014 39.0139 37.4114 37.1789 34.8528C35.3723 32.3362 34.9253 29.0932 35.9147 25.7247V25.727C35.9915 25.45 36.2499 25.2661 36.534 25.28C40.1355 25.429 43.1292 26.919 44.9642 29.4753C46.7685 31.9919 47.2178 35.2349 46.2284 38.601V38.6033C46.1516 38.8664 45.9094 39.0481 45.6347 39.0481ZM36.9768 26.5508C36.2295 29.1303 36.6741 31.91 38.1874 34.1288C39.7099 36.2543 42.1754 37.5371 45.167 37.7769C45.9143 35.1974 45.4696 32.4176 43.9564 30.1989C42.4338 28.0757 39.9661 26.7906 36.9768 26.5508Z" fill="#825300"/>
<path d="M49.1266 39.5594C47.9486 39.5524 46.7776 39.3825 45.6461 39.0519C45.3691 38.9728 45.1852 38.7143 45.1968 38.428C45.3458 34.9242 46.8148 31.9931 49.3361 30.1747C51.897 28.3262 55.2145 27.856 58.6764 28.8477H58.6741C58.9512 28.9269 59.1351 29.1853 59.1234 29.4716C58.9768 32.9754 57.5054 35.9065 54.9864 37.7249C53.2776 38.9425 51.2242 39.5851 49.1266 39.5594ZM46.4679 37.9857C49.1243 38.7423 51.9785 38.2767 54.2599 36.7169C56.4064 35.0965 57.7241 32.6032 57.8521 29.9143C55.1958 29.1577 52.3392 29.6233 50.0601 31.1831C47.9136 32.8034 46.596 35.2967 46.4679 37.9857Z" fill="#825300"/>
<path d="M44.0775 48.4587H44.0519C40.4504 48.312 37.4567 46.8221 35.6217 44.2635C33.8174 41.7445 33.3681 38.5038 34.3575 35.1377V35.1354C34.432 34.8584 34.6928 34.6721 34.9791 34.6907C38.5807 34.8374 41.5743 36.3274 43.407 38.886C45.2135 41.4026 45.6605 44.6456 44.6711 48.0141V48.0118C44.5943 48.2772 44.3522 48.4587 44.0775 48.4587ZM35.4196 35.9614C34.6723 38.5409 35.117 41.3207 36.6302 43.5394C38.1527 45.6626 40.6182 46.9478 43.6098 47.1875C44.3571 44.608 43.9124 41.8283 42.3992 39.6072C40.8766 37.4839 38.4112 36.1989 35.4196 35.9614Z" fill="#825300"/>
<path d="M47.569 48.9673C46.3909 48.9626 45.2199 48.7903 44.0885 48.4597C43.8138 48.3806 43.6275 48.1245 43.6392 47.8381C43.7859 44.3344 45.2572 41.4033 47.7785 39.5849C50.3394 37.7364 53.6546 37.2661 57.1164 38.2579C57.3935 38.337 57.5774 38.5954 57.5658 38.8818C57.4191 42.3856 55.9478 45.3167 53.4264 47.135V47.1327C51.72 48.3503 49.6665 48.9929 47.569 48.9673ZM44.9103 47.3935C47.5666 48.1501 50.4209 47.6868 52.7023 46.127C54.8488 44.5043 56.1664 42.0133 56.2945 39.3244C53.6381 38.5678 50.7839 39.0334 48.5049 40.5932C46.3561 42.2136 45.0383 44.707 44.9103 47.3935Z" fill="#825300"/>
<path d="M42.5195 57.8728H42.4939C38.8923 57.7261 35.8987 56.2362 34.0636 53.6776C32.2571 51.1609 31.8101 47.9179 32.7995 44.5495C32.8763 44.2724 33.1347 44.0862 33.4211 44.1048C37.0226 44.2515 40.0163 45.7414 41.8513 48.3C43.6579 50.8167 44.1049 54.0597 43.1155 57.4282V57.4258C43.0363 57.6912 42.7942 57.8728 42.5195 57.8728ZM33.8616 45.3732C33.1143 47.955 33.5589 50.7347 35.0745 52.9535C36.5971 55.0767 39.0625 56.3619 42.0541 56.6016C42.8014 54.0198 42.3568 51.2401 40.8412 49.0213C39.3186 46.8981 36.8532 45.6129 33.8616 45.3732Z" fill="#825300"/>
<path d="M46.0113 58.3817C44.8333 58.3747 43.6623 58.2048 42.5309 57.8742C42.2562 57.795 42.0699 57.5389 42.0816 57.2526C42.2282 53.7488 43.6996 50.8177 46.2186 48.9993C48.7795 47.1531 52.0946 46.6829 55.5589 47.6723C55.8359 47.7515 56.0222 48.0076 56.0082 48.2939C55.8592 51.7977 54.3902 54.7288 51.8689 56.5472H51.8712C50.1624 57.7648 48.1089 58.4073 46.0113 58.3817ZM43.3527 56.8079C46.009 57.5645 48.8656 57.1013 51.1446 55.5415C53.2911 53.9188 54.6088 51.4278 54.7368 48.7389C52.0805 47.9823 49.2263 48.4455 46.9449 50.0053C44.7984 51.628 43.4807 54.119 43.3527 56.8079Z" fill="#825300"/>
<path d="M41.4443 64.9356C41.4094 64.9356 41.3768 64.9332 41.3419 64.9286C41.1812 64.9006 41.0346 64.8098 40.9391 64.6771C40.8437 64.5421 40.8041 64.3768 40.832 64.2139L47.5834 23.4048C47.6113 23.2418 47.7021 23.0975 47.8348 22.9997C47.9698 22.9043 48.1351 22.867 48.2981 22.8926C48.6357 22.9485 48.8638 23.2675 48.8079 23.6073L42.0566 64.4164C42.0077 64.7167 41.7469 64.9356 41.4443 64.9356Z" fill="#825300"/>
</svg>
