<svg width="56" height="59" viewBox="0 0 56 59" fill="none" xmlns="http://www.w3.org/2000/svg">
<path d="M12.1727 17.3215C12.0354 17.3215 11.9027 17.275 11.7932 17.1911C8.97624 15.0097 7.42578 12.095 7.42578 8.98439C7.42578 5.87382 8.9763 2.95956 11.7932 0.777645C12.0167 0.605368 12.331 0.605368 12.5545 0.777645C15.3715 2.95908 16.9219 5.87382 16.9219 8.98439C16.9219 12.095 15.3714 15.0092 12.5545 17.1911C12.4451 17.275 12.3101 17.3215 12.1727 17.3215ZM12.1727 2.06781C9.90749 3.96752 8.66664 6.40731 8.66664 8.98424C8.66664 11.5614 9.90749 14.0013 12.1727 15.9007C14.4379 14.001 15.6788 11.5612 15.6788 8.98424C15.6811 6.40707 14.4403 3.96722 12.1727 2.06781Z" fill="#825300"/>
<path d="M10.5539 23.0125C7.79511 23.0847 5.12712 22.0394 3.15052 20.1164C0.959792 17.921 -0.0110115 14.7944 0.417384 11.3137C0.452306 11.0296 0.675799 10.8061 0.959828 10.7712C4.5404 10.3428 7.7368 11.3369 9.96222 13.5719C12.1529 15.7673 13.1238 18.8939 12.6977 22.3746C12.6628 22.6586 12.4393 22.8821 12.1552 22.9171C11.6244 22.9799 11.0893 23.0125 10.5539 23.0125ZM1.60036 11.9564C1.28607 14.6244 2.17539 17.2946 4.03086 19.2387C6.03069 21.1431 8.77313 22.0581 11.5159 21.7321C11.8302 19.0641 10.9385 16.3938 9.08537 14.4497C7.08553 12.5431 4.34077 11.6304 1.60036 11.9564Z" fill="#825300"/>
<path d="M13.7969 23.0116C13.2615 23.0116 12.726 22.979 12.1952 22.9162C11.9112 22.8812 11.6877 22.6577 11.6528 22.3737C11.2267 18.8933 12.1975 15.7666 14.3882 13.571C16.6139 11.3384 19.8173 10.3442 23.3906 10.7703C23.6747 10.8052 23.8982 11.0287 23.9331 11.3128C24.3591 14.7932 23.3883 17.9175 21.1976 20.1155C19.2234 22.0385 16.5534 23.0838 13.7969 23.0116ZM12.8354 21.7312C15.5756 22.0571 18.3204 21.1422 20.3204 19.2378C22.1736 17.2939 23.0653 14.6236 22.7509 11.9555C20.0108 11.6295 17.266 12.5421 15.2659 14.4488C13.4128 16.3928 12.5211 19.0631 12.8354 21.7312Z" fill="#825300"/>
<path d="M10.5539 32.5481C7.79511 32.6202 5.12712 31.5773 3.15052 29.6519C0.959792 27.4542 -0.0110115 24.3299 0.417384 20.8492C0.452306 20.5652 0.675799 20.3417 0.959828 20.3091C4.5404 19.8784 7.7368 20.8748 9.96222 23.1097C12.1529 25.3051 13.1238 28.4317 12.6977 31.9125V31.9102C12.6628 32.1942 12.4393 32.4177 12.1552 32.4526C11.6244 32.5155 11.0893 32.5481 10.5539 32.5481ZM1.60036 21.4919C1.28607 24.1599 2.17539 26.8302 4.03086 28.7767C6.03069 30.681 8.77545 31.5937 11.5159 31.2677C11.8302 28.5997 10.9385 25.9295 9.08537 23.9853C7.08553 22.081 4.34077 21.166 1.60036 21.4919Z" fill="#825300"/>
<path d="M13.7969 32.5473C13.2615 32.5473 12.726 32.5147 12.1952 32.4519C11.9112 32.4169 11.6877 32.1934 11.6528 31.9094C11.2267 28.429 12.1975 25.3023 14.3882 23.1067C16.6139 20.874 19.8173 19.8799 23.3906 20.3083C23.6747 20.3409 23.8982 20.5644 23.9331 20.8484C24.3591 24.3289 23.3883 27.4556 21.1976 29.6512C19.2234 31.5765 16.5534 32.6195 13.7969 32.5473ZM12.8354 31.2669C15.5756 31.5951 18.3204 30.6802 20.3204 28.7758C22.1736 26.8296 23.0653 24.1593 22.7509 21.4911C20.0108 21.1652 17.266 22.0801 15.2659 23.9845C13.4128 25.9284 12.5211 28.5988 12.8354 31.2669Z" fill="#825300"/>
<path d="M10.5537 42.0828C7.79497 42.155 5.12698 41.1097 3.15038 39.1844C0.961976 36.989 -0.0111523 33.8624 0.417244 30.3816C0.452165 30.0976 0.675658 29.8741 0.959688 29.8415C4.53561 29.4132 7.73666 30.4072 9.96208 32.6422C12.1528 34.8376 13.1236 37.9642 12.6975 41.4449C12.6626 41.7289 12.4391 41.9524 12.1551 41.985C11.6243 42.0502 11.0892 42.0828 10.5537 42.0828ZM1.60022 31.0243C1.28593 33.6946 2.17525 36.3649 4.03072 38.309C5.88155 40.1645 8.52625 41.0399 11.5157 40.8024C11.83 38.1321 10.9384 35.4618 9.08523 33.5177C7.08539 31.6133 4.34063 30.7007 1.60022 31.0243Z" fill="#825300"/>
<path d="M13.7969 42.0825C13.2615 42.0825 12.726 42.0499 12.1952 41.9847C11.9112 41.9521 11.6877 41.7286 11.6528 41.4446C11.2267 37.9641 12.1975 34.8375 14.3882 32.6418C16.6139 30.4092 19.8104 29.4151 23.3906 29.8435V29.8412C23.6747 29.8738 23.8982 30.0973 23.9331 30.3813C24.3591 33.8617 23.3883 36.986 21.1976 39.184C19.2234 41.1093 16.5534 42.1546 13.7969 42.0825ZM12.8354 40.802C15.5756 41.1256 18.3204 40.213 20.3204 38.3087C22.1736 36.3647 23.0653 33.6944 22.7509 31.0239C20.0108 30.7003 17.266 31.6129 15.2659 33.5173C13.4128 35.4612 12.5211 38.1315 12.8354 40.802Z" fill="#825300"/>
<path d="M10.5539 51.6199C7.79511 51.6921 5.12712 50.6468 3.15052 48.7238C0.959792 46.5261 -0.0110115 43.4018 0.417384 39.9211C0.452306 39.6371 0.675799 39.4136 0.959828 39.3786C4.5404 38.9503 7.7368 39.9444 9.96222 42.1793C12.1529 44.3747 13.1238 47.5013 12.6977 50.982C12.6628 51.2661 12.4393 51.4895 12.1552 51.5221C11.6244 51.5873 11.0893 51.6199 10.5539 51.6199ZM1.60036 40.5638C1.28607 43.2318 2.17539 45.902 4.03086 47.8462C5.88169 49.7016 8.52639 50.577 11.5159 50.3395C11.8302 47.6715 10.9385 45.0013 9.08537 43.0548C7.08553 41.1504 4.34077 40.2378 1.60036 40.5638Z" fill="#825300"/>
<path d="M13.7969 51.619C13.2615 51.619 12.726 51.5864 12.1952 51.5213C11.9112 51.4887 11.6877 51.2652 11.6528 50.9811C11.2267 47.5007 12.1975 44.374 14.3882 42.1784C16.6139 39.9458 19.8173 38.9517 23.3906 39.3777C23.6747 39.4127 23.8982 39.6362 23.9331 39.9202C24.3591 43.4006 23.3883 46.5273 21.1976 48.7229C19.2234 50.6459 16.5534 51.6912 13.7969 51.619ZM12.8354 50.3386C15.5756 50.6645 18.3204 49.7496 20.3204 47.8452C22.1736 45.9013 23.0653 43.231 22.7509 40.5629C20.0108 40.2369 17.266 41.1495 15.2659 43.0539C13.4128 45.0002 12.5211 47.6704 12.8354 50.3386Z" fill="#825300"/>
<path d="M12.174 58.6708C12.011 58.6708 11.8527 58.6056 11.7363 58.4892C11.6199 58.3728 11.5547 58.2145 11.5547 58.0492V16.6978C11.5547 16.3556 11.8317 16.0762 12.174 16.0762C12.5185 16.0762 12.7956 16.3555 12.7956 16.6978V58.0492C12.7956 58.2145 12.7304 58.3728 12.614 58.4892C12.4976 58.6056 12.3392 58.6708 12.174 58.6708Z" fill="#825300"/>
<path d="M43.1945 18.1986C43.0222 18.1986 42.8592 18.1265 42.7405 18.0007C40.3216 15.4072 39.267 12.29 39.7652 9.2284C40.2657 6.14834 42.2748 3.513 45.4178 1.80418C45.6669 1.66916 45.9765 1.71805 46.1697 1.92525C48.5886 4.51875 49.6432 7.63367 49.145 10.6976C48.6422 13.7776 46.6354 16.413 43.4924 18.1218C43.4016 18.173 43.2992 18.1986 43.1945 18.1986ZM45.5854 3.13623C43.0315 4.65648 41.4065 6.8751 40.9898 9.42688H40.9921C40.6243 12.1065 41.481 14.8117 43.3249 16.7903C45.8788 15.2701 47.5038 13.0514 47.9205 10.4997H47.9181C48.286 7.82004 47.4292 5.11479 45.5854 3.13623Z" fill="#825300"/>
<path d="M42.189 23.7046H42.1634C38.5618 23.5556 35.5682 22.0679 33.7355 19.5093C31.9289 16.9927 31.4819 13.7497 32.4713 10.3812C32.5482 10.1065 32.8066 9.92024 33.093 9.93654C36.6945 10.0855 39.6882 11.5755 41.5232 14.1318C43.3274 16.6484 43.7768 19.8914 42.7874 23.2575H42.785C42.7082 23.5229 42.466 23.7046 42.189 23.7046ZM33.5334 11.2049C32.7861 13.7867 33.2308 16.5665 34.744 18.7853C36.2666 20.9085 38.732 22.1936 41.7236 22.4334C42.4709 19.8516 42.0263 17.0741 40.513 14.853C38.9905 12.7298 36.5227 11.4447 33.5334 11.2049Z" fill="#825300"/>
<path d="M45.6842 24.2176C44.5062 24.2106 43.3352 24.0407 42.2037 23.7101C41.9267 23.631 41.7428 23.3725 41.7544 23.0862C41.9011 19.5824 43.3724 16.6513 45.8914 14.8329C48.4546 12.9844 51.7698 12.5142 55.2317 13.5059V13.5082C55.5088 13.5874 55.6927 13.8435 55.6811 14.1299C55.5321 17.6336 54.0631 20.5647 51.5417 22.3831C49.8329 23.6007 47.7818 24.2433 45.6842 24.2176ZM43.0256 22.6439C45.6819 23.4005 48.5361 22.9372 50.8151 21.3774C52.9639 19.7547 54.2816 17.2637 54.4096 14.5748C51.7533 13.8182 48.8967 14.2815 46.6177 15.8413C44.4712 17.464 43.1536 19.955 43.0256 22.6439Z" fill="#825300"/>
<path d="M40.6347 33.1184H40.6091C37.0075 32.9717 34.0139 31.4817 32.1789 28.9232C30.3723 26.4065 29.9253 23.1635 30.9147 19.795V19.7973C30.9915 19.5203 31.2499 19.3364 31.534 19.3504C35.1355 19.4994 38.1292 20.9893 39.9642 23.5456C41.7685 26.0622 42.2178 29.3053 41.2284 32.6713V32.6737C41.1516 32.9367 40.9094 33.1184 40.6347 33.1184ZM31.9768 20.6211C31.2295 23.2006 31.6741 25.9804 33.1874 28.1991C34.7099 30.3246 37.1754 31.6074 40.167 31.8472C40.9143 29.2677 40.4696 26.488 38.9564 24.2692C37.4338 22.146 34.9661 20.8609 31.9768 20.6211Z" fill="#825300"/>
<path d="M44.1276 33.6297C42.9495 33.6228 41.7785 33.4528 40.6471 33.1222C40.3701 33.0431 40.1861 32.7846 40.1978 32.4983C40.3468 28.9945 41.8158 26.0634 44.3371 24.245C46.898 22.3965 50.2155 21.9263 53.6774 22.918H53.6751C53.9521 22.9972 54.1361 23.2556 54.1244 23.542C53.9777 27.0457 52.5064 29.9768 49.9874 31.7952C48.2786 33.0128 46.2251 33.6554 44.1276 33.6297ZM41.4689 32.056C44.1252 32.8126 46.9795 32.347 49.2609 30.7872C51.4074 29.1668 52.725 26.6735 52.8531 23.9846C50.1967 23.228 47.3402 23.6936 45.0611 25.2534C42.9146 26.8737 41.5969 29.3671 41.4689 32.056Z" fill="#825300"/>
<path d="M39.0775 42.529H39.0519C35.4504 42.3823 32.4567 40.8924 30.6217 38.3338C28.8174 35.8148 28.3681 32.5741 29.3575 29.208V29.2057C29.432 28.9287 29.6928 28.7424 29.9791 28.761C33.5807 28.9077 36.5743 30.3977 38.407 32.9563C40.2135 35.4729 40.6605 38.7159 39.6711 42.0844V42.0821C39.5943 42.3475 39.3522 42.529 39.0775 42.529ZM30.4196 30.0317C29.6723 32.6112 30.117 35.391 31.6302 37.6097C33.1527 39.7329 35.6182 41.0181 38.6098 41.2578C39.3571 38.6783 38.9124 35.8986 37.3992 33.6775C35.8766 31.5543 33.4112 30.2692 30.4196 30.0317Z" fill="#825300"/>
<path d="M42.569 43.0376C41.3909 43.0329 40.2199 42.8606 39.0885 42.5301C38.8138 42.4509 38.6275 42.1948 38.6392 41.9084C38.7859 38.4047 40.2572 35.4736 42.7785 33.6552C45.3394 31.8067 48.6546 31.3365 52.1164 32.3282C52.3935 32.4073 52.5774 32.6658 52.5658 32.9521C52.4191 36.4559 50.9478 39.387 48.4264 41.2054V41.203C46.72 42.4206 44.6665 43.0632 42.569 43.0376ZM39.9103 41.4638C42.5666 42.2204 45.4209 41.7571 47.7023 40.1973C49.8488 38.5746 51.1664 36.0837 51.2945 33.3947C48.6381 32.6381 45.7839 33.1037 43.5049 34.6635C41.3561 36.2839 40.0383 38.7773 39.9103 41.4638Z" fill="#825300"/>
<path d="M37.5195 51.9431H37.4939C33.8923 51.7965 30.8987 50.3065 29.0636 47.7479C27.2571 45.2312 26.8101 41.9882 27.7995 38.6198C27.8763 38.3427 28.1347 38.1565 28.4211 38.1751C32.0226 38.3218 35.0163 39.8118 36.8513 42.3703C38.6579 44.887 39.1049 48.13 38.1155 51.4985V51.4961C38.0363 51.7615 37.7942 51.9431 37.5195 51.9431ZM28.8616 39.4435C28.1143 42.0253 28.5589 44.805 30.0745 47.0238C31.5971 49.1471 34.0625 50.4322 37.0541 50.6719C37.8014 48.0901 37.3568 45.3104 35.8412 43.0916C34.3186 40.9684 31.8532 39.6832 28.8616 39.4435Z" fill="#825300"/>
<path d="M41.0123 52.452C39.8343 52.445 38.6633 52.2751 37.5319 51.9445C37.2572 51.8654 37.0709 51.6093 37.0825 51.3229C37.2292 47.8191 38.7005 44.888 41.2195 43.0697C43.7804 41.2235 47.0956 40.7532 50.5599 41.7426C50.8369 41.8218 51.0231 42.0779 51.0092 42.3642C50.8602 45.868 49.3912 48.7991 46.8699 50.6175H46.8722C45.1634 51.8351 43.1099 52.4776 41.0123 52.452ZM38.3537 50.8783C41.01 51.6349 43.8666 51.1716 46.1456 49.6118C48.2921 47.9891 49.6098 45.4981 49.7378 42.8092C47.0815 42.0526 44.2273 42.5158 41.9459 44.0757C39.7994 45.6984 38.4817 48.1893 38.3537 50.8783Z" fill="#825300"/>
<path d="M36.4433 59.0059C36.4084 59.0059 36.3758 59.0035 36.3409 58.9989C36.1803 58.971 36.0336 58.8802 35.9381 58.7475C35.8427 58.6124 35.8031 58.4471 35.831 58.2842L42.5824 17.4751C42.6103 17.3122 42.7011 17.1678 42.8338 17.07C42.9689 16.9746 43.1341 16.9373 43.2971 16.9629C43.6347 17.0188 43.8628 17.3378 43.807 17.6777L37.0556 58.4867C37.0067 58.787 36.746 59.0059 36.4433 59.0059Z" fill="#825300"/>
</svg>
