<svg width="64" height="53" viewBox="0 0 64 53" fill="none" xmlns="http://www.w3.org/2000/svg">
<path d="M63.156 10.4374C63.1184 10.3675 63.0727 10.3056 63.0216 10.2519C62.9813 10.1874 62.9356 10.1282 62.8765 10.0745C62.3926 9.61211 59.8631 9.34062 56.4116 9.48846C55.4009 7.17937 53.8418 5.14183 51.8634 3.57463C48.6296 1.01554 44.5786 -0.126861 40.4552 0.35161C36.3317 0.832779 32.6516 2.87575 30.0924 6.1095L28.8854 7.63362L27.6785 6.1095C25.1194 2.87575 21.4394 0.832765 17.3156 0.35161C13.1921 -0.129558 9.14108 1.01557 5.90746 3.57463C2.6737 6.13373 0.630721 9.81368 0.149567 13.9375C-0.328911 18.061 0.813522 22.112 3.37259 25.3456L16.5548 42.001C17.7403 43.4982 19.165 44.7293 20.7563 45.6755C20.1569 47.5088 19.8827 49.5571 20.2751 51.7049C20.3423 52.0732 20.6649 52.3312 21.0251 52.3312C21.0708 52.3312 21.1165 52.3259 21.1649 52.3178C21.5815 52.2425 21.8557 51.842 21.7777 51.428C21.4552 49.67 21.6648 47.9658 22.1433 46.4093C24.1648 47.3448 26.3932 47.8474 28.7103 47.8474H29.0437C33.8393 47.8474 38.2663 45.7212 41.2129 41.9982L43.7209 38.8289C46.2262 38.1757 48.3444 37.1757 50.046 35.8209C59.2066 29.3077 64.0615 12.0983 63.1532 10.4316L63.156 10.4374ZM60.7126 11.0556L27.5251 36.4745C28.7724 26.9374 31.5814 20.486 35.9226 17.2896C42.9012 11.5424 56.4784 10.7387 60.7146 11.0559L60.7126 11.0556ZM21.3159 44.2293C19.9746 43.396 18.7703 42.3288 17.7596 41.052L4.57737 24.3966C2.27365 21.4827 1.24142 17.8323 1.6742 14.115C2.10698 10.3977 3.94833 7.08003 6.86223 4.77679C12.9023 -0.00262137 21.7029 1.02155 26.4828 7.06166L28.2892 9.34384C28.5795 9.70942 29.1977 9.70942 29.4881 9.34384L31.2945 7.06166C33.5982 4.14775 36.9153 2.3064 40.6327 1.87362C44.3476 1.44084 48.0007 2.47038 50.9143 4.77679C52.5487 6.06976 53.8659 7.72022 54.7771 9.58848C48.5192 10.067 40.1216 11.8546 34.9818 16.0883C30.1781 19.6258 27.1162 26.7388 25.8824 37.2303C25.8528 37.483 25.8313 37.6846 25.8125 37.8217C25.1351 38.4749 22.783 40.8861 21.3153 44.2328L21.3159 44.2293ZM40.0171 41.052C37.3317 44.4443 33.2673 46.3663 28.8801 46.3206C26.6866 46.3448 24.5738 45.8743 22.676 44.9739C23.9905 41.9148 26.1517 39.6353 26.7888 39.0009C26.9205 39.0197 27.0818 39.0439 27.2968 39.0762C30.3559 39.5278 33.1784 39.7536 35.7563 39.7536C37.7938 39.7536 39.6648 39.5977 41.3932 39.3154L40.0169 41.0546L40.0171 41.052ZM49.1296 34.6032C47.549 35.8612 45.5679 36.7887 43.2077 37.3935C43.1755 37.3962 43.1459 37.4123 43.1136 37.4204C39.2401 38.3908 34.3342 38.4768 28.4526 37.6865L61.64 12.2703C60.8416 16.4422 56.5246 29.3426 49.1267 34.6056L49.1296 34.6032ZM8.35944 21.1788C8.62019 21.5094 8.56642 21.9906 8.2331 22.254C8.09333 22.3642 7.92397 22.418 7.76 22.418C7.53421 22.418 7.31109 22.3185 7.16056 22.1277C4.60959 18.9047 4.38649 14.4018 6.60144 10.9267C6.82993 10.5718 7.30301 10.467 7.65789 10.6928C8.01271 10.9186 8.11755 11.3917 7.89175 11.7492C6.02624 14.6766 6.21435 18.4666 8.35944 21.1788ZM9.81371 8.68473C10.0745 9.01536 10.0207 9.49654 9.69006 9.75996C9.55565 9.86749 9.42393 9.9777 9.2976 10.0906C9.15244 10.2223 8.96696 10.2868 8.78686 10.2868C8.57719 10.2868 8.3702 10.2008 8.21967 10.0341C7.93742 9.71964 7.96162 9.23851 8.27612 8.95355C8.42666 8.81914 8.58256 8.68742 8.74385 8.5584C9.07449 8.29765 9.55566 8.35141 9.81909 8.68205L9.81371 8.68473Z" fill="#825300"/>
</svg>
