<svg width="30" height="30" viewBox="0 0 30 30" fill="none" xmlns="http://www.w3.org/2000/svg">
<path d="M0 22.4987C0 23.3828 0.35119 24.2306 0.976311 24.8557C1.60143 25.4808 2.44928 25.832 3.33333 25.832H26.6667C27.5507 25.832 28.3986 25.4808 29.0237 24.8557C29.6488 24.2306 30 23.3828 30 22.4987V18.332H0V22.4987Z" fill="#138808"/>
<path d="M30 11.668V7.5013C30 6.61725 29.6488 5.7694 29.0237 5.14428C28.3986 4.51916 27.5507 4.16797 26.6667 4.16797H3.33333C2.44928 4.16797 1.60143 4.51916 0.976311 5.14428C0.35119 5.7694 0 6.61725 0 7.5013L0 11.668H30Z" fill="#FF9933"/>
<path d="M0 11.3906H30V18.6131H0V11.3906Z" fill="#F7F7F7"/>
<path d="M15.0003 18.3346C16.8413 18.3346 18.3337 16.8423 18.3337 15.0013C18.3337 13.1604 16.8413 11.668 15.0003 11.668C13.1594 11.668 11.667 13.1604 11.667 15.0013C11.667 16.8423 13.1594 18.3346 15.0003 18.3346Z" fill="#000080"/>
<path d="M15 17.8125C16.5533 17.8125 17.8125 16.5533 17.8125 15C17.8125 13.4467 16.5533 12.1875 15 12.1875C13.4467 12.1875 12.1875 13.4467 12.1875 15C12.1875 16.5533 13.4467 17.8125 15 17.8125Z" fill="#F7F7F7"/>
<path d="M15.083 13.957L14.9997 14.4987L14.9163 13.957L14.9997 12.332L15.083 13.957ZM14.3097 12.4229L14.6497 14.0137L14.8705 14.5154L14.8105 13.9712L14.3097 12.4229ZM13.6663 12.6895L14.4063 14.1379L14.7497 14.5654L14.5513 14.0545L13.6663 12.6895ZM13.1138 13.1129L14.2038 14.3212L14.6463 14.6454L14.3222 14.2029L13.1138 13.1129ZM12.6905 13.6654L14.0555 14.5504L14.5663 14.7487L14.1388 14.4054L12.6905 13.6654ZM12.4238 14.3087L13.9722 14.8095L14.5163 14.8695L14.0147 14.6487L12.4238 14.3087ZM12.333 14.9987L13.958 15.082L14.4997 14.9987L13.958 14.9154L12.333 14.9987ZM12.4238 15.6887L14.0147 15.3487L14.5163 15.1279L13.9722 15.1879L12.4238 15.6887ZM12.6905 16.332L14.1388 15.592L14.5663 15.2487L14.0555 15.447L12.6905 16.332ZM13.1138 16.8845L14.3222 15.7945L14.6463 15.352L14.2038 15.6762L13.1138 16.8845ZM13.6663 17.3079L14.5513 15.9429L14.7497 15.432L14.4063 15.8595L13.6663 17.3079ZM14.3097 17.5745L14.8105 16.0262L14.8705 15.482L14.6497 15.9837L14.3097 17.5745ZM14.9997 17.6654L15.083 16.0404L14.9997 15.4987L14.9163 16.0404L14.9997 17.6654ZM15.6897 17.5745L15.3497 15.9837L15.1288 15.482L15.1888 16.0262L15.6897 17.5745ZM16.333 17.3079L15.593 15.8595L15.2497 15.432L15.448 15.9429L16.333 17.3079ZM16.8855 16.8845L15.7955 15.6762L15.353 15.352L15.6772 15.7945L16.8855 16.8845ZM17.3088 16.332L15.9438 15.447L15.433 15.2487L15.8605 15.592L17.3088 16.332ZM17.5755 15.6887L16.0272 15.1879L15.483 15.1279L15.9847 15.3487L17.5755 15.6887ZM17.6663 14.9987L16.0413 14.9154L15.4997 14.9987L16.0413 15.082L17.6663 14.9987ZM17.5755 14.3087L15.9847 14.6487L15.483 14.8695L16.0272 14.8095L17.5755 14.3087ZM17.3088 13.6654L15.8605 14.4054L15.433 14.7487L15.9438 14.5504L17.3088 13.6654ZM16.8855 13.1129L15.6772 14.2029L15.353 14.6454L15.7955 14.3212L16.8855 13.1129ZM16.333 12.6895L15.448 14.0545L15.2497 14.5654L15.593 14.1379L16.333 12.6895ZM15.6897 12.4229L15.1888 13.9712L15.1288 14.5154L15.3497 14.0137L15.6897 12.4229Z" fill="#6666B3"/>
<path d="M14.6335 12.3841C14.7255 12.3841 14.8001 12.3095 14.8001 12.2174C14.8001 12.1254 14.7255 12.0508 14.6335 12.0508C14.5414 12.0508 14.4668 12.1254 14.4668 12.2174C14.4668 12.3095 14.5414 12.3841 14.6335 12.3841Z" fill="#000080"/>
<path d="M13.9245 12.5755C14.0165 12.5755 14.0911 12.5009 14.0911 12.4089C14.0911 12.3168 14.0165 12.2422 13.9245 12.2422C13.8324 12.2422 13.7578 12.3168 13.7578 12.4089C13.7578 12.5009 13.8324 12.5755 13.9245 12.5755Z" fill="#000080"/>
<path d="M13.2897 12.9388C13.3818 12.9388 13.4564 12.8642 13.4564 12.7721C13.4564 12.6801 13.3818 12.6055 13.2897 12.6055C13.1977 12.6055 13.123 12.6801 13.123 12.7721C13.123 12.8642 13.1977 12.9388 13.2897 12.9388Z" fill="#000080"/>
<path d="M12.7712 13.4583C12.8632 13.4583 12.9378 13.3837 12.9378 13.2917C12.9378 13.1996 12.8632 13.125 12.7712 13.125C12.6791 13.125 12.6045 13.1996 12.6045 13.2917C12.6045 13.3837 12.6791 13.4583 12.7712 13.4583Z" fill="#000080"/>
<path d="M12.4059 14.0951C12.498 14.0951 12.5726 14.0204 12.5726 13.9284C12.5726 13.8363 12.498 13.7617 12.4059 13.7617C12.3139 13.7617 12.2393 13.8363 12.2393 13.9284C12.2393 14.0204 12.3139 14.0951 12.4059 14.0951Z" fill="#000080"/>
<path d="M12.2155 14.8021C12.3075 14.8021 12.3822 14.7275 12.3822 14.6354C12.3822 14.5434 12.3075 14.4688 12.2155 14.4688C12.1234 14.4688 12.0488 14.5434 12.0488 14.6354C12.0488 14.7275 12.1234 14.8021 12.2155 14.8021Z" fill="#000080"/>
<path d="M12.2155 15.5365C12.3075 15.5365 12.3822 15.4618 12.3822 15.3698C12.3822 15.2777 12.3075 15.2031 12.2155 15.2031C12.1234 15.2031 12.0488 15.2777 12.0488 15.3698C12.0488 15.4618 12.1234 15.5365 12.2155 15.5365Z" fill="#000080"/>
<path d="M12.4059 16.2435C12.498 16.2435 12.5726 16.1689 12.5726 16.0768C12.5726 15.9848 12.498 15.9102 12.4059 15.9102C12.3139 15.9102 12.2393 15.9848 12.2393 16.0768C12.2393 16.1689 12.3139 16.2435 12.4059 16.2435Z" fill="#000080"/>
<path d="M12.7712 16.8802C12.8632 16.8802 12.9378 16.8056 12.9378 16.7135C12.9378 16.6215 12.8632 16.5469 12.7712 16.5469C12.6791 16.5469 12.6045 16.6215 12.6045 16.7135C12.6045 16.8056 12.6791 16.8802 12.7712 16.8802Z" fill="#000080"/>
<path d="M13.2897 17.3958C13.3818 17.3958 13.4564 17.3212 13.4564 17.2292C13.4564 17.1371 13.3818 17.0625 13.2897 17.0625C13.1977 17.0625 13.123 17.1371 13.123 17.2292C13.123 17.3212 13.1977 17.3958 13.2897 17.3958Z" fill="#000080"/>
<path d="M13.9245 17.763C14.0165 17.763 14.0911 17.6884 14.0911 17.5964C14.0911 17.5043 14.0165 17.4297 13.9245 17.4297C13.8324 17.4297 13.7578 17.5043 13.7578 17.5964C13.7578 17.6884 13.8324 17.763 13.9245 17.763Z" fill="#000080"/>
<path d="M14.6335 17.9505C14.7255 17.9505 14.8001 17.8759 14.8001 17.7839C14.8001 17.6918 14.7255 17.6172 14.6335 17.6172C14.5414 17.6172 14.4668 17.6918 14.4668 17.7839C14.4668 17.8759 14.5414 17.9505 14.6335 17.9505Z" fill="#000080"/>
<path d="M15.3659 17.9505C15.4579 17.9505 15.5326 17.8759 15.5326 17.7839C15.5326 17.6918 15.4579 17.6172 15.3659 17.6172C15.2738 17.6172 15.1992 17.6918 15.1992 17.7839C15.1992 17.8759 15.2738 17.9505 15.3659 17.9505Z" fill="#000080"/>
<path d="M16.0749 17.763C16.1669 17.763 16.2415 17.6884 16.2415 17.5964C16.2415 17.5043 16.1669 17.4297 16.0749 17.4297C15.9828 17.4297 15.9082 17.5043 15.9082 17.5964C15.9082 17.6884 15.9828 17.763 16.0749 17.763Z" fill="#000080"/>
<path d="M16.7096 17.3958C16.8017 17.3958 16.8763 17.3212 16.8763 17.2292C16.8763 17.1371 16.8017 17.0625 16.7096 17.0625C16.6176 17.0625 16.543 17.1371 16.543 17.2292C16.543 17.3212 16.6176 17.3958 16.7096 17.3958Z" fill="#000080"/>
<path d="M17.2282 16.8802C17.3202 16.8802 17.3949 16.8056 17.3949 16.7135C17.3949 16.6215 17.3202 16.5469 17.2282 16.5469C17.1361 16.5469 17.0615 16.6215 17.0615 16.7135C17.0615 16.8056 17.1361 16.8802 17.2282 16.8802Z" fill="#000080"/>
<path d="M17.5934 16.2435C17.6855 16.2435 17.7601 16.1689 17.7601 16.0768C17.7601 15.9848 17.6855 15.9102 17.5934 15.9102C17.5014 15.9102 17.4268 15.9848 17.4268 16.0768C17.4268 16.1689 17.5014 16.2435 17.5934 16.2435Z" fill="#000080"/>
<path d="M17.7839 15.5365C17.8759 15.5365 17.9505 15.4618 17.9505 15.3698C17.9505 15.2777 17.8759 15.2031 17.7839 15.2031C17.6918 15.2031 17.6172 15.2777 17.6172 15.3698C17.6172 15.4618 17.6918 15.5365 17.7839 15.5365Z" fill="#000080"/>
<path d="M17.7839 14.8021C17.8759 14.8021 17.9505 14.7275 17.9505 14.6354C17.9505 14.5434 17.8759 14.4688 17.7839 14.4688C17.6918 14.4688 17.6172 14.5434 17.6172 14.6354C17.6172 14.7275 17.6918 14.8021 17.7839 14.8021Z" fill="#000080"/>
<path d="M17.5934 14.0951C17.6855 14.0951 17.7601 14.0204 17.7601 13.9284C17.7601 13.8363 17.6855 13.7617 17.5934 13.7617C17.5014 13.7617 17.4268 13.8363 17.4268 13.9284C17.4268 14.0204 17.5014 14.0951 17.5934 14.0951Z" fill="#000080"/>
<path d="M17.2282 13.4583C17.3202 13.4583 17.3949 13.3837 17.3949 13.2917C17.3949 13.1996 17.3202 13.125 17.2282 13.125C17.1361 13.125 17.0615 13.1996 17.0615 13.2917C17.0615 13.3837 17.1361 13.4583 17.2282 13.4583Z" fill="#000080"/>
<path d="M16.7096 12.9388C16.8017 12.9388 16.8763 12.8642 16.8763 12.7721C16.8763 12.6801 16.8017 12.6055 16.7096 12.6055C16.6176 12.6055 16.543 12.6801 16.543 12.7721C16.543 12.8642 16.6176 12.9388 16.7096 12.9388Z" fill="#000080"/>
<path d="M16.0749 12.5755C16.1669 12.5755 16.2415 12.5009 16.2415 12.4089C16.2415 12.3168 16.1669 12.2422 16.0749 12.2422C15.9828 12.2422 15.9082 12.3168 15.9082 12.4089C15.9082 12.5009 15.9828 12.5755 16.0749 12.5755Z" fill="#000080"/>
<path d="M15.3659 12.3841C15.4579 12.3841 15.5326 12.3095 15.5326 12.2174C15.5326 12.1254 15.4579 12.0508 15.3659 12.0508C15.2738 12.0508 15.1992 12.1254 15.1992 12.2174C15.1992 12.3095 15.2738 12.3841 15.3659 12.3841Z" fill="#000080"/>
<path d="M15 15.75C15.4142 15.75 15.75 15.4142 15.75 15C15.75 14.5858 15.4142 14.25 15 14.25C14.5858 14.25 14.25 14.5858 14.25 15C14.25 15.4142 14.5858 15.75 15 15.75Z" fill="#000080"/>
</svg>
