<svg width="34" height="34" viewBox="0 0 34 34" fill="none" xmlns="http://www.w3.org/2000/svg">
<path d="M10.0007 0.333984H24.0007C29.334 0.333984 33.6673 4.66732 33.6673 10.0007V24.0007C33.6673 26.5644 32.6489 29.0232 30.836 30.836C29.0232 32.6489 26.5644 33.6673 24.0007 33.6673H10.0007C4.66732 33.6673 0.333984 29.334 0.333984 24.0007V10.0007C0.333984 7.43689 1.35243 4.97814 3.16529 3.16529C4.97814 1.35243 7.43689 0.333984 10.0007 0.333984ZM9.66732 3.66732C8.07602 3.66732 6.5499 4.29946 5.42468 5.42468C4.29946 6.5499 3.66732 8.07602 3.66732 9.66732V24.334C3.66732 27.6506 6.35065 30.334 9.66732 30.334H24.334C25.9253 30.334 27.4514 29.7018 28.5766 28.5766C29.7018 27.4514 30.334 25.9253 30.334 24.334V9.66732C30.334 6.35065 27.6506 3.66732 24.334 3.66732H9.66732ZM25.7507 6.16732C26.3032 6.16732 26.8331 6.38681 27.2238 6.77751C27.6145 7.16821 27.834 7.69812 27.834 8.25065C27.834 8.80319 27.6145 9.33309 27.2238 9.72379C26.8331 10.1145 26.3032 10.334 25.7507 10.334C25.1981 10.334 24.6682 10.1145 24.2775 9.72379C23.8868 9.33309 23.6673 8.80319 23.6673 8.25065C23.6673 7.69812 23.8868 7.16821 24.2775 6.77751C24.6682 6.38681 25.1981 6.16732 25.7507 6.16732ZM17.0007 8.66732C19.2108 8.66732 21.3304 9.54529 22.8932 11.1081C24.456 12.6709 25.334 14.7905 25.334 17.0007C25.334 19.2108 24.456 21.3304 22.8932 22.8932C21.3304 24.456 19.2108 25.334 17.0007 25.334C14.7905 25.334 12.6709 24.456 11.1081 22.8932C9.54529 21.3304 8.66732 19.2108 8.66732 17.0007C8.66732 14.7905 9.54529 12.6709 11.1081 11.1081C12.6709 9.54529 14.7905 8.66732 17.0007 8.66732ZM17.0007 12.0007C15.6746 12.0007 14.4028 12.5274 13.4651 13.4651C12.5274 14.4028 12.0007 15.6746 12.0007 17.0007C12.0007 18.3267 12.5274 19.5985 13.4651 20.5362C14.4028 21.4739 15.6746 22.0007 17.0007 22.0007C18.3267 22.0007 19.5985 21.4739 20.5362 20.5362C21.4739 19.5985 22.0007 18.3267 22.0007 17.0007C22.0007 15.6746 21.4739 14.4028 20.5362 13.4651C19.5985 12.5274 18.3267 12.0007 17.0007 12.0007Z" fill="#FFF5F5"/>
</svg>
