<svg width="45" height="45" viewBox="0 0 45 45" fill="none" xmlns="http://www.w3.org/2000/svg">
<path d="M13.1321 0.394531H31.5824C38.6111 0.394531 44.3219 6.10534 44.3219 13.134V31.5843C44.3219 34.9631 42.9797 38.2034 40.5906 40.5925C38.2015 42.9816 34.9611 44.3238 31.5824 44.3238H13.1321C6.10339 44.3238 0.392578 38.613 0.392578 31.5843V13.134C0.392578 9.75531 1.73477 6.51496 4.12389 4.12584C6.51301 1.73672 9.75335 0.394531 13.1321 0.394531ZM12.6928 4.78746C10.5956 4.78746 8.5844 5.62055 7.1015 7.10345C5.61859 8.58635 4.78551 10.5976 4.78551 12.6947V32.0236C4.78551 36.3946 8.32182 39.9309 12.6928 39.9309H32.0217C34.1188 39.9309 36.1301 39.0978 37.613 37.6149C39.0959 36.132 39.929 34.1208 39.929 32.0236V12.6947C39.929 8.32377 36.3926 4.78746 32.0217 4.78746H12.6928ZM33.8887 8.08216C34.6168 8.08216 35.3152 8.37143 35.8301 8.88632C36.345 9.40122 36.6343 10.0996 36.6343 10.8277C36.6343 11.5559 36.345 12.2543 35.8301 12.7692C35.3152 13.2841 34.6168 13.5733 33.8887 13.5733C33.1605 13.5733 32.4621 13.2841 31.9473 12.7692C31.4324 12.2543 31.1431 11.5559 31.1431 10.8277C31.1431 10.0996 31.4324 9.40122 31.9473 8.88632C32.4621 8.37143 33.1605 8.08216 33.8887 8.08216ZM22.3572 11.3769C25.2699 11.3769 28.0633 12.5339 30.1229 14.5935C32.1825 16.6531 33.3396 19.4465 33.3396 22.3592C33.3396 25.2719 32.1825 28.0653 30.1229 30.1249C28.0633 32.1844 25.2699 33.3415 22.3572 33.3415C19.4445 33.3415 16.6511 32.1844 14.5916 30.1249C12.532 28.0653 11.3749 25.2719 11.3749 22.3592C11.3749 19.4465 12.532 16.6531 14.5916 14.5935C16.6511 12.5339 19.4445 11.3769 22.3572 11.3769ZM22.3572 15.7698C20.6096 15.7698 18.9336 16.464 17.6978 17.6998C16.4621 18.9355 15.7678 20.6116 15.7678 22.3592C15.7678 24.1068 16.4621 25.7828 17.6978 27.0186C18.9336 28.2543 20.6096 28.9486 22.3572 28.9486C24.1048 28.9486 25.7809 28.2543 27.0166 27.0186C28.2524 25.7828 28.9466 24.1068 28.9466 22.3592C28.9466 20.6116 28.2524 18.9355 27.0166 17.6998C25.7809 16.464 24.1048 15.7698 22.3572 15.7698Z" fill="#C58940"/>
</svg>
