<svg width="53" height="60" viewBox="0 0 53 60" fill="none" xmlns="http://www.w3.org/2000/svg">
<path d="M48.6114 0.899146C45.7037 0.912971 40.7801 1.08347 35.2131 1.90141C26.3077 3.21015 15.684 6.13861 8.87958 12.9332C4.55255 17.2557 1.64221 23.6218 0.845328 30.0269C0.0919214 36.0864 1.24624 42.2384 5.10093 46.6139C3.74612 50.5953 3.10561 54.7679 3.53419 59.0537C3.55953 59.2956 3.67934 59.5191 3.86828 59.6735C4.05721 59.8302 4.30145 59.9039 4.54336 59.8786C4.78759 59.8532 5.01108 59.7334 5.16546 59.5445C5.31984 59.3555 5.39357 59.1136 5.36822 58.8694C5.00188 55.2059 5.49034 51.5884 6.58017 48.0888C10.9049 51.9044 16.801 53.2983 22.7342 52.6716C29.0361 52.0057 35.4294 49.0749 40.2472 44.264C45.8324 38.6858 47.0145 28.9923 47.8043 20.3087C48.1983 15.9678 48.4771 11.8598 49.0554 8.67107C49.6361 5.48226 50.5761 3.34638 51.7858 2.66175V2.66405C52.1429 2.46129 52.3249 2.04884 52.2305 1.64793C52.1337 1.24932 51.7881 0.96129 51.378 0.940586C51.378 0.940586 50.3572 0.892201 48.6131 0.899113L48.6114 0.899146ZM48.5861 2.74241C48.7958 2.74241 48.934 2.74471 49.1206 2.74471C48.1805 4.15709 47.646 6.10634 47.2405 8.34132C46.6299 11.6984 46.358 15.8294 45.9663 20.1429C45.1829 28.7717 43.8442 38.0641 38.9436 42.9604C34.4392 47.458 28.4073 50.2184 22.5389 50.8401C16.7419 51.453 11.1496 49.9968 7.23544 46.1836C9.9266 39.0435 14.9978 32.4674 20.2468 27.0945C28.4999 18.6527 37.0644 13.2585 37.0644 13.2585L37.069 13.2609C37.4999 12.989 37.6289 12.4199 37.357 11.989C37.1819 11.7102 36.8709 11.5466 36.5437 11.5582C36.3801 11.5651 36.2234 11.6135 36.0875 11.701C36.0875 11.701 27.3572 17.1893 18.9337 25.8089C13.8025 31.0576 8.73822 37.4931 5.84858 44.6172C2.93622 40.7901 2.0169 35.5667 2.67587 30.2557C3.42237 24.2511 6.20803 18.2076 10.1828 14.2379C16.487 7.94077 26.7627 5.00807 35.4818 3.72693C40.9309 2.9274 45.7439 2.75924 48.5875 2.74537L48.5861 2.74241Z" fill="#825300"/>
</svg>
