<svg width="41" height="41" viewBox="0 0 41 41" fill="none" xmlns="http://www.w3.org/2000/svg">
<path d="M36.0184 0.589844C37.1835 0.589844 38.3009 1.05267 39.1247 1.8765C39.9486 2.70034 40.4114 3.8177 40.4114 4.98277V35.7333C40.4114 36.8984 39.9486 38.0157 39.1247 38.8396C38.3009 39.6634 37.1835 40.1262 36.0184 40.1262H5.26793C4.10285 40.1262 2.98549 39.6634 2.16166 38.8396C1.33783 38.0157 0.875 36.8984 0.875 35.7333V4.98277C0.875 3.8177 1.33783 2.70034 2.16166 1.8765C2.98549 1.05267 4.10285 0.589844 5.26793 0.589844H36.0184ZM34.9202 34.6351V22.9938C34.9202 21.0947 34.1658 19.2734 32.823 17.9306C31.4801 16.5877 29.6588 15.8333 27.7597 15.8333C25.8927 15.8333 23.7182 16.9755 22.6639 18.6887V16.2506H16.5358V34.6351H22.6639V23.8065C22.6639 22.1152 24.0257 20.7314 25.717 20.7314C26.5326 20.7314 27.3147 21.0554 27.8914 21.6321C28.4681 22.2088 28.7921 22.9909 28.7921 23.8065V34.6351H34.9202ZM9.39729 12.8022C10.376 12.8022 11.3145 12.4134 12.0066 11.7214C12.6986 11.0294 13.0873 10.0908 13.0873 9.11213C13.0873 7.06942 11.44 5.4001 9.39729 5.4001C8.4128 5.4001 7.46863 5.79119 6.77249 6.48733C6.07635 7.18347 5.68526 8.12764 5.68526 9.11213C5.68526 11.1548 7.35457 12.8022 9.39729 12.8022ZM12.4504 34.6351V16.2506H6.36616V34.6351H12.4504Z" fill="#C58940"/>
</svg>
