<svg width="40" height="41" viewBox="0 0 40 41" fill="none" xmlns="http://www.w3.org/2000/svg">
<path d="M20.933 34.9422C20.661 35.1375 20.3345 35.2426 19.9996 35.2426C19.6648 35.2426 19.3383 35.1375 19.0663 34.9422C11.018 29.2055 2.4763 17.4055 11.1113 8.87886C13.4819 6.54694 16.6744 5.24073 19.9996 5.24219C23.333 5.24219 26.5313 6.55052 28.888 8.87719C37.523 17.4039 28.9813 29.2022 20.933 34.9422Z" stroke="white" stroke-width="1.5" stroke-linecap="round" stroke-linejoin="round"/>
<path d="M19.9993 20.2419C20.8834 20.2419 21.7312 19.8907 22.3564 19.2656C22.9815 18.6404 23.3327 17.7926 23.3327 16.9085C23.3327 16.0245 22.9815 15.1766 22.3564 14.5515C21.7312 13.9264 20.8834 13.5752 19.9993 13.5752C19.1153 13.5752 18.2674 13.9264 17.6423 14.5515C17.0172 15.1766 16.666 16.0245 16.666 16.9085C16.666 17.7926 17.0172 18.6404 17.6423 19.2656C18.2674 19.8907 19.1153 20.2419 19.9993 20.2419Z" stroke="white" stroke-width="1.5" stroke-linecap="round" stroke-linejoin="round"/>
</svg>
