<svg width="42" height="58" viewBox="0 0 42 58" fill="none" xmlns="http://www.w3.org/2000/svg">
<path d="M20.791 1.32031H20.8125C21.8439 1.30402 22.8752 1.36107 23.8984 1.49121C27.2301 1.99919 30.3741 3.35903 33.0264 5.43848C35.6797 7.51885 37.751 10.2493 39.0391 13.3652L39.04 13.3672C40.0475 15.7853 40.5661 18.3794 40.5664 20.999V21.082L40.5645 21.2695C40.5626 21.3919 40.5593 21.5151 40.5557 21.6416C40.5538 21.7039 40.5527 21.753 40.5498 21.7998H40.5488V21.8076C40.5481 21.8223 40.5472 21.8362 40.5469 21.8467C40.5465 21.8591 40.5472 21.8648 40.5469 21.873C40.5466 21.8801 40.546 21.8846 40.5459 21.8867L40.5439 21.9053L40.543 21.9229C40.5355 22.0812 40.5259 22.2394 40.5146 22.3975C40.1767 26.7637 38.6891 30.9627 36.2021 34.5674L36.2002 34.5703C34.5619 36.9718 30.5762 42.5985 26.9951 47.6318C25.2057 50.1469 23.5188 52.5121 22.2793 54.248C21.6615 55.1134 21.1536 55.8219 20.8008 56.3154C20.4479 55.8219 19.9409 55.113 19.3232 54.248C18.0836 52.5121 16.397 50.1469 14.6074 47.6318C11.0259 42.5985 7.03967 36.9718 5.40137 34.5703L4.94434 33.8848C2.87745 30.6662 1.58271 27.0128 1.16211 23.2109L1.08594 22.3936C1.0747 22.2369 1.06496 22.0798 1.05762 21.9229L1.05664 21.9053L1.05566 21.8867L1.05469 21.874C1.05439 21.866 1.05411 21.8598 1.05371 21.8477C1.05336 21.8372 1.05345 21.8233 1.05273 21.8086L1.05176 21.7998L1.0459 21.6416C1.04219 21.5114 1.03786 21.3852 1.03613 21.2598V21.249L1.03418 21.082V20.999C1.03447 18.3794 1.55401 15.7854 2.56152 13.3672L2.5625 13.3652C3.85057 10.2495 5.92102 7.5188 8.57422 5.43848C11.2268 3.35868 14.3719 1.99904 17.7041 1.49121C18.7276 1.36123 19.7594 1.30406 20.791 1.32031ZM29.6465 10.623C29.066 11.0311 28.4619 11.4186 27.8428 11.8105C27.2276 12.2 26.5941 12.5957 25.9766 13.0107C24.7399 13.8418 23.5225 14.7757 22.5127 15.9834L22.5068 15.9902C21.4123 17.3365 20.6223 18.9038 20.1895 20.584C19.7566 22.2643 19.6911 24.0189 19.999 25.7266L20.2734 27.2441L21.1865 26.0508C20.5809 27.1823 20.0065 28.3312 19.4863 29.5059C19.9407 25.9778 19.2389 22.3833 17.4639 19.2725L17.46 19.2656L17.1729 18.7861C15.7147 16.4016 13.9275 14.233 11.8643 12.3447L11.0566 11.6055L10.751 12.6572C9.67441 16.3555 9.81651 20.3022 11.1572 23.9131L11.166 23.9365L11.1768 23.959C12.6322 27.1538 15.1448 29.749 18.291 31.3066L18.6543 31.4863L18.5801 31.667L18.876 31.5957L19.0762 31.6953L19.1084 31.541L19.876 31.3594C21.5936 30.9507 23.2588 30.3473 24.8408 29.5635L24.8418 29.5645C27.0885 28.537 28.9668 26.8461 30.2246 24.7197L30.2373 24.6973L30.249 24.6748C31.1067 22.9391 31.555 21.0313 31.5625 19.0986L31.5586 18.7119C31.5314 16.1316 31.2449 13.5603 30.7041 11.0371L30.4893 10.0312L29.6465 10.623Z" fill="#D5C6AA" stroke="#825300" stroke-width="1.36228"/>
</svg>
