<svg width="35" height="35" viewBox="0 0 35 35" fill="none" xmlns="http://www.w3.org/2000/svg">
<path d="M7.59281 4.35546C21.6648 10.2438 30.4678 20.268 34.9741 34.4465C33.3603 34.5179 33.1894 33.5623 32.9602 32.9149C31.0228 28.0825 27.8749 24.0805 24.8053 20.0769C20.3924 14.2978 14.3769 10.393 7.4816 7.42664C7.1972 7.27903 6.85178 7.24768 6.0972 7.10967C7.64908 10.262 10.9662 11.9205 11.5805 15.2838C11.3627 15.4033 11.1305 15.5998 10.9128 15.7194C9.33726 14.1405 7.72985 12.5239 6.10771 10.984C4.48572 9.44438 2.84931 7.98187 1.27376 6.4029C0.127658 5.23713 0.423975 4.08014 2.20044 3.35327C4.49068 2.38571 6.83308 1.76232 9.15804 1.02416C9.40771 0.942389 9.73571 0.858945 9.95622 0.931096C10.4931 1.18871 10.8907 1.56424 11.4131 1.8988C11.0123 2.36724 10.661 2.98829 10.2111 3.30446C9.5898 3.70073 8.90193 3.82996 7.59281 4.35546Z" fill="#593B06"/>
</svg>
