<svg width="94" height="57" viewBox="0 0 94 57" fill="none" xmlns="http://www.w3.org/2000/svg">
<path d="M89.0616 37.5001H74.9996H69.1168C66.7027 37.5001 64.5074 38.6759 63.1715 40.6251H1.5625C0.69922 40.6251 0 41.3243 0 42.1876C0 49.9415 6.3086 56.2496 14.062 56.2496H20.312H51.562C59.1479 56.2496 65.335 50.2066 65.601 42.6836C66.3315 41.418 67.644 40.625 69.1205 40.625H70.601C69.4526 43.5781 71.8354 46.9375 74.9994 46.875H89.0614C95.2372 46.7148 95.2452 37.6603 89.0616 37.5001ZM51.5616 53.1251H14.0616C8.5616 53.1251 3.9956 49.0431 3.2376 43.7501H62.3896C61.6279 49.0431 57.0654 53.1251 51.5656 53.1251H51.5616ZM89.0616 43.7501H74.9996C72.9488 43.7149 72.9449 40.6603 74.9996 40.6251H89.0616C91.1085 40.6603 91.1202 43.7149 89.0616 43.7501Z" fill="#825300"/>
<path d="M9.14614 38.9805C9.96255 39.2618 10.8492 38.8243 11.1305 38.0078C11.5524 36.7695 12.7282 35.9414 14.0563 35.9414C15.3844 35.9414 16.5602 36.7735 16.9821 38.0078C17.2595 38.8321 18.1696 39.2617 18.9665 38.9805C19.783 38.7032 20.2204 37.8125 19.9392 36.9961C19.0837 34.4961 16.7204 32.8125 14.0564 32.8125C11.3923 32.8125 9.0252 34.4922 8.1736 36.9961C7.89626 37.8125 8.32973 38.6992 9.14614 38.9805Z" fill="#825300"/>
<path d="M28.123 37.5C36.3808 37.2383 36.3808 25.262 28.123 25C19.8652 25.2617 19.8652 37.238 28.123 37.5ZM28.123 28.125C32.2441 28.2344 32.2441 34.2695 28.123 34.375C24.0019 34.2656 24.0019 28.2305 28.123 28.125Z" fill="#825300"/>
<path d="M34.7374 36.9961C34.1085 38.9492 36.9952 39.9375 37.6944 38.0078C38.5577 35.289 42.6866 35.289 43.5499 38.0078C44.253 39.9453 47.1397 38.9453 46.5069 36.9961C44.6944 31.4805 36.5504 31.4805 34.7374 36.9961Z" fill="#825300"/>
<path d="M53.1231 39.0625C59.3028 38.9023 59.3028 29.8477 53.1231 29.6875C46.9434 29.8477 46.9434 38.9023 53.1231 39.0625ZM53.1231 32.8125C55.1778 32.8477 55.1778 35.9023 53.1231 35.9375C51.0684 35.9023 51.0684 32.8477 53.1231 32.8125Z" fill="#825300"/>
<path d="M28.3148 23.4381C29.4437 23.4615 30.2484 22.1764 29.7093 21.1725C27.7757 17.1608 27.4554 14.442 29.553 11.528C31.8382 8.64131 31.9007 4.30141 29.6624 0.774013C29.2249 0.0279235 28.2679 -0.222077 27.5257 0.215423C26.7796 0.652923 26.5296 1.60992 26.9671 2.35212C27.971 4.06302 28.3694 5.67242 28.1507 7.13732C27.7562 9.40292 26.1468 10.3404 25.4515 12.6842C24.5335 15.4928 25.0296 18.8209 26.9203 22.5787C27.1977 23.1217 27.7445 23.4381 28.3187 23.4381L28.3148 23.4381Z" fill="#825300"/>
<path d="M18.9396 23.437C20.1701 23.4722 20.9669 21.9409 20.2013 20.9526C18.4005 18.3862 18.2052 16.8667 20.006 15.1909C22.4044 13.1362 22.6701 9.50734 20.131 6.80034C19.5724 6.14018 18.588 6.05815 17.9279 6.61675C17.2677 7.17534 17.1857 8.15975 17.7443 8.81985C18.6036 9.83545 18.9552 10.734 18.7912 11.4996C18.3966 12.8316 16.7639 13.6363 16.1428 15.1793C15.0959 17.3981 15.6076 19.9605 17.674 22.7926C17.9787 23.2105 18.4552 23.4332 18.9396 23.4332V23.437Z" fill="#825300"/>
<path d="M37.6028 23.437C38.8333 23.4722 39.6301 21.9409 38.8645 20.9526C37.0637 18.3862 36.8684 16.8667 38.6652 15.1909C41.0636 13.1362 41.3293 9.50735 38.7941 6.80425C38.2356 6.14409 37.2511 6.06206 36.591 6.62066C35.9309 7.17926 35.8489 8.16366 36.4075 8.82376C37.2668 9.83936 37.6184 10.7418 37.4544 11.5035C37.0598 12.8355 35.4271 13.6402 34.806 15.1832C33.7591 17.402 34.2747 19.9644 36.3372 22.7965C36.6418 23.2144 37.1184 23.437 37.6028 23.437Z" fill="#825300"/>
</svg>
