<svg width="100" height="120" viewBox="0 0 100 120" fill="none" xmlns="http://www.w3.org/2000/svg">
<path d="M51.9301 29.0275C52.715 29.0275 53.4894 29.0378 54.2428 29.0619C56.9444 29.1514 59.3517 29.4026 61.7661 29.8018C64.1909 30.2045 66.5457 30.7482 68.7883 31.7015V31.7049C71.0589 32.6686 73.1544 34.0348 74.4544 35.5423C75.6984 36.9911 76.2906 38.6604 76.5394 40.2675C76.5429 40.302 76.5464 40.3295 76.5534 40.3605C76.7917 41.9883 76.6655 43.4372 76.224 44.7553C75.765 46.1148 74.9626 47.3916 74.0444 48.837C73.9008 49.0641 73.8307 49.3326 73.8412 49.601C73.8832 50.7505 73.9288 51.8965 73.8727 55.0524C73.8342 57.1208 73.7501 60.0427 73.6695 62.8165V62.82L73.6029 65.0776L73.5433 66.967L73.5258 67.6587C73.4312 70.7974 73.3822 72.4907 73.2245 73.8845C73.0668 75.3334 72.8215 76.1559 71.928 76.975C70.8802 77.9387 68.8829 78.9401 66.9662 79.6181C66.854 79.6559 66.7454 79.6938 66.6333 79.7317C67.0363 78.1864 67.1729 75.7119 67.2605 73.6161C67.3587 71.3756 67.4042 69.3141 67.3691 65.5078C67.3376 61.7979 67.229 56.4226 67.1204 51.0192H67.1169C68.1926 49.1298 69.349 47.0442 69.829 44.8382C70.3511 42.4498 70.0918 39.8893 68.4659 37.5352C66.8856 35.2431 64.0928 33.2712 60.6553 31.9565C57.3334 30.6831 53.3492 29.9982 49.705 29.6438C49.5683 29.63 49.4422 29.6197 49.3055 29.6059V29.6094C47.7566 29.4648 46.257 29.3822 44.8202 29.3547H44.8167C45.2022 29.3168 45.5946 29.279 46.0046 29.248C47.8197 29.1069 49.8976 29.0275 51.9301 29.0275ZM43.6498 32.0354C45.3493 32.0354 47.1575 32.1146 49.0531 32.2866C49.1828 32.3004 49.3054 32.3107 49.4351 32.3245H49.4386C52.9672 32.6652 56.6711 33.3191 59.6605 34.4651C62.7581 35.6491 65.0218 37.3354 66.1992 39.0458C67.3345 40.6909 67.5413 42.477 67.1488 44.2735C66.7459 46.132 65.7156 47.9663 64.5488 50.0174C64.4297 50.2274 64.3701 50.4648 64.3736 50.7023C64.4857 56.2362 64.5979 61.7566 64.6294 65.5319C64.6609 69.2969 64.6189 71.3137 64.5243 73.5025C64.4262 75.767 64.2825 77.9799 63.9566 79.1535C63.7253 79.9795 63.5116 80.0621 62.8002 80.4338C62.187 80.7538 61.3355 81.2735 57.1866 81.4318C56.1319 81.4697 54.874 81.4869 53.5108 81.4869C51.5906 81.4869 49.4601 81.4559 47.3961 81.4146C46.1557 81.3905 44.9082 81.363 43.7834 81.3354C42.8022 81.3148 41.9017 81.2941 41.0958 81.2769C39.123 81.2391 37.7984 81.2288 36.7997 81.2219C35.5837 81.215 34.8655 81.2081 34.0069 81.1599C33.646 81.1393 33.257 81.1117 32.8611 81.0739L32.8576 81.0773H32.8681H32.8646L32.833 81.0739C31.491 80.9431 30.1524 80.7056 29.2308 80.3305C28.2637 79.9347 27.7171 79.4047 27.3877 77.7701C27.0162 75.9323 27.0057 73.0448 26.9987 69.9406V69.913L26.7604 60.16L26.5922 51.2598C26.5887 50.9948 26.5046 50.7401 26.3505 50.5198C25.4709 49.2602 24.7036 48.1555 24.2095 46.5518C23.6944 44.8792 23.4946 42.7351 23.8801 41.1107C24.2445 39.5757 25.1696 38.3677 26.6168 37.1116C26.8796 36.8844 27.1529 36.6573 27.4368 36.437L27.4333 36.4405C27.5033 36.3992 27.5699 36.3579 27.6365 36.3062C27.7346 36.2271 27.8327 36.1514 27.9308 36.0722L27.9273 36.0757C29.1117 35.2153 30.4784 34.4375 31.9746 33.8386C34.0525 33.0023 36.4318 32.4861 39.2876 32.2246C40.6472 32.1007 42.1045 32.0354 43.6498 32.0354ZM51.9301 26.3362C49.8241 26.3362 47.6726 26.4188 45.7873 26.5633V26.5668C43.1522 26.7698 40.9936 27.1036 38.5093 27.8057C36.0599 28.4974 33.2776 29.5471 31.1086 30.6828C29.0797 31.7462 27.6115 32.8682 26.2553 33.9419H26.2518C25.7367 34.3136 25.2531 34.699 24.8011 35.0948C23.1401 36.5368 21.7561 38.199 21.2094 40.498C20.6873 42.704 20.9746 45.3471 21.5843 47.3295C22.1625 49.2017 23.0421 50.5404 23.862 51.7175H23.8585L24.0197 60.2146V60.2215L24.258 69.9781C24.265 72.9516 24.265 76.1419 24.696 78.2894C25.1726 80.6503 26.2238 82.02 28.1791 82.815V82.8184C29.4861 83.3519 31.1541 83.6134 32.5627 83.7511H32.5662C33.0113 83.7958 33.4458 83.8268 33.8523 83.8475V83.8509C34.7879 83.9025 35.5763 83.906 36.7782 83.9163C37.7769 83.9232 39.0839 83.9301 41.0392 83.9679C41.8451 83.9851 42.7351 84.0058 43.7198 84.0264C44.8377 84.054 46.0991 84.0815 47.3396 84.1056C49.4001 84.1469 51.5481 84.1779 53.5069 84.1779C54.9015 84.1779 56.198 84.1607 57.2914 84.1194C59.7232 84.0299 61.2055 83.8131 62.2286 83.5446H62.2251C63.9632 83.2246 65.8098 82.8873 67.8913 82.1508C69.9271 81.4315 72.3415 80.2786 73.7992 78.9433C75.4076 77.4669 75.765 75.8563 75.9507 74.1768C76.1189 72.6521 76.1714 70.8247 76.2626 67.7342L76.2836 67.0459L76.3396 65.1565L76.4097 62.8954C76.4903 60.125 76.5744 57.1859 76.613 55.1003C76.6655 52.261 76.634 50.9945 76.5954 49.9139L76.5919 49.9173C77.4154 48.6164 78.2949 47.1779 78.8241 45.5982C79.4163 43.8431 79.5564 41.9743 79.2656 39.9782C79.2586 39.9369 79.2551 39.9025 79.2481 39.8646C78.9467 37.9064 78.2038 35.7279 76.5464 33.8041C74.8854 31.8768 72.387 30.3006 69.8816 29.2337C67.3481 28.1531 64.748 27.568 62.2251 27.1481C59.6916 26.7283 57.1616 26.4633 54.3338 26.3738C53.5488 26.3463 52.7431 26.3362 51.9301 26.3362Z" fill="#825300"/>
</svg>
