<svg width="111" height="135" viewBox="0 0 111 135" fill="none" xmlns="http://www.w3.org/2000/svg">
<path d="M97.2559 56.0939H83.1939H77.3111C74.897 56.0939 72.7017 57.2697 71.3658 59.2189H9.75684C8.89356 59.2189 8.19434 59.9181 8.19434 60.7814C8.19434 68.5353 14.5029 74.8433 22.2563 74.8433H28.5063H59.7563C67.3422 74.8433 73.5293 68.8004 73.7953 61.2774C74.5258 60.0118 75.8383 59.2188 77.3148 59.2188H78.7953C77.6469 62.1719 80.0297 65.5312 83.1937 65.4688H97.2557C103.432 65.3086 103.44 56.2541 97.2559 56.0939ZM59.7559 71.7189H22.2559C16.7559 71.7189 12.1899 67.6369 11.4319 62.3439H70.5839C69.8222 67.6369 65.2597 71.7189 59.7599 71.7189H59.7559ZM97.2559 62.3439H83.1939C81.1431 62.3087 81.1392 59.2541 83.1939 59.2189H97.2559C99.3028 59.254 99.3145 62.3087 97.2559 62.3439Z" fill="#825300"/>
<path d="M17.3424 57.5743C18.1588 57.8555 19.0455 57.418 19.3268 56.6016C19.7487 55.3633 20.9245 54.5352 22.2526 54.5352C23.5807 54.5352 24.7565 55.3672 25.1784 56.6016C25.4558 57.4258 26.3659 57.8555 27.1628 57.5743C27.9792 57.2969 28.4167 56.4063 28.1355 55.5899C27.28 53.0899 24.9167 51.4062 22.2527 51.4062C19.5886 51.4062 17.2215 53.086 16.3699 55.5899C16.0926 56.4063 16.526 57.293 17.3424 57.5743Z" fill="#825300"/>
<path d="M36.3183 56.0938C44.5761 55.832 44.5761 43.8557 36.3183 43.5938C28.0605 43.8555 28.0605 55.8317 36.3183 56.0938ZM36.3183 46.7188C40.4394 46.8281 40.4394 52.8632 36.3183 52.9688C32.1972 52.8594 32.1972 46.8242 36.3183 46.7188Z" fill="#825300"/>
<path d="M42.9318 55.5898C42.3028 57.5429 45.1896 58.5312 45.8888 56.6015C46.752 53.8827 50.881 53.8827 51.7443 56.6015C52.4474 58.539 55.3341 57.539 54.7013 55.5898C52.8888 50.0742 44.7448 50.0742 42.9318 55.5898Z" fill="#825300"/>
<path d="M61.3184 57.6562C67.4981 57.4961 67.4981 48.4414 61.3184 48.2812C55.1387 48.4414 55.1387 57.496 61.3184 57.6562ZM61.3184 51.4062C63.3731 51.4414 63.3731 54.496 61.3184 54.5312C59.2637 54.4961 59.2637 51.4415 61.3184 51.4062Z" fill="#825300"/>
<path d="M36.5101 42.0319C37.639 42.0553 38.4437 40.7702 37.9046 39.7663C35.971 35.7546 35.6507 33.0358 37.7483 30.1218C40.0335 27.2351 40.096 22.8952 37.8577 19.3678C37.4202 18.6217 36.4632 18.3717 35.721 18.8092C34.9749 19.2467 34.7249 20.2037 35.1624 20.9459C36.1663 22.6568 36.5647 24.2662 36.346 25.7311C35.9515 27.9967 34.3421 28.9342 33.6468 31.278C32.7289 34.0866 33.2249 37.4147 35.1156 41.1725C35.393 41.7154 35.9398 42.0319 36.514 42.0319L36.5101 42.0319Z" fill="#825300"/>
<path d="M27.1349 42.0308C28.3654 42.0659 29.1622 40.5347 28.3966 39.5464C26.5958 36.98 26.4005 35.4605 28.2013 33.7847C30.5997 31.73 30.8654 28.1011 28.3263 25.3941C27.7677 24.7339 26.7833 24.6519 26.1232 25.2105C25.463 25.7691 25.381 26.7535 25.9396 27.4136C26.799 28.4292 27.1505 29.3277 26.9865 30.0933C26.592 31.4253 24.9592 32.23 24.3381 33.773C23.2912 35.9918 23.8029 38.5542 25.8693 41.3863C26.174 41.8043 26.6505 42.0269 27.1349 42.0269V42.0308Z" fill="#825300"/>
<path d="M45.799 42.0308C47.0295 42.066 47.8263 40.5347 47.0607 39.5464C45.2599 36.98 45.0646 35.4605 46.8615 33.7847C49.2599 31.73 49.5256 28.1011 46.9904 25.398C46.4318 24.7378 45.4474 24.6558 44.7873 25.2144C44.1272 25.773 44.0451 26.7574 44.6037 27.4175C45.4631 28.4331 45.8146 29.3355 45.6506 30.0972C45.2561 31.4292 43.6233 32.2339 43.0022 33.7769C41.9553 35.9957 42.471 38.5581 44.5334 41.3902C44.8381 41.8082 45.3147 42.0308 45.799 42.0308Z" fill="#825300"/>
</svg>
