<svg width="22" height="22" viewBox="0 0 22 22" fill="none" xmlns="http://www.w3.org/2000/svg">
<path fill-rule="evenodd" clip-rule="evenodd" d="M6.16489 5.9934C5.40454 6.74255 4.82331 7.65385 4.46464 8.65919C4.10597 9.66454 3.97913 10.7379 4.09359 11.7992C4.10424 11.9417 4.05898 12.0828 3.96738 12.1926C3.87578 12.3024 3.74506 12.3721 3.6029 12.3871C3.46074 12.4022 3.31832 12.3612 3.20581 12.273C3.0933 12.1849 3.01956 12.0563 3.00019 11.9147C2.86817 10.689 3.01477 9.44923 3.42905 8.2881C3.84333 7.12697 4.51459 6.07443 5.39269 5.2091C8.62339 2.0224 13.8352 2.0741 17.0329 5.3169C20.2306 8.5597 20.2097 13.7704 16.9779 16.9571C15.4817 18.4345 13.4736 19.2784 11.3712 19.3133C10.5763 19.3279 9.78339 19.2275 9.01719 19.0152C8.87657 18.9764 8.75713 18.8833 8.68513 18.7565C8.61314 18.6296 8.59449 18.4793 8.63329 18.3387C8.67209 18.1981 8.76516 18.0786 8.89203 18.0066C9.0189 17.9346 9.16917 17.916 9.30979 17.9548C9.9743 18.139 10.662 18.226 11.3514 18.2133C13.1719 18.1847 14.911 17.454 16.2057 16.1739C19.0008 13.4173 19.0239 8.9029 16.2497 6.0891C13.4755 3.2753 8.95999 3.2368 6.16489 5.9934Z" fill="#F8E9CD"/>
<path fill-rule="evenodd" clip-rule="evenodd" d="M3.9534 12.4968C3.9053 12.5507 3.84706 12.5946 3.78199 12.6259C3.71693 12.6573 3.64633 12.6756 3.57421 12.6797C3.5021 12.6837 3.42989 12.6736 3.3617 12.6498C3.29351 12.6259 3.23068 12.5889 3.1768 12.5408L1.2848 10.8578C1.22664 10.8111 1.17858 10.7531 1.14355 10.6872C1.10852 10.6214 1.08724 10.5491 1.08102 10.4748C1.0748 10.4005 1.08375 10.3257 1.10735 10.2549C1.13094 10.1842 1.16868 10.1189 1.21827 10.0632C1.26786 10.0075 1.32826 9.96248 1.3958 9.93084C1.46334 9.8992 1.53661 9.88163 1.61115 9.8792C1.68569 9.87677 1.75995 9.88952 1.82941 9.91668C1.89888 9.94385 1.96209 9.98485 2.0152 10.0372L3.9072 11.7202C3.96124 11.7682 4.0053 11.8263 4.03687 11.8913C4.06844 11.9563 4.0869 12.0268 4.09119 12.0989C4.09548 12.1711 4.08552 12.2433 4.06188 12.3116C4.03823 12.3798 4.00137 12.4428 3.9534 12.4968Z" fill="#F8E9CD"/>
<path fill-rule="evenodd" clip-rule="evenodd" d="M3.10219 12.4284C3.14553 12.4862 3.19982 12.5349 3.26197 12.5717C3.32412 12.6085 3.39291 12.6327 3.46441 12.6429C3.53591 12.6531 3.60872 12.6492 3.67869 12.6312C3.74866 12.6133 3.81441 12.5818 3.87219 12.5384L6.07219 10.8884C6.18889 10.8009 6.26603 10.6706 6.28666 10.5262C6.30729 10.3818 6.26971 10.2351 6.18219 10.1184C6.09467 10.0017 5.96437 9.92459 5.81997 9.90396C5.67557 9.88334 5.52889 9.92092 5.41219 10.0084L3.21219 11.6584C3.09549 11.746 3.01835 11.8763 2.99772 12.0207C2.97709 12.1651 3.01467 12.3117 3.10219 12.4284ZM11.0002 7.14844C11.1461 7.14844 11.286 7.20638 11.3891 7.30953C11.4922 7.41267 11.5502 7.55257 11.5502 7.69844V11.5484C11.5502 11.6943 11.4922 11.8342 11.3891 11.9373C11.286 12.0405 11.1461 12.0984 11.0002 12.0984C10.8543 12.0984 10.7144 12.0405 10.6113 11.9373C10.5081 11.8342 10.4502 11.6943 10.4502 11.5484V7.69844C10.4502 7.55257 10.5081 7.41267 10.6113 7.30953C10.7144 7.20638 10.8543 7.14844 11.0002 7.14844Z" fill="#F8E9CD"/>
<path fill-rule="evenodd" clip-rule="evenodd" d="M14.8502 11.55C14.8502 11.6959 14.7922 11.8358 14.6891 11.9389C14.586 12.0421 14.4461 12.1 14.3002 12.1H11.0002C10.8543 12.1 10.7144 12.0421 10.6113 11.9389C10.5081 11.8358 10.4502 11.6959 10.4502 11.55C10.4502 11.4041 10.5081 11.2642 10.6113 11.1611C10.7144 11.0579 10.8543 11 11.0002 11H14.3002C14.4461 11 14.586 11.0579 14.6891 11.1611C14.7922 11.2642 14.8502 11.4041 14.8502 11.55Z" fill="#F8E9CD"/>
</svg>
