<svg width="21" height="22" viewBox="0 0 21 22" fill="none" xmlns="http://www.w3.org/2000/svg">
<path d="M19.4113 21.1105C17.2811 21.1105 15.0969 20.5771 12.8588 19.5103C10.6207 18.4435 8.54148 16.9456 6.62107 15.0168C4.70065 13.088 3.20705 11.0087 2.14024 8.77904C1.07344 6.54937 0.540039 4.36942 0.540039 2.23918C0.540039 1.85325 0.666438 1.53177 0.919235 1.27476C1.17203 1.01775 1.48803 0.888404 1.86722 0.886719H4.99306C5.33686 0.886719 5.63684 0.995 5.89301 1.21156C6.14918 1.42813 6.32235 1.70578 6.41251 2.04453L7.03945 5.05787C7.09843 5.41178 7.0879 5.72062 7.00785 5.98437C6.92779 6.24812 6.78749 6.46426 6.58694 6.63279L3.81376 9.2189C4.33283 10.1602 4.90626 11.0348 5.53404 11.8429C6.16182 12.651 6.83173 13.4166 7.54378 14.1396C8.27689 14.8727 9.06646 15.5553 9.91248 16.1872C10.7585 16.8184 11.6871 17.4142 12.6983 17.9745L15.402 15.2228C15.6076 15.0012 15.8389 14.855 16.0959 14.7842C16.3521 14.7143 16.636 14.7004 16.9478 14.7425L19.606 15.286C19.9498 15.3703 20.2287 15.5435 20.4427 15.8055C20.6568 16.0676 20.7638 16.3676 20.7638 16.7055V19.7833C20.7638 20.1625 20.6349 20.4785 20.377 20.7313C20.1192 20.9841 19.7964 21.1105 19.4113 21.1105ZM3.21969 8.03329L5.64654 5.80235C5.72659 5.73747 5.77883 5.64815 5.80327 5.53439C5.82855 5.42063 5.82434 5.3153 5.79063 5.21839L5.23068 2.53875C5.19782 2.40982 5.14094 2.31291 5.06005 2.24803C4.97915 2.18315 4.87424 2.1507 4.74532 2.1507H2.15162C2.05471 2.1507 1.97382 2.18315 1.90893 2.24803C1.84405 2.31291 1.81161 2.39381 1.81161 2.49071C1.83604 3.35444 1.97129 4.25608 2.21735 5.19564C2.4634 6.1352 2.79667 7.08108 3.21969 8.03329ZM13.9016 18.5673C14.7561 18.9903 15.6661 19.3034 16.6318 19.5065C17.5992 19.7087 18.4419 19.817 19.1598 19.8313C19.2567 19.8313 19.3376 19.7989 19.4025 19.734C19.4674 19.6691 19.4998 19.5886 19.4998 19.4926V16.9545C19.4998 16.8256 19.4674 16.7202 19.4025 16.6385C19.3376 16.5576 19.2407 16.5011 19.1118 16.4691L16.7734 15.9901C16.6756 15.9572 16.5901 15.953 16.5168 15.9774C16.4443 16.0027 16.3677 16.0554 16.2868 16.1354L13.9016 18.5673Z" fill="#825300"/>
</svg>
