<svg width="31" height="32" viewBox="0 0 31 32" fill="none" xmlns="http://www.w3.org/2000/svg">
<g opacity="0.5">
<path d="M5.48047 23.5771C5.48047 22.2378 6.01249 20.9534 6.95951 20.0064C7.90652 19.0594 9.19094 18.5273 10.5302 18.5273H20.6297C21.969 18.5273 23.2534 19.0594 24.2004 20.0064C25.1475 20.9534 25.6795 22.2378 25.6795 23.5771C25.6795 24.2467 25.4135 24.8889 24.94 25.3625C24.4665 25.836 23.8242 26.102 23.1546 26.102H8.00535C7.33571 26.102 6.69349 25.836 6.21999 25.3625C5.74648 24.8889 5.48047 24.2467 5.48047 23.5771Z" stroke="#825300" stroke-width="1.5" stroke-linejoin="round"/>
<path d="M15.5803 13.477C17.672 13.477 19.3676 11.7813 19.3676 9.68966C19.3676 7.59798 17.672 5.90234 15.5803 5.90234C13.4886 5.90234 11.793 7.59798 11.793 9.68966C11.793 11.7813 13.4886 13.477 15.5803 13.477Z" stroke="#825300" stroke-width="1.5"/>
</g>
</svg>
