<svg width="31" height="31" viewBox="0 0 31 31" fill="none" xmlns="http://www.w3.org/2000/svg">
<path d="M21.3334 12.5833C21.3334 14.1304 20.7188 15.6142 19.6249 16.7081C18.5309 17.8021 17.0472 18.4167 15.5001 18.4167C13.953 18.4167 12.4693 17.8021 11.3753 16.7081C10.2813 15.6142 9.66675 14.1304 9.66675 12.5833C9.66675 11.0362 10.2813 9.55251 11.3753 8.45854C12.4693 7.36458 13.953 6.75 15.5001 6.75C17.0472 6.75 18.5309 7.36458 19.6249 8.45854C20.7188 9.55251 21.3334 11.0362 21.3334 12.5833Z" fill="#825300"/>
<path fill-rule="evenodd" clip-rule="evenodd" d="M14.9051 30.071C7.12706 29.7589 0.916748 23.3539 0.916748 15.4993C0.916748 7.44497 7.44571 0.916016 15.5001 0.916016C23.5545 0.916016 30.0834 7.44497 30.0834 15.4993C30.0834 23.5537 23.5545 30.0827 15.5001 30.0827H15.3003C15.1681 30.0827 15.0363 30.0788 14.9051 30.071ZM6.14196 24.7014C6.03292 24.3883 5.99581 24.0546 6.03337 23.7252C6.07093 23.3958 6.18221 23.079 6.35894 22.7985C6.53567 22.518 6.77331 22.2808 7.05423 22.1047C7.33515 21.9286 7.65213 21.818 7.98164 21.7811C13.6662 21.1519 17.3689 21.2087 23.0258 21.7942C23.3558 21.8286 23.6735 21.9378 23.9549 22.1135C24.2363 22.2893 24.4738 22.5269 24.6495 22.8083C24.8251 23.0897 24.9343 23.4075 24.9685 23.7375C25.0028 24.0674 24.9613 24.4009 24.8473 24.7124C27.2718 22.2595 28.6296 18.9483 28.6251 15.4993C28.6251 8.2507 22.7487 2.37435 15.5001 2.37435C8.25144 2.37435 2.37508 8.2507 2.37508 15.4993C2.37508 19.0839 3.81227 22.3331 6.14196 24.7014Z" fill="#825300"/>
</svg>
