<svg width="66" height="66" viewBox="0 0 66 66" fill="none" xmlns="http://www.w3.org/2000/svg">
<g clip-path="url(#clip0_639_23461)">
<path d="M47.0279 25.3725C47.6549 24.7373 47.6549 23.706 47.0279 23.0625C46.4009 22.419 45.3862 22.4273 44.7592 23.0625L28.7748 39.2738L21.3498 31.7457C21.2019 31.5948 21.0254 31.4749 20.8306 31.393C20.6359 31.3112 20.4267 31.269 20.2154 31.269C20.0041 31.269 19.795 31.3112 19.6002 31.393C19.4054 31.4749 19.2289 31.5948 19.081 31.7457C18.7787 32.0541 18.6094 32.4688 18.6094 32.9007C18.6094 33.3326 18.7787 33.7472 19.081 34.0557L27.6404 42.7388C27.7883 42.8897 27.9648 43.0096 28.1596 43.0915C28.3543 43.1733 28.5635 43.2155 28.7748 43.2155C28.9861 43.2155 29.1952 43.1733 29.39 43.0915C29.5848 43.0096 29.7613 42.8897 29.9092 42.7388L47.0279 25.3725Z" fill="#34C759"/>
<path fill-rule="evenodd" clip-rule="evenodd" d="M66 33C66 51.2325 51.2325 66 33 66C14.7675 66 0 51.2325 0 33C0 14.7675 14.7675 0 33 0C51.2325 0 66 14.7675 66 33ZM63.9375 33C63.9375 50.0775 50.0775 63.9375 33 63.9375C15.9225 63.9375 2.0625 50.0775 2.0625 33C2.0625 15.9225 15.9225 2.0625 33 2.0625C50.0775 2.0625 63.9375 15.9225 63.9375 33Z" fill="#34C759"/>
</g>
<defs>
<clipPath id="clip0_639_23461">
<rect width="66" height="66" fill="white"/>
</clipPath>
</defs>
</svg>
