<svg width="47" height="17" viewBox="0 0 47 17" fill="none" xmlns="http://www.w3.org/2000/svg">
<path d="M5.11933 10.2062C17.9721 1.99031 31.2249 0.460861 45.4466 4.82897C44.5865 6.19624 43.7036 5.79275 43.0409 5.61246C37.9652 4.45384 32.8829 4.76316 27.8438 5.00716C20.5804 5.34456 13.9453 8.06656 7.58079 12.0462C7.29751 12.1959 7.07507 12.4621 6.53199 13.0038C10.007 13.5228 13.2591 11.7402 16.3739 13.1501C16.348 13.3971 16.3774 13.7 16.3518 13.947C14.1567 14.3433 11.9125 14.7442 9.72304 15.2011C7.53381 15.6579 5.39979 16.1705 3.20469 16.5667C1.59378 16.8452 0.811342 15.9428 1.22523 14.0686C1.73378 11.6349 2.55498 9.35429 3.27188 7.02269C3.34681 6.77087 3.46496 6.45372 3.64982 6.31352C4.1673 6.01881 4.70239 5.90578 5.27483 5.66685C5.43174 6.26303 5.74227 6.90544 5.74603 7.45532C5.71808 8.19167 5.43268 8.83074 5.11933 10.2062Z" fill="#593B06"/>
</svg>
