<svg width="19" height="18" viewBox="0 0 19 18" fill="none" xmlns="http://www.w3.org/2000/svg">
<path fill-rule="evenodd" clip-rule="evenodd" d="M5.16489 3.9934C4.40454 4.74255 3.82331 5.65385 3.46464 6.65919C3.10597 7.66454 2.97913 8.73794 3.09359 9.7992C3.10424 9.94175 3.05898 10.0828 2.96738 10.1926C2.87578 10.3024 2.74506 10.3721 2.6029 10.3871C2.46074 10.4022 2.31832 10.3612 2.20581 10.273C2.0933 10.1849 2.01956 10.0563 2.00019 9.9147C1.86817 8.68896 2.01477 7.44923 2.42905 6.2881C2.84333 5.12697 3.51459 4.07443 4.39269 3.2091C7.62339 0.022396 12.8352 0.0740961 16.0329 3.3169C19.2306 6.5597 19.2097 11.7704 15.9779 14.9571C14.4817 16.4345 12.4736 17.2784 10.3712 17.3133C9.57626 17.3279 8.78339 17.2275 8.01719 17.0152C7.87657 16.9764 7.75713 16.8833 7.68513 16.7565C7.61314 16.6296 7.59449 16.4793 7.63329 16.3387C7.67209 16.1981 7.76516 16.0786 7.89203 16.0066C8.0189 15.9346 8.16917 15.916 8.30979 15.9548C8.9743 16.139 9.66195 16.226 10.3514 16.2133C12.1719 16.1847 13.911 15.454 15.2057 14.1739C18.0008 11.4173 18.0239 6.9029 15.2497 4.0891C12.4755 1.2753 7.95999 1.2368 5.16489 3.9934Z" fill="#825300"/>
<path fill-rule="evenodd" clip-rule="evenodd" d="M2.9534 10.4968C2.9053 10.5507 2.84706 10.5946 2.78199 10.6259C2.71693 10.6573 2.64633 10.6756 2.57421 10.6797C2.5021 10.6837 2.42989 10.6736 2.3617 10.6498C2.29351 10.6259 2.23068 10.5889 2.1768 10.5408L0.284802 8.85781C0.22664 8.81112 0.178582 8.75309 0.14355 8.68725C0.108517 8.6214 0.0872429 8.54912 0.0810196 8.4748C0.0747963 8.40048 0.0837544 8.32566 0.107349 8.25491C0.130944 8.18416 0.168682 8.11894 0.21827 8.06323C0.267857 8.00752 0.328257 7.96248 0.395798 7.93084C0.463338 7.8992 0.536608 7.88163 0.611151 7.8792C0.685694 7.87677 0.759954 7.88952 0.829415 7.91668C0.898875 7.94385 0.962085 7.98485 1.0152 8.03721L2.9072 9.72021C2.96124 9.76816 3.0053 9.82629 3.03687 9.89127C3.06844 9.95625 3.0869 10.0268 3.09119 10.0989C3.09548 10.1711 3.08552 10.2433 3.06188 10.3116C3.03823 10.3798 3.00137 10.4428 2.9534 10.4968Z" fill="#825300"/>
<path fill-rule="evenodd" clip-rule="evenodd" d="M2.10219 10.4284C2.14553 10.4862 2.19982 10.5349 2.26197 10.5717C2.32412 10.6085 2.39291 10.6327 2.46441 10.6429C2.53591 10.6531 2.60872 10.6492 2.67869 10.6312C2.74866 10.6133 2.81441 10.5818 2.87219 10.5384L5.07219 8.88844C5.18889 8.80092 5.26603 8.67062 5.28666 8.52622C5.30729 8.38182 5.26971 8.23513 5.18219 8.11844C5.09467 8.00174 4.96437 7.92459 4.81997 7.90396C4.67557 7.88334 4.52889 7.92092 4.41219 8.00844L2.21219 9.65844C2.09549 9.74596 2.01835 9.87625 1.99772 10.0207C1.97709 10.1651 2.01467 10.3117 2.10219 10.4284ZM10.0002 5.14844C10.1461 5.14844 10.286 5.20638 10.3891 5.30953C10.4922 5.41267 10.5502 5.55257 10.5502 5.69844V9.54844C10.5502 9.69431 10.4922 9.8342 10.3891 9.93735C10.286 10.0405 10.1461 10.0984 10.0002 10.0984C9.85432 10.0984 9.71443 10.0405 9.61128 9.93735C9.50814 9.8342 9.45019 9.69431 9.45019 9.54844V5.69844C9.45019 5.55257 9.50814 5.41267 9.61128 5.30953C9.71443 5.20638 9.85432 5.14844 10.0002 5.14844Z" fill="#825300"/>
<path fill-rule="evenodd" clip-rule="evenodd" d="M13.8502 9.55C13.8502 9.69587 13.7922 9.83576 13.6891 9.93891C13.586 10.0421 13.4461 10.1 13.3002 10.1H10.0002C9.85433 10.1 9.71443 10.0421 9.61129 9.93891C9.50814 9.83576 9.4502 9.69587 9.4502 9.55C9.4502 9.40413 9.50814 9.26424 9.61129 9.16109C9.71443 9.05795 9.85433 9 10.0002 9H13.3002C13.4461 9 13.586 9.05795 13.6891 9.16109C13.7922 9.26424 13.8502 9.40413 13.8502 9.55Z" fill="#825300"/>
</svg>
