<svg width="64" height="53" viewBox="0 0 64 53" fill="none" xmlns="http://www.w3.org/2000/svg">
<path d="M63.156 10.3065C63.1184 10.2366 63.0727 10.1748 63.0216 10.121C62.9813 10.0565 62.9356 9.99736 62.8765 9.9436C62.3926 9.48125 59.8631 9.20976 56.4116 9.3576C55.4009 7.04851 53.8418 5.01097 51.8634 3.44377C48.6296 0.884679 44.5786 -0.25772 40.4552 0.220751C36.3317 0.701919 32.6516 2.74489 30.0924 5.97864L28.8854 7.50276L27.6785 5.97864C25.1194 2.74489 21.4394 0.701906 17.3156 0.220751C13.1921 -0.260418 9.14108 0.884706 5.90746 3.44377C2.6737 6.00287 0.630721 9.68282 0.149567 13.8066C-0.328911 17.9302 0.813522 21.9812 3.37259 25.2148L16.5548 41.8701C17.7403 43.3674 19.165 44.5985 20.7563 45.5447C20.1569 47.378 19.8827 49.4263 20.2751 51.5741C20.3423 51.9423 20.6649 52.2004 21.0251 52.2004C21.0708 52.2004 21.1165 52.195 21.1649 52.1869C21.5815 52.1117 21.8557 51.7111 21.7777 51.2972C21.4552 49.5391 21.6648 47.8349 22.1433 46.2785C24.1648 47.2139 26.3932 47.7166 28.7103 47.7166H29.0437C33.8393 47.7166 38.2663 45.5903 41.2129 41.8673L43.7209 38.698C46.2262 38.0448 48.3444 37.0449 50.046 35.69C59.2066 29.1768 64.0615 11.9674 63.1532 10.3007L63.156 10.3065ZM60.7126 10.9248L27.5251 36.3437C28.7724 26.8066 31.5814 20.3552 35.9226 17.1587C42.9012 11.4115 56.4784 10.6079 60.7146 10.925L60.7126 10.9248ZM21.3159 44.0984C19.9746 43.2651 18.7703 42.198 17.7596 40.9211L4.57737 24.2658C2.27365 21.3519 1.24142 17.7015 1.6742 13.9841C2.10698 10.2668 3.94833 6.94917 6.86223 4.64593C12.9023 -0.133481 21.7029 0.890693 26.4828 6.9308L28.2892 9.21298C28.5795 9.57856 29.1977 9.57856 29.4881 9.21298L31.2945 6.9308C33.5982 4.01689 36.9153 2.17554 40.6327 1.74276C44.3476 1.30998 48.0007 2.33952 50.9143 4.64593C52.5487 5.9389 53.8659 7.58936 54.7771 9.45762C48.5192 9.93609 40.1216 11.7237 34.9818 15.9574C30.1781 19.4949 27.1162 26.6079 25.8824 37.0995C25.8528 37.3521 25.8313 37.5537 25.8125 37.6908C25.1351 38.344 22.783 40.7552 21.3153 44.1019L21.3159 44.0984ZM40.0171 40.9211C37.3317 44.3135 33.2673 46.2355 28.8801 46.1897C26.6866 46.2139 24.5738 45.7435 22.676 44.843C23.9905 41.784 26.1517 39.5045 26.7888 38.8701C26.9205 38.8889 27.0818 38.9131 27.2968 38.9453C30.3559 39.3969 33.1784 39.6227 35.7563 39.6227C37.7938 39.6227 39.6648 39.4668 41.3932 39.1846L40.0169 40.9237L40.0171 40.9211ZM49.1296 34.4724C47.549 35.7304 45.5679 36.6578 43.2077 37.2626C43.1755 37.2653 43.1459 37.2814 43.1136 37.2895C39.2401 38.2599 34.3342 38.3459 28.4526 37.5556L61.64 12.1395C60.8416 16.3114 56.5246 29.2118 49.1267 34.4748L49.1296 34.4724ZM8.35944 21.0479C8.62019 21.3786 8.56642 21.8597 8.2331 22.1232C8.09333 22.2334 7.92397 22.2871 7.76 22.2871C7.53421 22.2871 7.31109 22.1877 7.16056 21.9968C4.60959 18.7738 4.38649 14.271 6.60144 10.7958C6.82993 10.441 7.30301 10.3361 7.65789 10.5619C8.01271 10.7877 8.11755 11.2608 7.89175 11.6184C6.02624 14.5457 6.21435 18.3357 8.35944 21.0479ZM9.81371 8.55387C10.0745 8.8845 10.0207 9.36568 9.69006 9.6291C9.55565 9.73663 9.42393 9.84684 9.2976 9.95974C9.15244 10.0915 8.96696 10.156 8.78686 10.156C8.57719 10.156 8.3702 10.07 8.21967 9.90329C7.93742 9.58878 7.96162 9.10765 8.27612 8.82269C8.42666 8.68828 8.58256 8.55657 8.74385 8.42754C9.07449 8.16679 9.55566 8.22056 9.81909 8.55119L9.81371 8.55387Z" fill="#825300"/>
</svg>
