<svg width="27" height="26" viewBox="0 0 27 26" fill="none" xmlns="http://www.w3.org/2000/svg">
<path d="M2.3208 18.3555H10.8921C11.0057 18.3555 11.1145 18.4011 11.1948 18.4814C11.2752 18.5618 11.3208 18.6706 11.3208 18.7842V24.499C11.3207 24.6125 11.2751 24.7215 11.1948 24.8018C11.1145 24.882 11.0057 24.9268 10.8921 24.9268H2.3208C2.20727 24.9268 2.09841 24.882 2.01807 24.8018C1.93779 24.7215 1.8922 24.6125 1.89209 24.499V18.7842C1.89213 18.6706 1.93773 18.5618 2.01807 18.4814C2.09843 18.4012 2.2072 18.3555 2.3208 18.3555ZM16.606 12.6416H25.1782C25.2917 12.6417 25.4007 12.6864 25.481 12.7666C25.5613 12.847 25.606 12.9566 25.606 13.0703V24.499C25.6058 24.6125 25.5612 24.7215 25.481 24.8018C25.4007 24.882 25.2917 24.9266 25.1782 24.9268H16.606C16.4924 24.9266 16.3835 24.882 16.3032 24.8018C16.223 24.7215 16.1783 24.6125 16.1782 24.499V13.0703C16.1782 12.9566 16.2229 12.847 16.3032 12.7666C16.3835 12.6864 16.4925 12.6417 16.606 12.6416ZM2.3208 1.21289H10.8921C11.0058 1.21289 11.1145 1.25849 11.1948 1.33887C11.2752 1.41923 11.3208 1.52797 11.3208 1.6416V13.0703C11.3207 13.1839 11.2751 13.2927 11.1948 13.373C11.1145 13.4533 11.0057 13.499 10.8921 13.499H2.3208C2.20724 13.499 2.09842 13.4533 2.01807 13.373C1.93776 13.2927 1.89216 13.1839 1.89209 13.0703V1.6416C1.89209 1.52794 1.93769 1.41924 2.01807 1.33887C2.09844 1.25849 2.20714 1.21289 2.3208 1.21289ZM16.606 1.21289H25.1782C25.2917 1.213 25.4007 1.2586 25.481 1.33887C25.5612 1.41921 25.606 1.52807 25.606 1.6416V7.35547C25.606 7.46913 25.5613 7.57881 25.481 7.65918C25.4007 7.73936 25.2917 7.78407 25.1782 7.78418H16.606C16.4925 7.78407 16.3835 7.73937 16.3032 7.65918C16.2228 7.57881 16.1782 7.46913 16.1782 7.35547V1.6416C16.1782 1.52807 16.223 1.41921 16.3032 1.33887C16.3835 1.25859 16.4924 1.213 16.606 1.21289Z" fill="#4F9EBB" stroke="#4F9EBB" stroke-width="2"/>
</svg>
