<svg width="42" height="58" viewBox="0 0 42 58" fill="none" xmlns="http://www.w3.org/2000/svg">
<path d="M20.9902 1.65039H21.0117C22.0431 1.6341 23.0744 1.69115 24.0977 1.82129C27.4293 2.32926 30.5734 3.68911 33.2256 5.76855C35.8789 7.84892 37.9502 10.5794 39.2383 13.6953L39.2393 13.6973C40.2467 16.1154 40.7653 18.7095 40.7656 21.3291V21.4121L40.7637 21.5996C40.7619 21.7219 40.7585 21.8452 40.7549 21.9717C40.753 22.034 40.7519 22.0831 40.749 22.1299H40.748V22.1377C40.7473 22.1524 40.7464 22.1662 40.7461 22.1768C40.7457 22.1892 40.7464 22.1949 40.7461 22.2031C40.7458 22.2101 40.7452 22.2147 40.7451 22.2168L40.7432 22.2354L40.7422 22.2529C40.7347 22.4113 40.7252 22.5695 40.7139 22.7275C40.3759 27.0938 38.8883 31.2928 36.4014 34.8975L36.3994 34.9004C34.7611 37.3019 30.7754 42.9286 27.1943 47.9619C25.4049 50.477 23.718 52.8422 22.4785 54.5781C21.8607 55.4434 21.3528 56.1519 21 56.6455C20.6472 56.152 20.1401 55.4431 19.5225 54.5781C18.2828 52.8422 16.5963 50.477 14.8066 47.9619C11.2251 42.9286 7.23889 37.3019 5.60059 34.9004L5.14355 34.2148C3.07667 30.9963 1.78193 27.3429 1.36133 23.541L1.28516 22.7236C1.27391 22.567 1.26418 22.4099 1.25684 22.2529L1.25586 22.2354L1.25488 22.2168L1.25391 22.2041C1.25361 22.196 1.25333 22.1898 1.25293 22.1777C1.25258 22.1673 1.25267 22.1534 1.25195 22.1387L1.25098 22.1299L1.24512 21.9717C1.24141 21.8415 1.23708 21.7153 1.23535 21.5898V21.5791L1.2334 21.4121V21.3291C1.23369 18.7094 1.75323 16.1154 2.76074 13.6973L2.76172 13.6953C4.04979 10.5795 6.12024 7.84888 8.77344 5.76855C11.426 3.68875 14.5711 2.32912 17.9033 1.82129C18.9269 1.6913 19.9586 1.63414 20.9902 1.65039ZM29.8457 10.9531C29.2652 11.3612 28.6612 11.7487 28.042 12.1406C27.4268 12.5301 26.7934 12.9258 26.1758 13.3408C24.9391 14.1719 23.7218 15.1058 22.7119 16.3135L22.7061 16.3203C21.6116 17.6666 20.8215 19.2339 20.3887 20.9141C19.9558 22.5944 19.8904 24.349 20.1982 26.0566L20.4727 27.5742L21.3857 26.3809C20.7802 27.5124 20.2057 28.6613 19.6855 29.8359C20.1399 26.3078 19.4381 22.7133 17.6631 19.6025L17.6592 19.5957L17.3721 19.1162C15.914 16.7317 14.1267 14.563 12.0635 12.6748L11.2559 11.9355L10.9502 12.9873C9.87362 16.6856 10.0157 20.6322 11.3564 24.2432L11.3652 24.2666L11.376 24.2891C12.8314 27.4839 15.344 30.0791 18.4902 31.6367L18.8535 31.8164L18.7793 31.9971L19.0752 31.9258L19.2754 32.0254L19.3076 31.8711L20.0752 31.6895C21.7928 31.2808 23.458 30.6774 25.04 29.8936L25.041 29.8945C27.2877 28.8671 29.1661 27.1762 30.4238 25.0498L30.4365 25.0273L30.4482 25.0049C31.3059 23.2691 31.7542 21.3614 31.7617 19.4287L31.7578 19.042C31.7307 16.4617 31.4441 13.8904 30.9033 11.3672L30.6885 10.3613L29.8457 10.9531Z" fill="#D5C6AA" stroke="#825300" stroke-width="1.36228"/>
</svg>
