<svg width="53" height="60" viewBox="0 0 53 60" fill="none" xmlns="http://www.w3.org/2000/svg">
<path d="M48.8448 0.526099C45.9371 0.539924 41.0135 0.710425 35.4465 1.52836C26.5411 2.83711 15.9174 5.76556 9.11298 12.5602C4.78595 16.8826 1.8756 23.2487 1.07873 29.6539C0.32532 35.7133 1.47964 41.8654 5.33433 46.2408C3.97952 50.2223 3.33901 54.3948 3.76759 58.6806C3.79293 58.9226 3.91274 59.1461 4.10168 59.3004C4.29061 59.4571 4.53485 59.5308 4.77675 59.5055C5.02099 59.4802 5.24448 59.3603 5.39886 59.1714C5.55324 58.9825 5.62697 58.7405 5.60162 58.4963C5.23528 54.8329 5.72374 51.2153 6.81357 47.7158C11.1383 51.5314 17.0344 52.9253 22.9676 52.2986C29.2695 51.6327 35.6628 48.7019 40.4806 43.8909C46.0658 38.3128 47.2479 28.6193 48.0377 19.9356C48.4317 15.5947 48.7105 11.4867 49.2888 8.29802C49.8695 5.10921 50.8095 2.97333 52.0192 2.2887V2.291C52.3763 2.08824 52.5583 1.6758 52.4639 1.27488C52.3671 0.876275 52.0215 0.588243 51.6114 0.56754C51.6114 0.56754 50.5906 0.519154 48.8465 0.526067L48.8448 0.526099ZM48.8195 2.36936C49.0292 2.36936 49.1674 2.37166 49.354 2.37166C48.4139 3.78404 47.8794 5.7333 47.4739 7.96827C46.8633 11.3253 46.5914 15.4563 46.1997 19.7699C45.4163 28.3987 44.0776 37.6911 39.177 42.5874C34.6726 47.0849 28.6407 49.8454 22.7723 50.4671C16.9753 51.08 11.383 49.6238 7.46884 45.8106C10.16 38.6705 15.2312 32.0943 20.4802 26.7215C28.7333 18.2796 37.2978 12.8855 37.2978 12.8855L37.3024 12.8878C37.7333 12.6159 37.8623 12.0468 37.5904 11.616C37.4153 11.3372 37.1043 11.1736 36.7771 11.1851C36.6135 11.192 36.4568 11.2404 36.3209 11.328C36.3209 11.328 27.5906 16.8163 19.1671 25.4358C14.0359 30.6845 8.97162 37.1201 6.08197 44.2442C3.16962 40.4171 2.25029 35.1936 2.90927 29.8827C3.65577 23.8781 6.44143 17.8345 10.4162 13.8649C16.7204 7.56773 26.9961 4.63503 35.7152 3.35389C41.1643 2.55435 45.9773 2.38619 48.8209 2.37233L48.8195 2.36936Z" fill="#825300"/>
</svg>
