<svg width="18" height="18" viewBox="0 0 18 18" fill="none" xmlns="http://www.w3.org/2000/svg">
<path fill-rule="evenodd" clip-rule="evenodd" d="M4.16489 3.9934C3.40454 4.74255 2.82331 5.65385 2.46464 6.65919C2.10597 7.66454 1.97913 8.73794 2.09359 9.7992C2.10424 9.94175 2.05898 10.0828 1.96738 10.1926C1.87578 10.3024 1.74506 10.3721 1.6029 10.3871C1.46074 10.4022 1.31832 10.3612 1.20581 10.273C1.0933 10.1849 1.01956 10.0563 1.00019 9.9147C0.868166 8.68896 1.01477 7.44923 1.42905 6.2881C1.84333 5.12697 2.51459 4.07443 3.39269 3.2091C6.62339 0.022396 11.8352 0.0740961 15.0329 3.3169C18.2306 6.5597 18.2097 11.7704 14.9779 14.9571C13.4817 16.4345 11.4736 17.2784 9.37119 17.3133C8.57626 17.3279 7.78339 17.2275 7.01719 17.0152C6.87657 16.9764 6.75713 16.8833 6.68513 16.7565C6.61314 16.6296 6.59449 16.4793 6.63329 16.3387C6.67209 16.1981 6.76516 16.0786 6.89203 16.0066C7.0189 15.9346 7.16917 15.916 7.30979 15.9548C7.9743 16.139 8.66195 16.226 9.35139 16.2133C11.1719 16.1847 12.911 15.454 14.2057 14.1739C17.0008 11.4173 17.0239 6.9029 14.2497 4.0891C11.4755 1.2753 6.95999 1.2368 4.16489 3.9934Z" fill="#F8E9CD"/>
</svg>
