<svg width="13" height="13" viewBox="0 0 13 13" fill="none" xmlns="http://www.w3.org/2000/svg">
<path d="M6.5482 10.5032L3.57889 12.7703C3.43176 12.8907 3.27126 12.9477 3.09738 12.9412C2.9235 12.9348 2.76969 12.8845 2.63594 12.7904C2.50218 12.6967 2.39866 12.5697 2.32536 12.4092C2.25207 12.2487 2.24859 12.0748 2.31493 11.8875L3.45851 8.17591L0.549395 6.10943C0.388892 6.00243 0.288577 5.86199 0.248451 5.68811C0.208326 5.51423 0.215013 5.35373 0.268514 5.2066C0.322015 5.05947 0.415642 4.92893 0.549395 4.81497C0.683147 4.70102 0.84365 4.64431 1.0309 4.64484H4.62216L5.78581 0.792765C5.85268 0.605512 5.95648 0.461594 6.09718 0.361012C6.23789 0.26043 6.38823 0.210407 6.5482 0.210942C6.7087 0.210942 6.85931 0.261233 7.00001 0.361815C7.14072 0.462397 7.24425 0.606047 7.31059 0.792765L8.47424 4.64484H12.0655C12.2527 4.64484 12.4132 4.70182 12.547 4.81578C12.6808 4.92973 12.7744 5.06001 12.8279 5.2066C12.8814 5.35373 12.8881 5.51423 12.8479 5.68811C12.8078 5.86199 12.7075 6.00243 12.547 6.10943L9.63788 8.17591L10.7815 11.8875C10.8483 12.0748 10.8451 12.2487 10.7718 12.4092C10.6985 12.5697 10.5947 12.6967 10.4605 12.7904C10.3267 12.884 10.1729 12.9343 9.99901 12.9412C9.82514 12.9482 9.66463 12.8912 9.51751 12.7703L6.5482 10.5032Z" fill="#F7A300"/>
</svg>
